/* XPM */
static char *tlugq_a6kjw[] = {
/* columns rows colors chars-per-pixel */
"64 64 256 2 ",
"   c #030402",
".  c #030B01",
"X  c #0B0C02",
"o  c #070709",
"O  c #160803",
"+  c #041301",
"@  c #0B1402",
"#  c #031B01",
"$  c #0C1C02",
"%  c #0C130C",
"&  c #08190B",
"*  c #131302",
"=  c #121B03",
"-  c #12140D",
";  c #181809",
":  c #080915",
">  c #160916",
",  c #081715",
"<  c #161816",
"1  c #250A08",
"2  c #261807",
"3  c #271818",
"4  c #320D11",
"5  c #032300",
"6  c #0C2404",
"7  c #0D2B04",
"8  c #0E2309",
"9  c #0E2B09",
"0  c #04290C",
"q  c #122305",
"w  c #122B04",
"e  c #12230A",
"r  c #132B0A",
"t  c #1B2908",
"y  c #0D3305",
"u  c #0A3707",
"i  c #133405",
"p  c #1C3402",
"a  c #133A02",
"s  c #14330A",
"d  c #1B340B",
"f  c #153C0B",
"g  c #1B3C0C",
"h  c #1B3B04",
"j  c #082717",
"k  c #182816",
"l  c #1A3815",
"z  c #093318",
"x  c #262807",
"c  c #273807",
"v  c #353907",
"b  c #262817",
"n  c #253817",
"m  c #353212",
"M  c #181A24",
"N  c #100E2B",
"B  c #29162D",
"V  c #182627",
"C  c #0F2D2F",
"Z  c #262627",
"A  c #2A3523",
"S  c #2A2A33",
"D  c #332E31",
"F  c #471518",
"G  c #700811",
"H  c #493710",
"J  c #580D34",
"K  c #482C2F",
"L  c #702123",
"P  c #084706",
"I  c #194608",
"U  c #195506",
"Y  c #1C4716",
"T  c #115612",
"R  c #274707",
"E  c #364807",
"W  c #265708",
"Q  c #345408",
"!  c #264816",
"~  c #364815",
"^  c #275514",
"/  c #385414",
"(  c #276404",
")  c #276515",
"_  c #32620A",
"`  c #184F25",
"'  c #304E2A",
"]  c #20681C",
"[  c #434319",
"{  c #45480E",
"}  c #475326",
"|  c #5D6925",
" . c #340D52",
".. c #382F46",
"X. c #1E1E54",
"o. c #50124C",
"O. c #6C1257",
"+. c #52146B",
"@. c #6B1667",
"#. c #452576",
"$. c #6C256D",
"%. c #354A49",
"&. c #545560",
"*. c #921110",
"=. c #AC160F",
"-. c #AF2614",
";. c #8D122D",
":. c #A02426",
">. c #CC120B",
",. c #CC2C17",
"<. c #CC2B32",
"1. c #E52423",
"2. c #B06E1B",
"3. c #D37117",
"4. c #F16E17",
"5. c #CC502D",
"6. c #D76E28",
"7. c #E76D2A",
"8. c #D85019",
"9. c #9A265A",
"0. c #DF2C56",
"q. c #AA6252",
"w. c #CE764D",
"e. c #ED6E4F",
"r. c #ED5072",
"t. c #D46975",
"y. c #E15F6F",
"u. c #2CA91F",
"i. c #61A61B",
"p. c #62B054",
"a. c #5BD066",
"s. c #38C557",
"d. c #B78F1D",
"f. c #D88A13",
"g. c #EA9413",
"h. c #F2AA16",
"j. c #D98F2B",
"k. c #E8892A",
"l. c #F0932B",
"z. c #F6A628",
"x. c #F3B12F",
"c. c #D3AA32",
"v. c #FBCF34",
"b. c #EBD61F",
"n. c #B09E59",
"m. c #FD8953",
"M. c #D3B44F",
"N. c #F7AE4B",
"B. c #FA8E75",
"V. c #F3B66E",
"C. c #D49A51",
"Z. c #FAC847",
"A. c #F2D252",
"S. c #F7F054",
"D. c #F8F16D",
"F. c #E1CF66",
"G. c #751988",
"H. c #523693",
"J. c #733796",
"K. c #692DB1",
"L. c #4F23A0",
"P. c #3C4E9F",
"I. c #5248AF",
"U. c #6C4CA8",
"Y. c #5C5A9F",
"T. c #5C32CE",
"R. c #3158DC",
"E. c #5352CA",
"W. c #664FCC",
"Q. c #5267CD",
"!. c #5B50E8",
"~. c #6E61E5",
"^. c #3832D2",
"/. c #893591",
"(. c #9A27A5",
"). c #9C5FA2",
"_. c #FE548A",
"`. c #D56D92",
"'. c #F76997",
"]. c #F26FAB",
"[. c #D864A5",
"{. c #966ECA",
"}. c #AB72D4",
"|. c #AF75E9",
" X c #A655D5",
".X c #DB68D0",
"XX c #D72DB1",
"oX c #23C7B2",
"OX c #65E6A4",
"+X c #67AADB",
"@X c #33E7EA",
"#X c #52F3F3",
"$X c #6EFAF6",
"%X c #59CFEC",
"&X c #26A1B4",
"*X c #9DA5B9",
"=X c #9D9FA2",
"-X c #E2ADA6",
";X c #9ADEAC",
":X c #F8D690",
">X c #F6F08B",
",X c #F5CDAD",
"<X c #FFE6BA",
"1X c #9494D3",
"2X c #AA8BD8",
"3X c #AC91D3",
"4X c #97A8D3",
"5X c #A8A8DB",
"6X c #B6AADD",
"7X c #A8B7DA",
"8X c #B6B9D9",
"9X c #ADB6C7",
"0X c #B79CE7",
"qX c #AF93EC",
"wX c #92A9E6",
"eX c #ADA8E4",
"rX c #B6AAE7",
"tX c #ABB6E6",
"yX c #B6B8E8",
"uX c #B7A6F6",
"iX c #BAB8F9",
"pX c #AAB1F6",
"aX c #948FE9",
"sX c #C6BBDA",
"dX c #CC96F2",
"fX c #F195F2",
"gX c #C4ACE5",
"hX c #C6BAE9",
"jX c #C9A9F9",
"kX c #C5B7F8",
"lX c #D4B7FA",
"zX c #D7A8FA",
"xX c #F0B1F1",
"cX c #F8A4D0",
"vX c #B6C7DA",
"bX c #B5CCCF",
"nX c #AAC5E5",
"mX c #B9C5E8",
"MX c #B9C6F4",
"NX c #B7D6EF",
"BX c #90F6F5",
"VX c #AFEFFA",
"CX c #93D2D6",
"ZX c #C5C9DA",
"AX c #CAD3D3",
"SX c #C5C7E8",
"DX c #C3D6EA",
"FX c #C6C6F5",
"GX c #D6C9FA",
"HX c #CAD4F6",
"JX c #D6D4F4",
"KX c #EFD5FC",
"LX c #D0E7F2",
"PX c #F9F9FB",
"IX c #EDEEF7",
"UX c #E8EDD5",
/* pixels */
"- o O * $ : & # , + - * * ; e & 5 O $ # * # 5 X < X - O - X ; # 6 * * = r # + ; # # # + & : & & @ @ @ @ @ X *   X . . . . . o . ",
"* < A m n V k r p h v E E E Q R U v Y I c R T n P P U W U U U ( ( ) ) W ) ) ) W ! ^ ^ Q ! I I R l g d d c n m c b d t t 8 = = @ ",
"= b ' v t D S k d l ! ^ / ! c ! / m ~ ! v E / ~ ` ' u Y R / ` ^ T U ) T P ] ) I ] ) P U U U W W I I I R R R ~ R c p w q 6 q = * ",
"+ @ t c ' *X8X9X7XvXmXNXDXmXvXDXNXNXNXNXmXnXnXtXJXSXhX9XJXJXJXZXNXyXmXHXNXNXmXSXNXbX] ^ ^ Y I I P I I I I c R R p p p w w t t x ",
"& % e = A 5XiXyXvXvXZXDXHXSXDXJXGXJXGXGXSXhXgX0XnXvXDXvXLXDXHXSXAXsXAXAXbXbXbXAXNX9X' U ! / ^ / I R c R c c c c n g d s s t t e ",
"  < b x ' yXiXFXHXSXJXSXhXFXGXSXZXNXmXvXLXAX9XiXNXMXNXDXvXHXHXiX9XGXGXyXmXHXZXbXZXbX} ) ( W W W R R ~ ~ v c d h s s w 9 q e ; * ",
"X ; m v K 8XrXyXiXeXdXdX}.dXjX1X}.jXqX}.iXjX|.dXjXuX2XuX2XzXjX}.5XGXsX3XmXNXvXvX8XbX/ _ W U I I R R E ~ R g a u a s y i s t e e ",
"2 2 x v } SXtXrXrX2X}.dX|.zXzX2XdXGX3X}.mX6X{.uX2X}.kXlX6X2XdX{.gXzX}.2XkXFX8XHXHXDX' ( U ] ` ` E Q { / ~ R I P a a i i i w $ * ",
"1 1 v c v 5XtXtXrX{. XdXhXsXGX}.dXNX0X}.DX0X XrX{.qXlXgX5X3XdX XbX9X{.jXSXZXHXGXDXnX( ) ] U I ^ ^ I | R ! W Y P u I u P i s 8 e ",
"2 2 v x v 6XtXyXgX2X}.dXhXZXlX{.jXNX{.zXyXgX XsX2XzXuXlX{.dX}. X6XdX{.jXsXbXZXFXZXnX( ) ^ U I U / / I / R p Y I y I u u s l e $ ",
"F 2 v c E rXyXyXsXdX{.{.3X9XhX}.lXbX2X|.6X2X|.yXqX{.2X1XhXkXdX|.|.|.{.lXvXAXSXHXSXMX( ) U ^ I U ~ ~ | } ~ c l ! n n l k l k @ @ ",
"4 b c m ~ hXyXmXGXKXzXgX6XmXGXgXyX9XjX XgX2XjXvXGXuXrX5XtXrX{.{.|.dX2XGXvXAXDXJXZXmX( ) W ^ W ^ x t UX  $ ; . & . . $ + & . @ k ",
"x < c c v yXkXFX7XSXyXyX7X7X7XyX7XbXiXuXpXiXFXnXtX7XmX7X9X7X1XhXgXgXmXNXAXbXSXFXZXyXW W U ^ W W Z <   b :   > M O 3 < < < - ; @ ",
"2 - p t ~ yXmXMXFXyX7X7X8XyXmXmXvXmXyXFXtXnXpXnXmXtX4X7X+XnX4XSXSXvXvXbXZX8XSXFXhXyX( W W ^ W / Z Z : , o o : : < =X=X&.%   b m ",
"X & p s c rXyXmXrX7X8XmXGXSX8X7XSXFXHXNXNX7XnXMXMX1X7X4XNX4XDX7XSX8XvX8XSXhXSXvXSXMX( ) W / Q Q S M   Z k k k % D ).D %.3 b K = ",
"+ , f g R tXtXmXkXrXhX6X6XgXhXZXyXIXIXLXLXLXHXFXpXkXiXJXtX4XyXrXgXFXmXFXlXGX8X9XvXyXW U R Q Q / D k , + + & - @ n &.o ..o   x x ",
"+ , a i R rXyXMX8XrXhX9X9XpXtX9X;XPXIXIXIXAXLXSX6X8X8XJXuX9XrX8XmXhXFXFXmXhXSXhXvXtXQ ^ / Q Q W n > 4 3 M < D 3 j &.D S : # t m ",
"X , p h c rXeXrX7XeXrX7X7XpXpX8X=XIXD.S.D.S.D.F.A.F.F.AX5X*XpXiXiXMXmXFXyXyX8XyXvXtX_ Q / / Q W C M V < j j M < # b 3 < <   2 ; ",
"X - c d v 5X5X5X9X4XuX6X9XtX6X6XhXIXD.S.D.S.S.A.v.v.M.,X3X*XnXyXmXiXMXmXSXyXyX8X7XwX( ^ / / W R 3 t n T T ] T ` A F 4 3 b O F x ",
"* , h d c 5XwX4X7X1XuXuXeXtXyXrXyXIXD.D.>XD.S.v.Z.N.N.xX3X*X8XbXyXmXMXyXmXyXtX7X7XwX( W / ~ Q R B 3 % 8 0 r & , P # # # 8 O K c ",
"+ & a u a 1XwX4XaXaXeXuX6X8X8XrX9XLXD.S.>XD.S.v.v.x.N.cXqX1XuX3XtXyXiXyXyXyXtX5X7XwXW W Q Q Q ~ C z . . - O 3 3 > 1 3 k ; O 2 5 ",
"+ & u u i 4X1X+XaX+X4XeX5X7XbX7XiXJX>XD.D.S.S.A.v.x.x.-XqX4XqXgXeXrXpXyXyXtXtX5X5XwX( U W ~ Q ^ K 1 B B S o k # B S B < O * r y ",
"+ & a s g 1X1XaX-X6.l.l.l.N.x.x.,X-XD.S.S.v.Z.v.Z.x.z.-X1X1X1X3X3X5XeXtXeXeX5XeX4XwXW ^ ) Q Q Q S C +XoX#X$XBX$X#X@XoXC , # r 2 ",
"@ , g ! m eX2X1X}.w.g.z.l.N.x.h.h.M.Z.A.D.A.Z.Z.N.x.l.-X1X1XaX2X1X3XeXrXeX5X5XeX4XwXU ] _ ~ Q ~ D C $X%X%XHXJXSXMX%X+XN 4 @ c 4 ",
"- $ ! k ..*X2X|.6.3.k.l.h.h.x.v.g.h.v.A.Z.b.h.N.x.7.V.AX}.{.aX X+X+XaX2X4XnX4X|.+X4X[ Y ( ' ^ Q 0 C %XaX+XeXiXiX+XQ.+XN & 4 k 2 ",
"N . I i l |.3X|.6.3.4.l.l.z.z.x.f.f.v.v.v.x.h.N.x.N.V.:Xr.0.t._._.'.].].'.`.-X].].t.].e.XXu.W l D #.&X%X@X%X%X%X%X+X&XN #   e = ",
"N + h p c |.`.3X7.l.g.l.l.k.k.j.x.x.x.z.h.h.h.N.l.x.c.D.1.0.<.r.r.[.`.[.'.'.].]._._.y.[.s.Q ( ] p ; C N > 4 X , O  .N 3 $ O j 5 ",
"% @ l z x {.6.w.l.l.z.z.l.f.j.k.2.g.g.h.h.h.g.z.N.V.j.V.<.<.;.<.r.y.`.`.].'.'.[.&._.r.r.i.U Y P n - C B B 4 b k Z o.N > # X b w ",
"# q l C b 6.4.4.g.h.x.x.x.j.j.k.h.x.h.h.h.h.g.f.*.>.>.1.1.-.:.<.0.5.r.y.`.t.`.r.y.r.r.i./ T ' L B  .dXxXxXxXPXKX-X.X/.> * * 3 t ",
", ; s u x 3.4.4.g.g.g.z.x.x.j.3.j.h.h.z.h.h.z.7.=.>.1.1.,.=.,.1.1.9.<.r.r.`.`.r.`.w.i.u.W ` R l A V xXgXcX[.cXcXfX.X_.4 2 O 4 6 ",
": 2 x z c q.4.6.g.k.g.j.j.j.j.8.6.f.h.x.z.4.3.*.*.=.=.,.*.*.<.1.9.:.:.:.0._._.0.r.n.W ~ E u ] ' z M fX.X].cXKXKXKX.X[.N @ @ 4 q ",
". 1 k ` P (.7.6.8.4.k.j.3.3.6.6.6.6.f.j.3.3.7.*.:.;.*.*.*.*.:.=.v L L ! L 0.e.p.i./ ' ^ T U / c 4 B fXgXxXKXKXxXdX.XXXN ; & 4 y ",
"* N j u 9 E.P.3.-.3.8.k.6.e.8.7.d.2.r.9.O.9.L.O.G L G G =.,.>.>.,.,.0.<.i.i.| Q.|.{.' U I Y I R B M x O B M M ; 1 3 C b & O b 2 ",
": $ i a s E.^.T.J.6.m.j.6.5.e./.4.8.9.G.L.+.G.XXG G G G ;.=.-.<.5.0.0.0.J.~.~.Y.{.~./ ^ U ^ R ~ < - PXPXIXPXPXIXPXIXIX4 1 O d x ",
"+ M V 7 z E.J.W.w.V.M.V.V.:XV.e.(.9.G./.o.J K.+.O.o.J G *.*.=.<.-.,.8.:.Y.!.!.Q.Q.Q.^ ^ I ~ E { S , BX#XBXLXLXVX@X#XoXo - O r ; ",
"# < X.< j I.3.M.<XF.-XD.M.:X>XF.-XB.+./.+.N  ...L.+.o.J G *.=.=.>.>.,.$.E.Q.Q.~.E.Q.U U I R v H m A BX#X$XAXAXLX#X#X&X; - X z < ",
": * y g C H.3.V.C.b.D.>X>XM.b.c.V.5.G. XK.+.(.J  .+.+.+.o.J ;.G -.;./.I.Q.Q.Q.U.~.Q.R R I R R c j N NX#X$XVXmXVX#XoXoXj # ; & 1 ",
"N o 0 I C L.5.B.:XM.M.:XV.M.D.:X:XV.J.o.O.J J F J o.+.+.#.H.Y.P.Y.T.!.!.~.!.!.U.W.W.! ! U Y I a r 1 4 : O 4 O , 4 o M 4 o * # ; ",
", N C z 8 ^.Y.t.M.x.e.D.M.B.g.M.B.q.U.I.I. . .o.O.o.o.+.#.H.I.R.R.Q.I.Q.U.U.Q.W.U.Q.R ^ R Y I y C S j z Z N M C l l # Z - X 5 m ",
". j t k k P.R.H.H.y.B.M.C.e.y.).I.Y.T.+./.9.o.$.XXG.o.+.+.L.K.T.I.W.R.R.I.Q.Q.!.E.E.W Y a I p l D + a.;X;XPXPXUXOXOXa.  < ; 5 $ ",
"  # r j C #.I.E.H.J.U././.).U.I.U.U.J.@.J o.o. .o.O.o.$.@. .H.P.^.E.E.E.E.I.E.E.Y.&.%.` I a I Y n $ a.p.<X,XUX-Xn.n.s.N N : * < ",
"% < r 6 w b C S m H H H H H [ H A ' ' v c c v x t m K 9.9.J H c ~ R Y I I I T W %.%.` P P u u l < q i.p.n.:XAX-Xq.i.u.o O < 7 $ ",
"o & k 7 6 p t x m v v H H { [ [ c R I I I p t k 3 o.o.G.H.K { Q R R I I U U U U I P P P P u u u M V p.s.;X;XBX;Xs.s.u., @ N O B ",
". + k j k A b m m m R v E ~ ~ [ [ A n n d k B S (.G. . .X.< n ~ ~ ! ! ! ` ^ T ` U U T Y P I u y B > #   , 5 : = N N   : 3 > $ , ",
"X + k j j Z k b x p R I R R R E H c p h i q b D @.O.B d i y c c v v R R R I Y U W I Y Y l f p p C N b > S B N 2 V C t N < : q & ",
"+ @ j 8 6 w q x k n l ! ! ! ! n R h a P a y 8 k e 8 x x c v E { H ~ ~ ~ ! ! ! ^ ! ! ! Y g d h c 2 m N.l.>XF.:X>XN.N.j.2 1 > M : ",
": X r 7 y y 7 p w i p p p h h I I Y Y l u y 0 j u u z k b x m v { { Q R R R W R ! ! ! c Y g c c C < C.7.j.N.y.m.j.j.6.5 $ ; i # ",
"o   e 0 0 j , C s r l d n c Y I d c n p w p i r x w f u u I c v } / R ~ ! ^ ! ! R W I I a p s r V O N.3.V.A.V.C.x.2.5.j M N O < ",
". @ 8 9 8 7 7 k y i f g I I f f I i i i w l V z t t t t r c n n ~ [ [ ~ ~ A ' c ^ Y R f g a h i = 2 n.| c.A.A.d.n.2.{ 2 ;   % % ",
". + 8 e 7 5 q r w i l g f f f P Y i i s r r r & e e e e e e k A b n b b k b ' s R ! g g h i s s X.: B 1 O 3 % < x = 3 - <   - = ",
". @ 8 8 6 7 8 r w i f f f I I f I y i d r r - . o o o o o o o % M < , < > M k # Y I I g s i s i k % X O o o o N O o > M <   = = ",
". @ & w 7 6 8 r w s d g f l f I u y u u r t e   S S S D S D S D S S Z D S V Z # Y g f f s i i i k t = . ' S S C ..: : N < X e @ ",
". @ q 8 6 5 7 8 w r d g f f f Y g u y y r r ;   k M M Z Z Z Z M S S Z D D Z A $ g f f i s y w 9 N < > : %.&.&.&.%.  . : , % < @ ",
"  @ $ 7 6 5 6 e w r s s s s f u g d s 9 7 k <   - - % % - - & < , - X ; > : < # s f s y y 9 9 9 Z < - X O   X X e   @ @ -   < % ",
". @ $ 8 6 5 6 8 w r s r i i u s g s y 7 5 k <   o         o o o % % . X o o k ; u s y 9 y 9 8 7 : : o < o o . - X . - * < . @ + ",
"  # & 8 5 5 6 q t w r i 9 9 y u t q 7 7 0 l k   : o o o o : : .   .   o o : < % y u s 9 9 9 9 7 e . $ +   - < X : : > o ; X @ + ",
"  X @ q $ q 6 $ 6 7 w r r r r r w i t t r k & X o                       . . o % y 9 9 9 9 7 7 7 q w 7 5 5 7 6 6 8 5 5 8 8 & @ @ ",
"  X = $ q 6 $ 6 5 6 6 q 7 w r w 7 w r r t e ; @ - - - - % % & - - - ; < < & & < y s y 9 9 w w 7 q 6 6 6 6 6 6 = = = $ $ $ # # X ",
"  X @ q $ 6 $ $ 6 5 q 6 9 7 8 7 5 w r 8 e 8 & $ - e 8 e k e k k k b l k k k k 9 9 9 9 r 7 w w q q 7 6 6 6 q q x = = $ $ $ @ + . ",
"  @ @ $ $ $ $ $ $ 6 6 q q q 8 q 7 9 9 7 6 $ e e 7 0 7 8 e r r t s s k s s s s y r 7 7 7 7 6 6 q 6 8 6 q q q = x ; = $ $ # # + . ",
"  X @ $ # $ $ $ 8 $ 8 8 8 e 8 q 7 8 9 8 7 $ 8 r 5 5 5 5 6 7 w w 7 w 7 7 9 y y y 9 r 8 q q q q q 6 6 $ q q = ; ; = = @ $ @ @ @ X ",
"X X @ @ $ $ $ $ 8 e $ 8 $ e e e 8 7 8 8 8 8 5 8 5 7 7 7 6 7 q w i w w 7 7 7 7 9 e r r e r e e e $ $ 8 $ $ $ = * = = @ @ @ @ * X ",
"o X @ @ @ # # $ = 6 $ = $ q 8 q q $ $ 8 8 $ $ $ = 6 6 6 8 6 8 8 t w w 7 q 6 5 7 e e e q q = = = = $ $ $ $ # @ @ = = $ @ = * * O ",
"  X @ # + # $ $ = $ $ $ $ $ $ q = $ $ $ = $ # # = = @ $ $ $ 5 6 $ = e q q 8 8 5 5 $ $ $ $ $ $ @ $ $ $ 5 $ # + # = @ @ $ * * O 1 "
};
