/* XPM */
static char *_a6ow_lornc[] = {
/* columns rows colors chars-per-pixel */
"64 64 252 2 ",
"   c #030201",
".  c #0C0906",
"X  c #130E0A",
"o  c #140C07",
"O  c #15110C",
"+  c #1B130D",
"@  c #191813",
"#  c #21160E",
"$  c #28190F",
"%  c #231B14",
"&  c #2B1D13",
"*  c #221F18",
"=  c #321D10",
"-  c #2D2116",
";  c #25221C",
":  c #2C241B",
">  c #2A251B",
",  c #322215",
"<  c #34251A",
"1  c #3A2719",
"2  c #34291E",
"3  c #3C2A1D",
"4  c #3A2416",
"5  c #2B2A22",
"6  c #342D23",
"7  c #3A2D21",
"8  c #3D3225",
"9  c #383329",
"0  c #3B3934",
"q  c #1D221B",
"w  c #432D1D",
"e  c #472C1B",
"r  c #48311F",
"t  c #52311D",
"y  c #422F21",
"u  c #443324",
"i  c #4C3423",
"p  c #4D3927",
"a  c #43362A",
"s  c #4B3B2B",
"d  c #45392A",
"f  c #523622",
"g  c #533A26",
"h  c #533D2A",
"j  c #5A3E29",
"k  c #5B3B25",
"l  c #4B3E31",
"z  c #453D32",
"x  c #523E31",
"c  c #55412D",
"v  c #5C422D",
"b  c #4D4233",
"n  c #4A4438",
"m  c #534332",
"M  c #5B4633",
"N  c #5C4934",
"B  c #5C4C3B",
"V  c #54493A",
"C  c #564A38",
"Z  c #64442C",
"A  c #6A482D",
"S  c #70492F",
"D  c #644C35",
"F  c #6B4C33",
"G  c #624D39",
"H  c #664934",
"J  c #724E34",
"K  c #774E33",
"L  c #65523D",
"P  c #6C533C",
"I  c #6C5439",
"U  c #73543B",
"Y  c #7A553A",
"T  c #74593E",
"R  c #7C5B3D",
"E  c #785234",
"W  c #584E41",
"Q  c #5D5444",
"!  c #4B4B44",
"~  c #645442",
"^  c #6B5642",
"/  c #6C5A45",
"(  c #6D5D4B",
")  c #655A4B",
"_  c #735B43",
"`  c #7B5D42",
"'  c #755E49",
"]  c #735943",
"[  c #6B5D53",
"{  c #7D6245",
"}  c #74624C",
"|  c #7C644C",
" . c #7A6549",
".. c #6D6253",
"X. c #7A6652",
"o. c #7C6A54",
"O. c #7C6D5B",
"+. c #746656",
"@. c #776854",
"#. c #7C7468",
"$. c #716B63",
"%. c #835C3D",
"&. c #8C5D3C",
"*. c #835638",
"=. c #915836",
"-. c #97633E",
";. c #89603D",
":. c #A6663A",
">. c #865E41",
",. c #846244",
"<. c #8C6445",
"1. c #82654A",
"2. c #83694D",
"3. c #8B6B4C",
"4. c #8B6749",
"5. c #926442",
"6. c #946946",
"7. c #936C4B",
"8. c #9B6D4B",
"9. c #996744",
"0. c #9B724D",
"q. c #95714D",
"w. c #846C53",
"e. c #8B6D52",
"r. c #836E59",
"t. c #936F51",
"y. c #8C7255",
"u. c #8B745B",
"i. c #85715A",
"p. c #937454",
"a. c #9B7553",
"s. c #93755A",
"d. c #947A5C",
"f. c #9C7B5B",
"g. c #9B7955",
"h. c #8C704F",
"j. c #A36D45",
"k. c #A3734C",
"l. c #AC754B",
"z. c #A9754A",
"x. c #B37B4D",
"c. c #B87B4A",
"v. c #A47B54",
"b. c #AB7C54",
"n. c #A37D5B",
"m. c #AA7F59",
"M. c #A47652",
"N. c #B37E52",
"B. c #8C7A64",
"V. c #877867",
"C. c #937C62",
"Z. c #957D65",
"A. c #887D70",
"S. c #9E805C",
"D. c #B9824E",
"F. c #AC8155",
"G. c #A4825D",
"H. c #AB835B",
"J. c #AE895F",
"K. c #B38355",
"L. c #BA8454",
"P. c #BD8A56",
"I. c #B2855B",
"U. c #B68A5D",
"Y. c #BB8B5C",
"T. c #B8865A",
"R. c #BC915E",
"E. c #9C8265",
"W. c #99846C",
"Q. c #998976",
"!. c #918778",
"~. c #A48463",
"^. c #AB8462",
"/. c #AD8A64",
"(. c #A38669",
"). c #A48A6C",
"_. c #AC8C6B",
"`. c #A68965",
"'. c #B38B63",
"]. c #BA8E63",
"[. c #B38E69",
"{. c #B48A65",
"}. c #AD916D",
"|. c #B59166",
" X c #BC9264",
".X c #B4926C",
"XX c #BB946A",
"oX c #BD996C",
"OX c #A48D73",
"+X c #A78F75",
"@X c #AC9274",
"#X c #A8937A",
"$X c #B39473",
"%X c #BD9B73",
"&X c #BC9E7A",
"*X c #B69876",
"=X c #BFA07B",
"-X c #C28D5A",
";X c #C28954",
":X c #C4925D",
">X c #C9955D",
",X c #C28548",
"<X c #C39463",
"1X c #C59A65",
"2X c #C39B6C",
"3X c #CB9D6B",
"4X c #C99965",
"5X c #D19E68",
"6X c #C29D73",
"7X c #C79E74",
"8X c #C48E61",
"9X c #CCA26C",
"0X c #C8A06C",
"qX c #D5A56E",
"wX c #C4A375",
"eX c #CBA474",
"rX c #C4A47B",
"tX c #CBA67B",
"yX c #CCAA7C",
"uX c #C9A978",
"iX c #D3A573",
"pX c #D3AD7C",
"aX c #D5A975",
"sX c #D7B17C",
"dX c #E2B479",
"fX c #9D9588",
"gX c #958D81",
"hX c #A79886",
"jX c #B59D81",
"kX c #A49E94",
"lX c #B9A388",
"zX c #B5A896",
"xX c #C2A582",
"cX c #CBAC83",
"vX c #C5AB87",
"bX c #D2AE83",
"nX c #CEB28A",
"mX c #D4B284",
"MX c #D4B48B",
"NX c #DCBB8B",
"BX c #DAB585",
"VX c #C9B498",
"CX c #D6BB96",
"ZX c #C3AD91",
"AX c #E2BC88",
"SX c #CCBCA5",
"DX c #DCC29C",
"FX c #E1C59A",
"GX c #D7C4A8",
"HX c #D8CBB6",
"JX c #E5D0B0",
"KX c #F8EDD4",
/* pixels */
"M m M ^ d x _ ( P } G ] ' X._ ' o.O.o.V.!.Q.!.+.V.} } ( V.O...+.O.O.+.+.+.$.O.O.W.!.!.gXO.$.!.W.#.gXfX#XQ.A.A.#.+.#.+.#.gX#.fXkX",
"R M B ^ h b C ' ^ } ^ ^ F _ 2.Z  .o. .^ O.#X#Xi.u.} / w.o.o.i.O.+.$.#.o.V ) O.V.Q.Q.#XQ.OXA.!.o.#.Q.#X!.kXgX#.!.zXhX#XkXkXQ.Q.A.",
"5 u j F 7._ m ( N G o.B W b ' Q n z n ~ Q V n 6 6 6 ; ; 5 0 5 5 0 a 9 > 6 @ @ @ + q 5 q q 5 5 5 9 9 6 9 5 9 > 5 9 n W.B.B.| ( | ",
"s J F a.g.T } L u.2.C.w.1.X.} ' _ / r.i.w. .C L i.} b V / P P _ h.2.` ,.f.h.I o.y.| ~ G ~ V b V ) L b n ) B ~ B b W A.@.W.Z.../ ",
"x >.9.$X@XJ y.*X}.&XlX*X$X.X~._._.G.g.G.g.7.Y T I p.>.` f.#XU m.f.p.3.3.`.u.2.f.u.`.f.p.s.y.1.p.S.y.F ` s.' e.B ~ O.V.i.A.W.B.u.",
"G Y >.$X$X3.y.&XcXcXwXmXtX6XcXmXBXuXP.Y.v.v.M.0.7.v.~.G.VX+X%.M.M.<.g.f._.rX.X/.$X=X{.`.~..X_.n.q.S.a.0.>.,.E._ ' W W l a } e.d.",
"' *.8.XX%X[.e._..X%X|.H.[.[.9.k.|. Xb.F.K.K.F.k.9.b.H.).lXXX0.p.(.$XrX%XwX6X6XnX=X%XMXGXCXxX%X*X|.|.U.|.b.M.F.0.F h ' r.G n._.f.",
"2.>.N.jXxXv.r.(.&X].<X{.2X{.b.z.'.Y.v.v.2XuX1XR.U.yXMXOXzX.Xu.@XVXjXZX$X).$XyXeXY.oX:X6X6X.X*X.XG. XH.M.x.j.b.H.Z ] e.C.J a.H.s.",
"f.&.K.g.*XH./ d.d.{ ` y.r._ i.E.o.y. .i.OXy.{ 2.1.r.B.) W ~ W r.W % b } } +.d.w.U _ ] 2.w.C.E.i.^ w.` F U N / w.w.W s.a./..X{.t.",
"g.6.Y.7.|.g.v o.J.y./ *   . X q @ X X . % . O X         X X . . O - * > O + X * @ @ X . . @ + % 5 @ @   2 h 7 l ] x 1.{.[.&X2X^.",
"a.5.L. .oXf.7.G.p.].v.B 8 $ L B p b w 3 D Z F 3 w + , < p h - < i I  .} b y l D G B ~ 7 > I D o.V.B N h I M m >.>.l >.s.a.].xXoX",
">.-.U.2.*Xg.y.K.R R R } u.M c / c M p 3 _ F F p r # , 1 h M 7 f g U | e.p u s F p.M L m - R D V.hXX.w.U M h 2.>.' P e.[.6X2X].M.",
"3.9.<Xs.rX`.W.cXa.j.'.a.;.X.} v D t c 2 ` F S r t = % $ i g p w r I P ` d j u !.zXG v m ! D v } Q.P ,.N P <.7.` a.2.f.].].2X:.j.",
"d.k.N.n.&XF.u.FXtXK.b.T F M +.( L t p 1 { R S 1 g u & , i j h 7 r D L } h M 3 _ C._ N 0 0 g Z G } I p L M.5.>.7.a.' [.iXY.l.c.7.",
"H.j. Xa.oXwX2 O.FXY. XI.b.&.D V V c r 3 D I S f f w = & i j j i r T N ( D v a P I c c 9 + f v R <.D L 9.t.>.Y t.x l 6XCXJX3XT.S ",
"n.j.Y.G.oXyX6   ( NXoXF.U.*.k.T n L i , D A j i e , < , i v j w f ] / N m H 2 v T B h 8 X f R T D ` '.k.>.] *.p   l n.l.vX2X@XN ",
"p.j.J.&XcXoX<     B  XU.F.H.W.I.4./ N e F Z v f e e & $ i R j g r I M M c g < S { L C 8 - R T v Y K.3.D P s.x . O } M.:.:.:.rX&X",
"n.z.0X=XwXXX2 . : X w M.|.Y.K.(.{ 5.Z ` E k S v 4 = # # r Z v i i I b N v g s 3.{ P d D ,.,.` U F.H.1.P v.x @ 2 6 P oX4X;XqXx.f.",
"/.j.|.uX1XwX2   2 d % % .X1Xl.9X`.6.v.8.F.Y k g r w X + i v Z w i T B B D i s d.1./ R ` R T v.b.n.f.7.a.7 . 8 ^ s ^ pX>X4X3XU.6.",
"5.Y.2X=X=X2X8   2 s u o 5 uXsXY.;X{.9.0.z.v.F f w r + % i Z H f w { | } Z w 8 h.{ 2.I c T 0.oXf.p./.7.%   < _ ~ ^ M 2X4X9X3X6.*.",
"8.K.R.=X1X X7   + i w & o ; rXBXP.-Xm.k.0.7.F.R e f + - h A F f g P u.D c < s 2.a.L b _ m.XX_.'.a.7.3   $ c B G a _ -X;X-XF.{ U ",
"8.J.U.uX X0X8 . , v N < : $ > .XdXY.2X2XP.q.<.0.J r + - v F S j 3 T P v p 3 u Y c v 3.q.XXXXM.U.f.6 + + w D ' G 3 1.tX4X9X=X) * ",
"F.z.|.nXrX0X6   < c d w + e M * `.sXP.T. X9Xa.v.Y.<.. % j Y F k u d.^ 2.D c I I T g.0.U.[.{.m.3.: % w + Z v T M m 1._.9X-XZ.s.R ",
"F.K.%XDXcX0X8   % p - w - M 2.P > %.sXU.K.XX9XM.>.<Xy.# w J E r g  ._ w.h.,.D T J.|.1XI.{.I.T * 9 ^ g + r v ` J ] F ^.aX:XbX*X`.",
"4.1XCXDXnXXXu   # 7 , 1 2 h y.o.P + { dXD.x.z. XM.;.P.p.7 k E j i D C } p.c 3.S.{.U.'.oX{.D # 8 B.1.f % j g k g G 2.2X4XpXCX%X&X",
"q.uXVXCXCXK.7   # x j 1 # g w.B p.J.3 D qXD.Y.H.eX1X9.&.a.M v j w T T _ c I 1.J.].m.].].m . 3 2.E.2.Z $ h 1 H g  .} tX;X9XCXeX].",
"8.rXGXJXnXU.7   < M g g : d P B.=XF.z.< c 9X9X:XU.6X4Xp.8.b.H f 3 ,.P v 1.7.J.Y.b.2XI.p   < _ 1.u.{ i , v N j Z } P %XiX9XMX6X%X",
"a.uXZXSXyX X2 O , m p i , a P u.oX;.-.E = p 1XD.c.F.F.Y./.D.Y.v g T c T 3.F.|.F.].M.a X . f _ r.).I i & D x u i s c eX3XmXuX2X%X",
"0.GXVX$XuX2X, @ 9 v c h 2 , X.Z. .R E f Z 4 3 |.2X;Xv.F.U.^.L.v p v { 3.F.F.F.9X/.7 5 1 * D ^ _ V.2.v + F t i i x g bX9XeXBXeX|.",
"Y.zXZXxXwXoX2   d B j 7 % d D B S.T %.v f ;.= $ }.'.b.b.8.p.c p M T ,.2X|.v.R.v.6 @ ^ ^ > P Y _ A.E.' 3 U U Z M ^ | BXBXBXD.c.H.",
"M.jX#X%XoXU.7   2 ^ Q 8 % N X.o._ D Z 8 v v A # . ( 7.-.7.c d N T g.1Xa.F.3X<.2 * B (.] 5 D q.B.OXE.2.u U P H j m / qXxXzX[.K 7.",
"9.cX&X.X0XeX3 . 2 m ) d , N G _  .D F c t v v $ # O b R u u c T g.0XU.F.<Xq.* : +.#XC. .6 L y.d.o.d.` $ P | ^ v G e.aXtXrXMXa.{ ",
"k.H.lXxXwXeXd 5 & 7 M a 9 W X.} | ,.U u c { A $ - $ . p i D ,.*XuXuX%X<X{ o * ( Q.Q.@X,.9 L ` X.B.d.r $ %.2.o.h j +.iX-X3XNXVXe.",
"I.wXm.xXcXrXl O m G s l 0 W u.}  .3.%.` I E T 8 , r c c D I .XeX X'.1X` I D 8 o.B.E.E.w.9 c P ` d.~.i w <.e.p , I O.sX9X9XpXVXVX",
"b.|.*XmXuXrX7   m O.N 7 9 ^ r.i.` t.3.U U 4.;.t v -.D D  .oXuX X9XoXT m 3.z.4.o.r.w.E.} u h _ ` e.3.3 w <.U c w G Q pX2XmXpX.XjX",
"J. XZXxXwXtX% O g n ^ h z / o.N 3.p.T g v p.h.R ;.N D _ oXyXwXuXU.H q.Y.b.|.4XG.( w.E.| h i 2.w.1.P 3 , A D B E.p [ BXpXuXsX*X@X",
"b.I.rXnX XwX2 X ~ W.[ M ( N ` ~.lX3.` M N 3.g.;.I c S.uXeXXXyXoXF 0.P. X3X9X|. X[.} u.f.u h ,.{ p._ r , ,.F v o.I #.NXpXBXpXoX$X",
"J.%XxXnXoXcX3 X m } W.O.n { VX}.y.`.g.m N R Z c C S.FX9XwX XXX3 6 H.F.<XcX0X:XF.1XU.u._ 6 j >.{ 3._ < , H F Z o.u.@.qXmXpXiXcX$X",
"H.%X&XrXuXcX, X 8 B O.#.V.W.lX'.'.cX}.N  .b c T |.uXwX%X4X6X3 o + : q.k.Y.uX X1XK.].wX` % h U I i.F 8 3 Y T Y { i.( FXFXqXeXwX~.",
"v.XX&XXXXXMX< X l V.~ V ( ).`.}.g.E.&X| I c I |.sXoX X9XH.1 + b 8 & - { H.1X4XuX9X<XNXsXs 3 F R u.D - 1 F v | Y _ n zXBXyX4XF.~.",
"M./.6X&X2X6X2 . 2 Q u.E...B.}.E.C.G.yX .q.,.oXuXoXoXqXq.+ + v ` a +...6 ] v.:XuX9X:XP.z.4X7.R d.p.N , 3 F A _ ` I D P.cXVX9XU.H.",
"0./._.xXtXrX< O 7 C i.} } / NX}.E.|.8 6 { P.FXoX4XsXy.  @ v F F < M _.X.- D a.P.4X1XP.K.L.aX7.A.d.c + 3 &.H { <.T / ;XmXCXqXoX`.",
"I.|.}.xX6X*X< & B O. .T ) o.CXVX).g +  . X0XoXR.<X`   . c %.H F 8 F 3.g.] @ s >.K.>X1XsXoXL.l..XZ.r & f J ` ` 1.P _ c.pXmXqX6Xf.",
"G.oXlXxX2X6X3 * C ..C L b / GX XA 8 R R.0.oXK.P.F + X O v ,.;.E i Z d.u.2.P @ a E c.1XmXyX0X:.&.1Xh - F J h H m P F K. XtXmX6XZ.",
"6.^.SX&X%XwXw : L L ) L b B h.A D  .mXR.F.z.R.T & 3 # & j ;.*.I d j f.| _ N 9 6 2 ,.2X<XyX3X:X;.6.N.< i J G _ v h k 8. XeX3X Xf.",
"v. Xn.^.b.tXu + b / o.V  .;.p D h. XuX%XD.0.L > w 7.i 4 v R *.K 3 j ~.w.d ..V.) : d a.Y.P.0X:XqXj.j.8.h H M I v f h 5.L. X3XP..X",
"H.XXZX6XU.6X< % c i.o.T -.N b S.uXoX0XY.8.u >  .%.Z B 8 P q.Y K e P $XW.Q hXkXo.,.9 9 3.l.K.sX:XK.K.l.z._ r.2.e.H j ~.VXeX>X]._.",
"H.{.OX.X2X6X1 * N o.S.-.E g p.uXoXeXaX0.: - P G.Z k s ! L E S S w U jX#XL ) +.B.7.*X) 6 e.c.U.L.j.2Xl.j.b.Z.+Xp.U F H.rX6X-XXX~.",
"m.H.n..XoXwX< - Q | *.Y D F.uXwXoX:Xv.6 ; v ~.G.A Y d 9 ( ,.Y E u %.*Xi.] D ^ C.(.@X*XN : y.x.x.D.-.qXH.z.P.+.P J I b.SXBX4X6X[.",
"b.XXOXoX=XuX< * { E v r h.FX9XK.:X4.2 - D | d.f.J J 1 u ^ u.a.&.u E jX#X] N ( s.~.@X@X`.7 O 3.l.R.x.K.mXU.=.D._ B ` 5.a.<X5XrX/.",
"m.6Xm.[.=XwX8 c A h u S.uXuXR.P.q.2 - L y.s.E._.R A = u Q | &.;.i %.}.Z.N G V E.*XOX}.~.U l 5 ^ l.:XU.R.1XoX=.:.d.M 6.k.D.eX6X^.",
"{.m.vX%XcX|.v t p v a.pXK.R.P.{ 9 8 P | { /.p.<.7.s.3 9 B ;.*.*.w p.).2.^ ] b E.=X+X@X~.c ~ ' 5 h -.<X2XL.;X:.=.Y.L >.I.4X6X6X/.",
"{.m.xX%XXX_.v p R I.T.U.0X-.I > d 4.^.{ J a.4.e.] ' < : H <.-.K g OX&Xs.` m ) E.).*X=XW.c v 3.L 5 9 -.x.T.j.,XL.l.T W XXpXCXvX*X",
"{.oXCXrXXXXXv F I.P. XP.x.c + C ).v.0./ ' n.3.w.U >.< 6 f &.K Z D !.@XW.} _ o.u.E.+X#Xy.N J ,.w.B.% 8 ;.c.-Xc.P.8X` W M.3XvX6XlX",
"H.|.6X'.rXrX4.F.F.M.;.-.> @ u G.yXg.{.} P >.>.7.Y 7.u a Z <.K %.v `.*XOXQ._ b B.@XS.).u.8 j Y ~ W.m . ; 9.z.K.x.:X_ P k.H._.Z.O.",
".X|.vX.X'.$XL C / P / P b ~ y.u.B.p._.d.^ l ^ P ] _ b m B L v M l m ` } _ N ~ _ / _ L { i ` ,.] _ 7.8.g.M.<.U ` J P v.m.xXHX@XG ",
"VX]._.n.4Xn.' ) 2.p.G.y._ p.| G ] 7.<.` J h J J ] J Z >.>.*.K *.-.8.j.k.:.x.-.x.l.:.N.iX{.AXaX>Xc.;X;XaXqX-XN.j.9.>.^.ZXVX#X$XOX",
"t.H.F.M.[.n.C.n.}.B.*XjX.X[.m.H.{.6.>.m.b.-.>.5.M.8XN.N.7XxX3X7XyXaXbXbX3X4X8X4X5X8XiX-XbXKXJXBXBXbXiXBXmX5XiXiX5Xn.xXGXxX^.vX_.",
"n.M.6X[.{.n.s.n.J.{.2XI.I.XX<Xk.8.n.*X8X6X8X{.8X8X7X6X7X8X$X7XxXtXMXMXbXpXeX4X4XCX7X5X3XtX7XiXMXbXiXiXBXcXpXbXtX8X<.{..Xl.[..X3.",
"].2XMXcXH.f.a.m. XB.MXnXMXcX2X].7XcXNXMXbXMXCXbXbXnXBXMX7XxX7XnXJXFXNXNXCXMXCXJXJXAXCXMXNXbXtXAXNXqX5XCXBX8X4XiXsX6.a.>.M.cXm.^ ",
"4.E.E.3.6.Z.XX6X{.7XbXcX5XiXL.L.qX8X8XqX>X5XaXqX7X7XiX5X5X8X8XaXbXVXbXMXNXFXJXKXAXBXCXiX4X3XiXiXqX8XBXaXAXqXL.N.-X0.` m.>.OX.X7 ",
"4.E.a.3.b.C.[.6XXXbXMX6X*X{.].3XM.j.M.M.m.bXm.m.m.m.M.m.M.m.m.8.m.OXw.m.t.e.C.OXm.+Xm.t.t.M.s.e.s.2Xn.n.OX(.n.>.>.P Y Y ` n.~.N ",
"V.u.Z.s.t.s.Z.#XB.Z.Q.Q.#XOXOX#X#XZ.Z.Z.Z.OXZ.Z.u.r.u.V.Z.Z.B.V.A.lXhXfXZ.A.Z.Z.gXhX!.OXhXA.O.] X.V.A.A.O.+.~ W ) [ V.[ V.A.gXhX",
"C.s.E.+XZ.Z.jXjXjXjXjXhXn.n.+X(.Z.#XjXzX+X#XhX#Xn.$XhXfX*XOX+X#X$XZXSXvX#XjXzXSXZXxXjXVXSXSXxXjXzXjXjXZXHXjXOXQ.zXHXzXhXSXSXSXSX"
};
