/* XPM */
static char *iyt1m_sdobh[] = {
/* columns rows colors chars-per-pixel */
"64 64 225 2 ",
"   c #0B0605",
".  c #0D0A09",
"X  c #080605",
"o  c #130E0C",
"O  c #150D0A",
"+  c #1A110D",
"@  c #15110E",
"#  c #0C0E13",
"$  c #070C15",
"%  c #100F10",
"&  c #0D1016",
"*  c #0D1219",
"=  c #141314",
"-  c #1B1513",
";  c #1E1916",
":  c #14161B",
">  c #19171B",
",  c #16181E",
"<  c #1B1A1D",
"1  c #211713",
"2  c #231915",
"3  c #2A1D16",
"4  c #241D1A",
"5  c #291F1B",
"6  c #27201B",
"7  c #2C211D",
"8  c #32241E",
"9  c #37281F",
"0  c #151920",
"q  c #1D1C21",
"w  c #221F22",
"e  c #1E2027",
"r  c #232124",
"t  c #2D2421",
"y  c #2B2729",
"u  c #2E292B",
"i  c #252529",
"p  c #322622",
"a  c #352925",
"s  c #3A2B25",
"d  c #352C2A",
"f  c #3A2D29",
"g  c #3E312C",
"h  c #3E3227",
"j  c #322F32",
"k  c #3B3433",
"l  c #3E3939",
"z  c #383335",
"x  c #412D25",
"c  c #412F28",
"v  c #443127",
"b  c #43332D",
"n  c #4B352D",
"m  c #4C392E",
"M  c #483325",
"N  c #443631",
"B  c #493730",
"V  c #463933",
"C  c #4C3B34",
"Z  c #433C3B",
"A  c #4C3E39",
"S  c #523E35",
"D  c #593E36",
"F  c #513F38",
"G  c #513A2E",
"H  c #4E413B",
"J  c #45403C",
"K  c #544036",
"L  c #5B4237",
"P  c #54433A",
"I  c #5B453C",
"U  c #5D483E",
"Y  c #5B412F",
"T  c #62463C",
"R  c #62493E",
"E  c #694A3E",
"W  c #644634",
"Q  c #73563F",
"!  c #69513D",
"~  c #413E41",
"^  c #4C4340",
"/  c #534641",
"(  c #564942",
")  c #5C4B42",
"_  c #5F5047",
"`  c #5D524A",
"'  c #5C5250",
"]  c #644C41",
"[  c #6A4E42",
"{  c #704F43",
"}  c #655145",
"|  c #6C5245",
" . c #65544A",
".. c #6B5549",
"X. c #6C594D",
"o. c #67594C",
"O. c #725346",
"+. c #765944",
"@. c #745649",
"#. c #78574A",
"$. c #755A4B",
"%. c #7B5B4D",
"&. c #765D51",
"*. c #7F604F",
"=. c #7D6152",
"-. c #7A6458",
";. c #825E4E",
":. c #805F43",
">. c #815E50",
",. c #82624E",
"<. c #896447",
"1. c #9A714E",
"2. c #836353",
"3. c #8A6755",
"4. c #876855",
"5. c #8A6956",
"6. c #856A5A",
"7. c #8C6C5A",
"8. c #926E5B",
"9. c #946E58",
"0. c #8C705D",
"q. c #93715E",
"w. c #99735D",
"e. c #987355",
"r. c #946A4F",
"t. c #A47C5E",
"y. c #A97D5B",
"u. c #A37854",
"i. c #8D7261",
"p. c #88736A",
"a. c #947462",
"s. c #997661",
"d. c #9C7A64",
"f. c #997D6A",
"g. c #957D71",
"h. c #8E7974",
"j. c #A47D61",
"k. c #AC815C",
"l. c #BA8A5C",
"z. c #B6865B",
"x. c #9C806D",
"c. c #9A8479",
"v. c #AC8464",
"b. c #A4826B",
"n. c #A9856D",
"m. c #A68366",
"M. c #B48965",
"N. c #BC8D62",
"B. c #B48C6C",
"V. c #B68A68",
"C. c #BC926D",
"Z. c #A58776",
"A. c #AB8A73",
"S. c #AC8E7B",
"D. c #A48877",
"F. c #B38D71",
"G. c #B88F70",
"H. c #B59175",
"J. c #BB9373",
"K. c #B4947D",
"L. c #BB967B",
"P. c #BD997D",
"I. c #AE927E",
"U. c #C08F5F",
"Y. c #C29264",
"T. c #C3966D",
"R. c #CD9C6B",
"E. c #C49A74",
"W. c #CA9D73",
"Q. c #C49C7C",
"!. c #C99E79",
"~. c #C09570",
"^. c #C08E61",
"/. c #CCA27D",
"(. c #CFA172",
"). c #D1A57C",
"_. c #D5A677",
"`. c #E1AE7A",
"'. c #AE9589",
"]. c #B39582",
"[. c #B59885",
"{. c #BC9B84",
"}. c #B59C8D",
"|. c #BB9F8D",
" X c #A98F80",
".X c #BCA292",
"XX c #B8A59A",
"oX c #C49F80",
"OX c #C5A185",
"+X c #CCA583",
"@X c #C3A38B",
"#X c #C9A68A",
"$X c #CCA98B",
"%X c #CFA886",
"&X c #D8AE84",
"*X c #D3AD8B",
"=X c #D4AA84",
"-X c #D8B18B",
";X c #C2A592",
":X c #CCAC93",
">X c #C4AB9B",
",X c #C9AE9C",
"<X c #C5A994",
"1X c #D1AD91",
"2X c #CDB29E",
"3X c #D4B294",
"4X c #DBB594",
"5X c #D3B49B",
"6X c #D9B89C",
"7X c #E1BC9A",
"8X c #C4ACA0",
"9X c #CCB3A2",
"0X c #CAB6AA",
"qX c #DBBCA2",
"wX c #D3BBA9",
"eX c #D5BAA6",
"rX c #E8C39F",
"tX c #DBC1AC",
"yX c #DAC0AA",
"uX c #DDC6B4",
"iX c #E2C4A9",
"pX c #E4C3A3",
"aX c #E4CBB4",
"sX c #E9CFB6",
"dX c #F9D6AF",
/* pixels */
"qXa.W N.M...v.5XS.[ r.A.q.K.,XM.m./.OXV.F.J.J.C.e.4.Q h a d 4 - - ; p A | +.m.+X/.C.F.v.T.T.J./.*.E 5X9X X6.A.C.,XwX<XwXaXwXq.7X",
"qXn..XM.K.Z.H.].'.,.w.j.{.G.).P.b.J.x.V.).9.Y 6 ; o . - o O - - - - + 1 3 O 1 f K k.Q.*XP.!.H.M.6.D.D.c.j.XX'.c.>X0XeXXXwXtX7.iX",
"$Xy.qXn.u.j.P.<X].#.e.b.c.Q.Q.Z.$X5XF.=.h o .   + 1 6 7 4 ; 2 ; 2 5 5 9 v 8 8 1   + m q./.7X7X3X5X].c.x.E.S.A.B.{.;X*X6X9XwXI.&X",
"S.*X#XK.A.a.b.f.g.-.7.&.h.0.p.b.{.x.b O . ; 6 2 7 6 7 a 5 ; 5 4 4 8 8 x n x n x 7 8 7   s c.dX_.$XeX,X.XJ.[.[.OX|.|.6X<X;X X}.I.",
"XXS.A.L.Z.c.h.a.].'. Xc.h.p.@XG.g X . 7 4 7 a 7 9 9 8 a p 4 7 6 5 s p s G n n n s s G 8 o X  .n.yXXX.XwXuXuX,X5XsX}.'.S.;X<X>X>X",
"}.A.@X:X{.L.oX<XK.v.|.[.[.W.J.p X - 6 8 7 h h 7 s n b b p 7 p 7 p x s x D G D W v S L v 7 ; O + -.yXXX,XaXXXuX#X>XuXwXeXtXsXaX5X",
">X[.1XoXG.oXL.B.F.C.B.F.7X3.  o 6 4 7 h 7 C g f v m B B g t f t c n s n W D { W m [ [ S x 5 x x + ' 8XwX6X|.;X[.H.[..X,XwXtXtX4X",
"OXm.j.9.J.J.G.J.B.v.E.&X+.. = 5 2 6 d g a K K N C L C C g t f a c n s G T D L [ L $.#.E K a v m s   A qX1X.X.XeX9X,X3X6X:XiX4X=X",
"K.P.B.M.V.F.%X/.E.Q.Q.! X - 4 7 8 a d b N I P b S P K C B a f a f N b D [ T T [ ~ [ ;.{ I g m m x s + s 3X2X<XP.6X9XP.[.L.rXqX5X",
"$X3X$X+X/./.J.y.e.t.W . - 4 4 a b d d C k I U H A I P H C d d a c N n ~ [ #.[ { E { $.{ R f E R G M M + 6 w.F.e.b.c.d.$Xp.>X:X<X",
"C.qX*X%X/.V./.K.~.2.  @ ; 7 7 h B V h B H o.! H C ) P P C h g g b n n { { T [ @.I @.&.>.E A | E L G M x . V tX2X$XOXH.pX-XiX-X+X",
"M.N.E./.+Xk._.6Xi.- = - 4 a a N P A N H V } ) H P ] H H C k V g f n n { @.[ T @.] &.2.2.] b R R L T L m 9 @ U 4XQ.$X{.v.L./.C./.",
"/./.C.).4X4X/.x.; . 2 ; 7 a a A U C A ) A ..U A ( ) P H A N P b f b B T E E #.{ [ ..7.6.| C ] ] E [ E W h d X 0.P.#XL.tX4X4X6XyX",
"%X3X+XJ.W.(./.9 X ; 4 4 p d h C ) P P ( H ..P A H P P ) A g A V c B S D E D #.#.O.O.6.0.&.C %.%.[ O.+.R N v 6 2 {.4XP.4X1X$X@X).",
"$XW.+Xk.l._.,.X 2 4 7 8 h C g P ] R I P K  .P N H P P P V g B N f ~ n D T E { { ] &.2.a.a.B #.%.#...2.#.K K a 2 v $X|.6X3X*X-XP.",
"/.-XsX/.&XE.+ O 8 7 p d N V b P ..@.U P I } ] B A P ) U V f V g c B n G O.{ #.>.[ $.2.a.4.b ] #.#.@.8.q.I U v a a 4 o.pX:X+X/.OX",
"/.C.P.:X4X .. 2 8 7 s b S C b P @.2.P P ] | ) P P I ) ] A d N f b f a G { ] T [ O...2.q.O.S #.#.| #.5.a.P ] b S n + =.B.m.L.{.J.",
"N.l.z.C.0.. 2 8 s s b b I I B } @.*.F U ] | U S P I ] U C a N g f f t D { T { E | &.=.a.[ N 2.;.| #.7.7.U | B I S p $.Y.l.C.+Xl.",
"Y.Y.U.1.g o 8 9 8 s B B I P K } +.&.P ] %...] F R F } I K d b f f b a D ;.{ [ #.R =.2.7.| F %.2.%.] 7.5.) ) C S L m 8 M._.z.z.Y.",
"N.N.T.<.O 1 8 9 b b K V } I K | @.@.U | $.] ] P U K ] I b f N g N N c D ;.O.[ ;.| %.2.7.%.F %.#.2...$.5.@.I P D U I I Q `.T.Y.U.",
"Y.Y.E.b . 8 p p S f I B ) ] I #.#.$.P @.$.] ..V C C [ I C d N f b N b G #.{ ] { #.2.d.6.3.R @.2.%.R O.#.] U S U I I ..g (.W.T.T.",
"u.l.t.o + 8 M s v B I L ] ] I I #.%.P ] $.) ] F P R @.U C p f a b N c B [ O.{ #.#.2.6.2.;.D #.%.;.T ..O.| I A ] L K | b Q `.N.l.",
"v.(.+.X 4 f x b B S ] I [ U I %.2.%.| %.2.[ ] P I S T ] C p b p b k y D U D 5.;.+.q.s.a.2.] ;.9.3.[ [ #...I P @.I I U ! M &XT.T.",
"T.Y.b r d d j k z z l l Z Z Z Z ^ Z ~ ^ / / A Z Z d r d b d f a b f d N y w k N A ~ V H Z k k Z V d d z j d j d y u u u , m.(.k.",
"l.y.- - = = < < ; 4 q = < w w w q q < > q q , w w > > y b f N p b f d a w * > * > : = : # < : # # * : # # : : : , , & & $ U R.u.",
").<.X 2 8 v v s S N C I I S D O.#.[ P $.@.] U b T K V R N a V d N N d b C d { #.T 2.2.2.[ S [ 2.2.I L I K m f S C m U n a 9 N.`.",
"Y.M @ 5 a S C b I P ] ] ] F U R %.%.I | >.} ] ( ] [ | C g f N d b V d b ] ] { O.[ 7.s.s.s.[ %.w.w.[ #.+.@.) P I I @.a.@.U 8 k.C.",
"k.3 5 7 f L S n I C I U S I U | *.$.] #.&.O.{ D @.O.U P b d N a f N d C D ] O.;.$.3.7.d.7.] >.8.8.] O.[ ] P V K I | ..| K 7 *.z.",
"r.2 8 8 g I C C T S ] ) S P D #.%.[ C %.7.*.7.[ ] [ R I V d b a f f a B F ] #.[ [ #.7.8.#.@.4.8.8.] T [ U K b S P I | } P p Y N.",
"! 2 8 7 b L K C I P S ) D I P #.$.O.( @.7.7.>.] | ] U I C a b a g f a C ) ] O.{ ] =.=.7.5.P 4.3.3.R [ [ P B g I I ] +.$.V h v N.",
"m 2 9 7 C I | K I B C P S T I #.*.| I O.q.7.8.] ] R ] P S f b a g f p V T ( *.#.] *.#.7.7.B @.+.#.S [ I C S b C N R $.} N N h 1.",
"K 2 h 8 S E E P I S B ] R U I >.2.| I #.2.6.7.] ] #.U I N d b d k k f C D ] [ | ] 4.>.>.{ I +.%.{ S S S P P B I P U X.I C K f x.",
"d 2 s s C ] R F I B C U D T I #.8.2.) [ >.2.7.] [ [ ] I C f b d c c f b D ( #.[ ] 7.3.>.&.) [ >.%.U D T ] C S I F T @.} N P b p.",
"8 7 s a S | ] b S C P ) T O.T >.;.%.C >.8.O.*.[ O.%.U U C p f d b b d F I ) [ T ] 3.7.0.;.F [ &.;.I ] D I C C I U ..@.) N S b =.",
"p 7 p a ] $.] P ] B P I @.#.] 2.3.7.F 4.q.&.2.] [ #.] U C p g p k N a V D ) ] | ] >.0.3.O.) [ #.#.I I F U S C U F I [ ] N C K P ",
"7 a a g I [ U S U B F I | ] T 7.8.3.@.#.8.3.#.| ] +.[ P N d f a b f f N I ] [ ] } 3.2.7.2.C [ #.#.I P S ) ] F ] T F ..) C K I I ",
"7 7 s g T ] | I I C F ] [ O.T 8.s.7.[ ;.d.7.7.#.#.#.] I C d N a N b d f P U O.#.D ..#.#.%.] O.&.#.U I S R ] C I P F $.) C U K U ",
"; a d m ] 2.&.F S C P | { O.] 7.8.#.[ 8.s.q.7.[ O.] U ) b d B f N b d b C ) ] ] I U ] &.@.I O.*.T I F P T T F U S P ..I N m V h ",
"- 7 a N F $.] I [ C P ] [ [ ] 8.w.#.F O.7.5.7.[ #.%.T C b d N f N b d b I ..[ T I ] ] $.&.I ..#.#.U I R ] U P T S I ..I B B C h ",
"- 9 h b ] [ U [ ..C P U I [ T 7.s.O.P %.4.8.7.[ O.#.] F g a k f b V d B ) [ U $.) I ) [ #.U | O.#.I U ] U U F I S ] ..U C B b a ",
"4 a s K | } | R S F I ] [ R D 2.9.#.] %.7.a.7.%.#.%.E I b a f d b g a V K ..R +.P U | %.$.C O.%.#.] ] [ I ) C U ] I } I b b C g ",
"4 8 f C } I I K | I F ] O.] U %.5.#.] #.8.4.4.O.#.2.O.U F p b a g f p N I | K K C U | &.$.] @.%.%.I P ] I ] I I R P ] P d n S g ",
"6 a h P ..[ R K | F P | O.O.U %.;.>.) %.7.7.2.@.%.#.O.T B b b a g f f F I ..R I P ] U %...P %.#.] P ] [ I ] I S P [ ] C b B b v ",
"6 a v P I | ..K ] C I ) @.#.T #.>.#.] 3.8.d.7.&.O.T { T  .U b p g b I  .I | C C V ] } $.@.P #.#.@.U ] ] C ] F T I L } P B P A h ",
"6 a v K R *...R ] P P | 3.#...%.%.%.I @.a.6.&.#.%.{ [ I S N P p g A U L H U P U C ] ] @.@.P ..O.#.P P | C ) F ] U I U U P P B d ",
"6 g K P ] } U U I P I ] 2.7.[ #.;.%.I [ q.2.5.[ %.O.{ p 7 p b t b f 4 g 8 | K U P ] X.$.] P $.%.| P P ] P ) P P U U I R I P K a ",
"8 N m S ..U I I ] P | ) 2.s.#.| ;.5.C R a.=.=.| { #.[ x ) C s t N b b } v  .I K C ] | } ] F %.%.| A I } P I K I R ] } I K K K s ",
"a m b m ..K R P @.C } P 7.8.%.| #.%.S [ a.=.#.| [ E [ x 5 f f 8 N g 8 4 K } I P P ] ] ] P F %.$.) V P ] P P S I I U ..U P K C a ",
"a m V m ..I ..P K K ..) 0.w.%.@.%.[ V $.s.2.%.] ,.%.O.O.p b C p V b f f I  .P A B ] } ) P I @.%.I V C U K P K ] K S ] I P U S a ",
"7 g V N } U K E I P  .) ,.7.@.@.%.@.n 6.f.=.%.] O.O.[ T C F D w A N C K H P P P N P ..P P P ] ] ) A U P H P H I P U | I N F P a ",
"6 g h C R K I R E C ] I @.;.$.| #.2.K $.a.6.$.O.#.O.T T n S D p C A f b ) P P H V P ..P U ( I } ) V A P V H P P C I O.A g V P a ",
"6 g v b R } | S U C ) U @.%.@.| [ | K } 4.7.} ..{ ;.T E L B N t C P b A P P I ( A ) ..A ) H H _  .C H P N H V U ) P ] C g K ) a ",
"6 f b b T ] | U R P ) U #.%.O.[ R | V I 4.=.%.] +.] [ { { n C p V J v K H H ) P P )  .A I H H .. .H ) P V J k H I P I H N H I y ",
"4 a f b I U ] R K P ] P | | ] | | #.K U 2.=.@.R [ { T O.{ B V a N N h A P P ) P H  .X.P H A P o.} H ( P V I N H H J I H V P P p ",
"2 a h v K I ] E I C P ) [ #.#.O.+.#.V ) @.%.| T O.O.#.[ T N B s g f d K P / I P P  . .A ) V A o.) H P H H _ I P H H U J k U P r ",
"; s h f C C I R S C I P ] O.| ] ..[ B ] $.2.| I | T T [ D c B s g f d V P I ] I A  .X.P ) P H ( ) ( P ( H ( ( P H H U H k I H t ",
"2 s B c S S ) D [ P H C [ O.R @.$.[ A ] #.2.=.T [ [ L [ D c B c g g a N P U | ] H } X.H ) ) H H ` U U H H ` P P P H U J h I U t ",
"; p c v D S T F R S ) I #.#.[ %.2.>.C U #.2.2.T { #.D [ D f G c g g a F ) ) @.] I o.-.) X.o.H ) ` H ` ` U o.` U _ H ` H J U P j ",
": 4 w r k a d g k z k N A A N P A A z N A H / Z C C i b C c C d g k f a r y A ^ J H / J H J ~ Z l J l l l z z z j j u u 6 w i 6 ",
": > < 0 $ 0 0 0 > 0 : * $ * * & * : 0 : , = * > * * : q c n C p g g f d w : < < < < q < : q r r 6 q q = < q < , < = . = = % = = ",
"o o - 4 8 s a s v 7 f d b B S S C c N a C | C B L G w T D n B p g b a P C k R ] I } o.} -.P P U ` P ` P J U H H H J H J V J V 6 ",
"= - t p I U S m I C I P [ [ { #.[ D B V [ q.@.F { [ T [ D c c t g b f B ] ] | } o.=.-.o.0.` ` ` o.P o.` H ` H H ` P U ` ( ` P a ",
"= @ 5 5 C C b c C h B K R E S T [ I k C ] >.O.B T T T E D c b p N k d f P U ....I ..-.o.i.` U ` o.H o.` H P J J U J ` ` H ` U 6 ",
"- - 5 p b b f C b a P H S T I C ] ] s c F &.{ s n T D E D p f 5 N N a f S P ] X.` } o._ -.` J o.) H ` ` J U h J U J d V h H V ; "
};
