/* XPM */
static char *_veey_cq8nt[] = {
/* columns rows colors chars-per-pixel */
"64 64 87 1 ",
"  c #2C3E45",
". c #2C4246",
"X c #2E444A",
"o c #2F4E49",
"O c #32464C",
"+ c #344A4D",
"@ c #394E4E",
"# c #3B524F",
"$ c #364751",
"% c #364C51",
"& c #3A4E53",
"* c #3C4E58",
"= c #375255",
"- c #3C5155",
"; c #3E5459",
": c #3F5B5E",
"> c #404E56",
", c #404E59",
"< c #415555",
"1 c #475E56",
"2 c #42555B",
"3 c #48545E",
"4 c #44595D",
"5 c #495C5E",
"6 c #4C645E",
"7 c #50655E",
"8 c #495760",
"9 c #465B61",
"0 c #4B5D63",
"q c #4B5E68",
"w c #515E64",
"e c #525F69",
"r c #565F70",
"t c #466265",
"y c #4D6165",
"u c #4E6469",
"i c #4F696C",
"p c #526466",
"a c #546A67",
"s c #53656B",
"d c #59666E",
"f c #54696D",
"g c #5A6C6E",
"h c #53706E",
"j c #5A736E",
"k c #546671",
"l c #5C6770",
"z c #566B71",
"x c #5B6D73",
"c c #5C6E7A",
"v c #567174",
"b c #5C7175",
"n c #5C7976",
"m c #5E7379",
"M c #5E797C",
"N c #606D74",
"B c #646F78",
"V c #617476",
"C c #637977",
"Z c #62757B",
"A c #69767E",
"S c #647A7D",
"D c #697C7E",
"F c #65817F",
"G c #6B807E",
"H c #5E7480",
"J c #627482",
"K c #657C81",
"L c #6A7D83",
"P c #66778A",
"I c #657E89",
"U c #6B7D8A",
"Y c #707D85",
"T c #717F88",
"R c #668284",
"E c #6B8185",
"W c #6D8389",
"Q c #6D898A",
"! c #718485",
"~ c #728987",
"^ c #71848B",
"/ c #728A8C",
"( c #738790",
") c #758D92",
"_ c #798D94",
"` c #7E9696",
"' c #7E9698",
/* pixels */
"%;40yfZE^YZxbSRRvHRRSz09,3099umAzy99ivziwwpaxVbbCG~~/WRRKZzs4;==",
"224uzZLWLZMSSKRMmSRMbf09350tsbZZiy9qizzuppagVVCnG!/~EDKKVzy4-==-",
"99yfDWEEmbmKLLZzKKSmf09300yimSZxqqyskzuqppgVVSSD~~~!CVVAsy9*%==;",
"0yfMLELZvnHRELZVKSbfy9590szMSLNs0qszsyqqppgjVCG!/~RCNggly9;$%-:9",
"fbKEEKMznMKKKZKYZBze4340wdKKKZsw0slky00qffjbAD~//Rzgggaw9==X+&4y",
"ZK^^LZbbKKRKZZALBld099yssZEKnze0skssq0qsjbbCD!~~Dbdsda1<=%XXX;0y",
"KE^LbbmZLKSSKKSSNddsepfzBLLSzusskse090scbjVA!!AAgdspw5<>=%++*9sx",
"ELSbfzZKYKZKWRMvdddssfxZLYZxuffxlle88exAbgjD!DNdweds5<@o==%;9sZL",
"EWSy0zL^zxZZZbzssyy0sxJPLLLZsyszy645walNdgCGRKlr5ps5&O%X+&;=9vRQ",
"LSzsfZKKxKWYLxzzsssfxZU^LLAZzsys941yaglglC!GDNsepp5;&%%O-;99imRR",
"ZfszSSZbZLLLxssdiizbKIU^DZZxzss0550sNVgdBADDNpe7a5&OO&&+=:tinLWW",
"fsfZZMZSLLSbfyysivmKIRRRZZxzzss05ysgxxzdHBBdw7aaw>O X%@@=tinL^LK",
"ffmKSxMERKviiiifzvKWQWRKZxxzssy00sxxlkxVJckesp77>+.  O>>:tvLWLZN",
"fMLLZbZWIbiuyfzzKPRWWEKSZxzs0099lxNxkscZJBlNNd1<OOOOOO<1uzZLLZss",
"ZSSSSKSSvfituzvvU(^^EDZVxxss939elklkzcZKcccNlw<o$XO@>>3pxZKLZfsk",
"LKZbK^KzfzzvvnSIUTTLLZxgsss948pxNlslxZKKvcls53>@=%O&<37gBZAZxysM",
"ZxxZLZxsaggzVL^^TWLLZczsdsewesdlBxzzSQRmexks9:=+%+&;4yzSSDZzyinR",
"ZmZKLxsssagbZE^^^TLJmxfkwe0wdNNxxxcnKEImess0*&&X+%=2ygZDLZzszbSI",
"mZLLZssssgVZD!^^^LKBxsssw0wsNBBdlBKKRRPZssy<&$+o++;4sbSRLxsfbKMn",
"SZDZkyszgbZLU^^ULKZxku00wwsxxxzzcmIWQWZxpw3#OO++&;0fMLLSxzfxJKnz",
"LZxzsssbZZLTT(WPZZcxsy09edxxbzMSZJKW(RZsw<<@%%-:9yxKWWPSfxZKKZmm",
"LbssszxZZL^^^WUJxxksyq00slNBZSRWKZHWWKk83<$@&;49qzZULJccinRRSMZL",
"xzyszxZZL^^UUUPcxkuq90qsdlxZSRRRMMKRKzw3,&$&229ukcLPKxkznHSMzzZZ",
"sssdxzZLL^^UUJmkbz0990skNddxKRMbmMMMb0,3,$O>299umL(WJcbmQKzsssdz",
"57sdxBLTTWLUJcssy0009edNpgVCSZbxSzy41<<-.X+==:sbDGDDZxZUKSxxBxxd",
"30sgBKYTEYLPJxssu999slxdsxVVcxxbgp1-&--@=;;99iMRCGESvvP(ZMZBxxdw",
"3pgVKY^^ELLJcxss0930lxNzkBZZkkxZvp4<;413;:9yfbKWGDZbVZKWzxZZxse3",
"6sxDL^^^LLPBckyp990sxxxlHHJHckkcy<=OO&-;==9inKRRSbfzLEZazxxxs033",
"axSE^^WWDZBckuq08edzxlxxJJJHclss;&O.XO@%=9inRWWInZmZREVyzgd03<>2",
"jVD!!LKPZZckrq00wsxxzsxxPJJJHcs4*%$OO@&;4ubKERKmsK)^SZVgxd02*-23",
"vVDRLKmmxzkqqq90sddxxzxbPPPJkq3-OOOX$%*;yvSRLSnvkL)EVCSCde3>*29y",
"gnSRKSmnggsq9990ddddgxZMPPPHr3-@&**;29yuMSWWSMxzKLLZVDGAdw2&<9uu",
"zxZKZmbxis093eddxkiiHIUULSbs4*+X.$%&*9szRIRRMfbWRRnZYYxs;;-@+@5p",
"xZZZZmxxsp930wdxlxkMHIWUKMz0;&%%%;440qxLLRLMzxSRHMZZYZly-#@@@#5p",
"xZZZxxffy0490dNBdxPHHRW(Szy;&+&&&;90ysZUKWIzzKRIvbxZZBy9<-@#-<ya",
"xZZZxzss9930sxxNzcHRQQWLbs4&OO%&$*3qzcKLLISmMILKmxZZxs04<;-<1ysa",
"ZZbxxkss800sxxxzxmKW//LZy9;%XOO%=;tzKRWKZmmLLKmcZZZzsy04<;<<yyaa",
"ZZxzzss00wdlxxxzZZKW/!Vd4;;$%+%+:9iHUWKmxzcLLxszAZzuy994;;156yaf",
"Zxzsss09edxBmxmZPRWQ!Sp5&&&&&---qibKRHbzxZKZcssxBle99:92<1yypafz",
"Bzssyp03dxBZxmZRRQQ)Dg7<&&&=;;99ivRRKmvzcLTZszxxNe94:44;1yfgagvV",
"ssssyyskjjnzKW^KW)_Lz08,=+%=:9uumL^LbszMKKZxdxBA051<541<9uzsuuzS",
"ssssusxZjbnSIUR/)_Wce8>$XXo%=9fMPRSZzzSLSSZxNxdw12<<;<44uyyuizxm",
"zsyysxZZnjmRISW`_Wbq32$ XX&=9unR^LMzxZLEmxzVBzw>&<<#@<5pfy0uzxbz",
"zsyszxxmnbMPKK/`WKi92,&O%=49uvKW/LzgZSSSsslxxs3&@&-<<5pgyuyszMxf",
"ss0szxxxDKZvS~)/Hcu:;**;-4tfZIRRKMzbKLZzlzzse3*+@@<<ypsp9yfxbbzs",
"90ysxZZZRRKbR`/Cht9:%.O*:9iML^RKgzVSDLZxBxde2&%+@@<5sap69uxmZzsu",
"0szzxBSLIKmKWQFhtt==OX+;9unLRRKMzZLRKZSKZNe<&$&&-<5pafpyszmmxay9",
"zxxbxZKLKvMW(Chtit:;=&9eibKERSbnbL^WZbKWAd3>*<;-<5saapppbMMbzs94",
"xjNbVCDRzSE^Sbs94&+%&;9unIRWIKvvRIKZZZZYu9=&%===66aaayfzVCVbapyp",
"dggVVCSCZSRSzs94-+%&;4sZKRRKvzbHRKSSLABx:9;=%=:966aayyjCCSbgappp",
"dgVVZSnbRLZz0;;;XX+%;9zLWWLbiimLSSZSLZs0=;====9u6aaapaVDDVgaaagf",
"xVVZSZbz!Zf02&++O+%-4ymLQImzzbmIbbZAZZy2===--4tzayafvCRRDVgafgxj",
"AVmZKKIKLf42;&+O--;0fZLRLmszZPZxszZZxs9;;-&-49yyatinRRRFVVggbjxg",
"ZZBZLUWRb9@&;-%+;29sSE^KcksxLEcsslxzy92;4**;9u00iivHRQFnbjbjVVVj",
"BZZLULKbu-OO$%%;;0fbKLSbszmKLZczNzs09;--&*240009ivHRMnnngVVVVVxV",
"AZYT^Lz94%.OO.+49zZLELZzyZT^ZmVZZx03;=&%@;90000utHQRnivngVVVjxjV",
"KLWEJxuq##+O@;9sfbLELZzsjGLgeBLZe04&$@#-2404;:tzDRGgagVgCnSVVBBZ",
"KLLKxu09++@@-4ukDEEEZbxbFSVslBKcq9;&&&-<*30y90ivCVvjVNBDVVZZVBBK",
"LLJzq92*@#;20scmWWEZxzMSFjfdxBzy94&%@=<<290ytibKCfpgVVS!bVVVmZLL",
"UKk0;%%%+@;0fmKW^LZzbZLEnvgzBky4*&&%&-140999abKRbapgCCD!VVVVIIWW",
"Kcq4&$$%O+;4fZR^WSZMKW^WnzxZxe2==&@@&;49y04yvMKmygVjVDGDVVSREWQQ",
"xs3*%%%**;4szSE~LZbZLLSmzxxzs1=#@@=;249990qzSKviyVDCbDGnVSSEQQWR",
"q9;&*;;*0yfZGE!GzbZSDZxfxkew<;#+@#;49909ysxmMzfiaVZDDGCFCFEQ(RPn",
"4;&;;299ukbR!!CVszLRKZxzcl0>@##o@#390q99sxZnfuagANgDEFnFFRWQ/Lbs"
};
