/* XPM */
static char *fk4s0_ygbao[] = {
/* columns rows colors chars-per-pixel */
"64 64 195 2 ",
"   c #2F0F00",
".  c #361600",
"X  c #391600",
"o  c #361B03",
"O  c #3B1B02",
"+  c #3C1B08",
"@  c #392100",
"#  c #3E210B",
"$  c #421E06",
"%  c #421E0A",
"&  c #4C1D00",
"*  c #551900",
"=  c #5B1D00",
"-  c #411911",
";  c #442105",
":  c #43230B",
">  c #4A260D",
",  c #47290F",
"<  c #4B2808",
"1  c #5D2301",
"2  c #5D2B04",
"3  c #54250B",
"4  c #57280A",
"5  c #5C2C0B",
"6  c #5A270A",
"7  c #5E3602",
"8  c #5C330C",
"9  c #4B2910",
"0  c #5B2E11",
"q  c #5E3212",
"w  c #5F351C",
"e  c #632601",
"r  c #692701",
"t  c #652B04",
"y  c #6A2C04",
"u  c #652D09",
"i  c #6B2E09",
"p  c #712E04",
"a  c #712E0B",
"s  c #6C3105",
"d  c #633B04",
"f  c #6F3802",
"g  c #66320D",
"h  c #6C320B",
"j  c #643B0D",
"k  c #6D3A0D",
"l  c #633207",
"z  c #723305",
"x  c #7B3605",
"c  c #753805",
"v  c #7C3A04",
"b  c #72340B",
"n  c #7A360B",
"m  c #743A0C",
"M  c #7B3B0C",
"N  c #642B13",
"B  c #6B2E13",
"V  c #662C19",
"C  c #6D2F18",
"Z  c #722F12",
"A  c #643414",
"S  c #6C3413",
"D  c #643B14",
"F  c #6B3C12",
"G  c #6D341A",
"H  c #663D19",
"J  c #6D3A1B",
"K  c #723512",
"L  c #7C3412",
"P  c #743B12",
"I  c #7A3C12",
"U  c #75331A",
"Y  c #79361D",
"T  c #743B1C",
"R  c #7B3B1B",
"E  c #6E3523",
"W  c #6F3921",
"Q  c #743C23",
"!  c #7B3E24",
"~  c #743621",
"^  c #69420D",
"/  c #7C400F",
"(  c #76410F",
")  c #6C4513",
"_  c #6E4914",
"`  c #6D441B",
"'  c #764114",
"]  c #7B4214",
"[  c #774019",
"{  c #79421B",
"}  c #71481A",
"|  c #714814",
" . c #6D4521",
".. c #7A4326",
"X. c #7D4A29",
"o. c #803607",
"O. c #813709",
"+. c #823C0C",
"@. c #823D12",
"#. c #82420D",
"$. c #88440A",
"%. c #824312",
"&. c #83441A",
"*. c #8D4B1A",
"=. c #884113",
"-. c #90511C",
";. c #8A4A21",
":. c #8D4B28",
">. c #914F2C",
",. c #8F512A",
"<. c #945422",
"1. c #975825",
"2. c #985926",
"3. c #96552B",
"4. c #98572D",
"5. c #9B582C",
"6. c #904E33",
"7. c #925134",
"8. c #9B5730",
"9. c #9D5B31",
"0. c #98573B",
"q. c #965539",
"w. c #A15D30",
"e. c #A46633",
"r. c #8F9B85",
"t. c #8D9A8B",
"y. c #929D8D",
"u. c #9D9497",
"i. c #9F9699",
"p. c #939E90",
"a. c #A0979A",
"s. c #A2999C",
"d. c #95A28D",
"f. c #98A68C",
"g. c #95A291",
"h. c #99A594",
"j. c #9CA997",
"k. c #9FAA99",
"l. c #93A099",
"z. c #9DB49A",
"x. c #A0AB9A",
"c. c #9DAAA3",
"v. c #9EA7A2",
"b. c #9BADB1",
"n. c #9FB4B5",
"m. c #A2ADA7",
"M. c #A5AEA9",
"N. c #B2AEAF",
"B. c #A3B4A3",
"V. c #A8BFA5",
"C. c #A6B1AB",
"Z. c #AAB3AE",
"A. c #A5BCAB",
"S. c #AABCAB",
"D. c #A4BBA1",
"F. c #B3B2AF",
"G. c #A1B5B6",
"H. c #ADB6B1",
"J. c #A6BBB4",
"K. c #AEBAB3",
"L. c #A4B7B9",
"P. c #A5BABB",
"I. c #A9BCBD",
"U. c #B4B4B5",
"Y. c #B8B6B6",
"T. c #B1BCB6",
"R. c #BAB7BB",
"E. c #B5BEB9",
"W. c #BCBABC",
"Q. c #C1BEBF",
"!. c #A9C0A6",
"~. c #AEC3AC",
"^. c #ADC1B1",
"/. c #ABC1BE",
"(. c #B3C3B4",
"). c #B5C1BB",
"_. c #B9C3BD",
"`. c #B9C9BC",
"'. c #B9CAB7",
"]. c #BFD0BD",
"[. c #AABCC0",
"{. c #BFBCC2",
"}. c #C3BDC2",
"|. c #AEC4C2",
" X c #B3C7C5",
".X c #BCC6C1",
"XX c #B5C9C2",
"oX c #BDC9C2",
"OX c #BBCACD",
"+X c #C3C0C3",
"@X c #C1CAC5",
"#X c #C5CEC9",
"$X c #C6C3CE",
"%X c #C6D1CB",
"&X c #C9D2CD",
/* pixels */
"H.@X@XH.E..XE.C..XH._.H.M.E.M._..X@X#X.XE.T.T.E.p.m.T.oX`.).H.H.A.E.%XoX`.K.).oXE.T.)..X.XH.M.H.T.#X.XE.E.E.E.@XE.@X.X)..X.X_..X",
".X&X.XZ.U.E.E.E.oXY..XE.T.E.H..XH.T.U.H.U.T.E.T.v.G.)..X_./.K.K.K.).oXoXXX).).).oXE.E._.E.H.m.M.E.#X.XY._.E.E.#XE.+X)..X@X.XT.T.",
"#X&X@XT.E._.W.@XoX_.#X@X.X.XY._.E.E.T.T.T.E.E.H.H.T.`.oX.X).).K.XX.XXX.XoX.X.X).@XY.U.E._.U.Z.M..X#X.XE..X.X_..XE._.E.Y.E.E.M.H.",
".X@XE.E.#X.XE..X_._.@X@X.XE.Z.H.@X.X_.W._..XE.H.).XX.X.X).).).K._..X.X`.`..X.XXX.XT.K.E._.E.T.E.@X@X.X).@X@X.X_..X.XT.H.U.H.Z.E.",
"_.E.H.T.@X_.Z.M.Z.K.E..XE.Z.M.M.E.E..XE._._._.K.).oXoX).).).E.Z.K.).XX).K.).)..XE.E.E._._._..X@X@X.X.X.X@X&XoXT._.@X_.T.T.H.T.@X",
"#X@XH.K..XE.M.m.M.U.E..X_.H.E.E._..X_.E.E._.E.U.).).).K.K./.J.c.A.).).K.J.H.).).E._..X.X_._..XoX.XE._.@X@X#X@XU.U..XE.T.T.H.U._.",
"#X#X_.U.E.E.H.H.T..XE.@X.XU.@X@X&XoXE.H.Y.).E.H./.).).^.(.).K.c.m.E.`.K.Z.K.^./.E._._.E._._._.)..XT.)..XE.@X#XT.E._.K.Z.T.T.H.E.",
"Y.oX.XT.E.E.Z.Z.E..XT._.E.m..X_.#XE.m.v.H..X_.E.(._..X).).oXK.c.H.)..X).K.).).T.E.E.U.E.E..X_.K.@XU.E._.U..X#XE.&X@XU.m.T._.E..X",
"(.@X@X_.S.T.F.F.T.M.H..X.XH.C.T..X@XE.m.M.E._.T._._..X.X@X@X.XE.H.).).T.H.H.E.E.Z.).H.C.).).)..X).).).).J.K.).J..X.XE.H._.#X@XU.",
"Y.(..X(.T.S.K.T.T.H.H..X.XU.H._.@X.XE.H.U.E._.T.oX@X_.U.H.E.E._.)._.E.T.U.E.E.E.K..XK.C.).XXK.).).).XXXXK.).XX).E._.E.U.E.@X.XH.",
"(..X'._._._.(.E.E.H.U._._.T.E.#X.X.X_.E.E.).E.E.@X.XE.Z.m.H.E..X.X_.E.T.T.E._.E.)..X^.H.).).K.K.XX/.).).K./.oX).E._.E.E._..X_.K.",
"F.Y.K.F.T.E.T.S.E.E.E._.E.E._.&X.X_.E.E.E.Y.T.E._._.E.H.H.U._._.E.E.K.U.E..XE.E.).).K.J.K.).K.H.oX_._.).S.T.).E..X_._._..X.X_.E.",
"(.T.T.K.E.(.E.F._.E.E.E.E.T._..X.XE.E.E.Y.H.H.E._._.E.E.E.)._.E.T.H.H.E..X.XE.T.).K.K.K.^.).^.C.oXoXoX`.H.E..X)..XE.E..X_.)._.E.",
"`._.(.(.E._.(.Y.E.E.E.U.U.E.E.E.E.E.E.U.K.H.H.H.@X@X_.E.T.Y.E.E.U.H.U..X@XoX).U./.K.).`.).).).J.).).).E.H.E..X)..XE.E._.E.U.T._.",
"T.F.U.Z.Z.T.K.U.E.E.E.H.E._.E.U.H.E.E.T.H.K.K.Z._.@X#XE.H.H.T._.K.H.E..X@X_.T.T.T.K.oX%X)..X.XK.T.U.E.T.M.T.E.T._.E.T.E.T.Z.H._.",
"_..X'.E.(._.`._.T.E.T.H.E..X).Z.M._..XE.H.E.U.m.M.W.%X@XH.C.T.).T.H.T._..XT.H.H.K.T.%X&XXX).oXK.E.E.E.E.H.H.E.Z.+XE.E.E.T.Z.U..X",
"`._.T.C.Z._.@XE.^.K.).`.).).).).H.)..X.XE.E.T.H._.E.#X_.M.T.U.T.@XE.E._._.T.H.H.).^.).%X%X.X).XX).XX_.).U._.@XT._.T.Z.E.E.E._.@X",
"_..XY.C.Z._._.E.).).).).).K.K.K.C.).@X.XU.Z.H.E._.E.#X_.H.E._._.@X.X_.E.T.H.H.T.).).).#X%X).E.).).).).K.Z._.+XU._.T.T.E._.E.E.Y.",
"_._._.Z.U.E._.E.oX`.oXoXoX`.).`.K.H._..XE.M.M.T._.U..XE.Z.E.E.W.@XE._.E.H.H.T..XXXE.).`.`./.E.).).K.).K.Z.E.W.M.E.T.F.E._._.).E.",
"E.Q._._.T.E.E.E.OXoXoXoXOXoXoXoX.XK.T..X@XT.H.E._.H._.T.H.E.E.E.).Y.H.K.U.T._.@X).K.K.K.T.K.K.E.).T.).T.Z.T.E.M.C.Z.T.)..X_._._.",
"H._..X_.E.E.Y.T.oXXX`.oXoX.X).).@X_.@X&X#XE.E.#X#XT._.E.Y._.E.E.E.K.Z.H._._._..X).E.K.K.K.K.^.XXoXE.E.E.H.T./.S.M.U.E._._.)._._.",
"Z.T._._.).E.E.T.%X.X_..XoX).).E.U._.#X&X.XH..X&X@XT._._.T.E.T.T._.U.Z.T._._.E.Y..XXX).).).).).).@XE.E.E.H.T.).K.H.E._.E.Y.T.Y.T.",
"Z.H.H.U.T.T.E.).%X.X).`.XX).T.K.M.E..X.XE.H.E.@XoXZ._._.T.T.Z.T.).U.H.T.E.E.E.E.oX.X`.).).T.K.E.Y.F.Z.U.Z.K.).).)._.E.T.T.E.E.H.",
"Z.Z.M.M.Z.Z.E._.XX).K.K.).K.K.K.T.T.T.T._.@X+XE._.U..X@XE.E.T.).E.H.H.T.E.E.).XXoXoX.X).E.T.J.C.T.m.m.M.C.K.).)..XE.H.Z.T._.).H.",
"Z.H.K.K.(.E.)..X).)._._.E.T.E._.H.T.E.E.E.T.E._.oX.X).K.K.K./.K.K.K.H.K.K.(.T.).@XE.@XW._..XH.H.C.C.C.m.c.c.Z./.K.#XoXA.m.XXoXH.",
").).).)./.)..XoXC.C.T._.W.E.@X&X.X.X.X@X@X#X#X#XoX.X).).E.K.T.K.E.K.).K./.T.).K.@XE.@XE.T.E.H.Y.K.T.J.S.C.C.C.K.Z.).).H.H.oXoX).",
"/.).`..X.X.XoXoXC.Z.T._._..X@X&X#X@X+XoX@X@X@X@XoX.X/.T.E.).^.H.K.T.(.K.(.).).).@XE.@XE.H.T.H.E.K.).).K.H.A.C.C.).).XXT.).).`.E.",
"Z.K..XoX%XoX.XXXE.Y._.@X@X.X.X@X#X#X@X_.T.U.T.T.oX).(.T.).XX).K./.T.K.).E.).XX)..X_.@XE.H.T.Z.E.C.E.).).J.H.C.C.).).).).).(.T./.",
"C.K.)._..X).).^.T.T.E.@X#X#X@X&X#X#X#X_.H.M.Z.T.XX).K.).).XX).K.E.E.).^.).).).XXE.E.@XE.H.T.M.T.H.).`.).K.K.H.m.).H.J.K.E.).).oX",
"K.^./.K.K.K.K.).T.T.E..X@X@X@X#X@X#X@X).H.M.U.E.).K.K.K.).).).E.).XX).).E.K.).T.K.U..XT.U.T.M.H./.oX#X_.).T.K.A.XXK.C.K.K.K.).XX",
"K.K.^.K.K./.(.)._._._..X_._._..X@X.XE.T.H.H.E.E.K.^.).E.K.K.^.E.).).).).E.E.^.E.E.H.E.T.K.E.Z.T.(.oXoX).T.).^.H.oX).K.K.).K.K.K.",
"c.H.)..XoXoX_._..XE.E..X@X+X@X#X&X.XY.H.T.E.E.E.K.).).).H.H.J.K.).).).K.).).).XX.XE._.T.T..XT.).H.).XX).J.).).K.).K.K.K.).`.).).",
"m.m.S.(.'.(.T.(.).K.^.^.`. X XOX].'.K.B.S.(.`.(.A.C.S.(.).^.A.^.B.A.^.(.(.(.(.(.oX`.(.T.E.(.).(.~.~.S.B.D.K.^.S.T.T.E._.Q.E.U.Z.",
"Y.Y.R.}.+X}.W.W.@XU.U.U.U.{.}.$XQ.Q.Y.N.U.{.{.R.Y.Y.R.}.}.R.R. XU.Y.E.+XQ.Q.Q.Q.W.Y.R.Q.Q.Q.}..X}.}.W.R.R.}.+X{.~.!.V.~.~.D.z.z.",
"G.M.G.I.I.L.n.G.XX^.J.A.J.^.|.|.S.J.J.G.L.I.I.L.P.n.L.I.I.P.n./.|./.|.|.|.XX/./.J././. X.XXXXX).|.|.|././.|.XX/.I.L.L.P.L.G.n.b.",
"p.t.p.h.p.y.t.p.h.g.f.f.f.d.d.t.r.r.r.y.p.g.g.g.t.t.t.y.y.g.g.l.j.j.g.g.h.j.h.j.g.h.j.k.k.k.j.g.p.g.d.d.d.d.y.r.s.u.u.a.s.a.a.a.",
"V B G G G V G J E E J G G G V V S B S K Y ..! ! W W W  .! ..;.X.....Q Q  .Q Q T E E E E E E E E Q W T T T J F S ^ j j ^ ) ) ) _ ",
"&.{ &.;.&.] &.;.6.6.>.;.*.;.:.:.<.*.*.<.5.5.9.9.,.3.8.9.w.e.e.e.5.9.9.9.5.3.3.4.7.7.q.7.7.7.q.0.8.3.3.3.3.<.-.-.1.<.<.1.2.1.1.1.",
"8 8 q ^ D 8 8 j A F D d 7 j j j ^ t 2 7 ) ) ) g 8 D F F ) | _ ^ j ) } ` F j j ) q D H H H W `  .) j 8 j j d d d Y U U U Y U U U ",
"N N G W V u N V u G R P b b k h R u t S ! Y K u V G ~ U Y R ' m G ~ ..! U B C U V S G J G J G T E C C K P K K P k k k ' ' K m k ",
"# # . 9 ;   # + O X O O O O O X X . % X < O % - @ O O $ > > ; O $ X > ; O ; $ ; O o o # + X X ; # + # : > : % + O # + O , , $ , ",
"w q 4 G 5 & 0 > 8 5 8 5 8 5 6 2 j 4 0 2 P l S N 8 8 5 w G J F j g 2 F g 5 g g A 8 8 8 w 0 6 5 A 8 A j A A A A u 8 D 8 0 D H A H ",
"T K h I a r S g L m L b b b p p M y b p #.$.I L P m c L %.*.&.#.%.z %.I c M M %.b b K P K a b I M m M ' @.M M M m I m c ] @.m I ",
"P i p n p r b P b n b b z p p y c r y r $.o.@.L b c b n @.@.+.+.+.z +.x z O.+.$.s b b b a p p n M c x M +.v o.n n M b z M I b M ",
"Q i P P a a K T b Z K a h b a y m y b s / c +.R P m K I &.&.M b I y I b y M M / s k S h i a b m ' m m ( I M n M P P b k I I P T ",
"..g U I i h A J B G G K K K K k ' K R b / c M U J F K ] &.&.P k K t K b y m m ( k P T S B G K P ] m m ' { P P I P [ K K { { P { ",
"[ t P m y s e S B B h h k h f s ( b P b #.c n Z g h c x +./ m s B r K i y m c M l k k i t s b z I f h m I c c I m ' b k ] ] ' ] ",
"m e x x z c y m a a p p p z z s v y p c $.o.+.a f y y z v v x z a r L n p v x M f c c y r z c c M z s M n z z v c M c c %.#.M %.",
"k h b b p r e h t y b K K a i P O.b Z P n o.b i a r s z c M ( c c r b b c n s c t b K t e s M x %.b y b b b z b P L b I { m ] ] ",
"h h a n i e e y r t i a i u y i x b i K o.o.n i a r z M M M M z s r c b b M y c y m K i t z z x M z r h b h z n K P b I ] m ] ( ",
"m h b b y r 1 i t r i K a i y i x y B h n +.n h y r y c z M M y b r a a b I s c y m P i t s m x v y t h K b p n i b y P m k ( ^ ",
"P b b a y e e i y t u a a i u a x h i h n O.b i t e y c b c m y c t h b b I c c y k F u t s z x M y e i h h z n b b y I m s m m ",
"] m z b y r e u e e e r y t t r x p g h n x b u B t s m m m I s h t i h b P s c t h h t e h z z I y t i S i y b b c s m ' s P k ",
"( b p b i r e u i i e y i r t y z s g h c x z u i t h b m m m h y e i t i k y m t k g 2 2 t h y I b y g S u i z b m z P P s P k ",
"m f s b a r 1 N Z y u i i i y u z s u g c n b u B e t s t s b l t 1 g y t l t m i h A t 2 i b p I h t g A g i b c b s m K s F k ",
"c t r s y r = e u r r r i i r y s t t h x n c g S t t y f k K h t 1 S i t s s m h k A 5 2 h h y L y 2 g k h b P z m s m m t K g ",
"k b y i i r = u r i y t i i r i K y y Z K K a i e t y z z k t t r y h y r s s h t s y t y h K i P f e h K g i K s f t c m y K k ",
"K b r r a r = u e r r e y r e t i r r i K Z a i u t y s z s f t r y b y r y z y l t t e t h a a k t e s g i u h s f t k k l K h ",
"P h t r a r = u = y e e t e = r i r r y a a i u u u y p p s l t t i b y y y i i u t 1 1 t b b u k t 1 t h y u i t f t k h t k i ",
"P b r r Z e = y e u e = t e 1 e i t e y b a i r u t y y y b s h t s h y t y s y g 2 1 1 t h h y k t e y h u t i t f t s k t g i ",
"m h r r i e = t t t 1 1 u t = e h e e h b h u t u u t y z z s t t h h t u i h t u u 1 = t h k t c t e s h u t u l f e h h t i i ",
"s y r t i r = t e 6 1 1 u t = e h e e u S i t t u e y y y z t l y h g u u i h u 6 N 1 6 t h k t h e e l g t t t i h t k h t h u ",
"t r t r i = * t 1 6 1 = u u 1 1 h e 1 t i i t e u t y p z h l t u u g t u h g u 6 5 u 6 u g h t f t 2 y h t 1 t t h e h g e i t ",
"e t y y r = * u 1 t 1 1 u u 6 1 u e 1 t i t e 1 1 t y b b f s e t u u t i g g i 3 4 u u h g h t s e 1 t u t 1 e y g e h h 1 t e "
};
