/* XPM */
static char *ge00q_www7s[] = {
/* columns rows colors chars-per-pixel */
"64 64 256 2 ",
"   c black",
".  c #030000",
"X  c #000002",
"o  c #010202",
"O  c #020203",
"+  c #060101",
"@  c #010106",
"#  c #040304",
"$  c #060506",
"%  c #0D0400",
"&  c #000900",
"*  c #070803",
"=  c #0F0A03",
"-  c #080809",
";  c #0D0E0D",
":  c #150C03",
">  c #0D1205",
",  c #18130C",
"<  c #181714",
"1  c #1F1E10",
"2  c #1D1D1F",
"3  c #25180D",
"4  c #26230B",
"5  c #3B220E",
"6  c #232115",
"7  c #2E2314",
"8  c #222B16",
"9  c #2B2C12",
"0  c #23251B",
"q  c #282518",
"w  c #262B1C",
"e  c #2C2D1C",
"r  c #322B1B",
"t  c #28321C",
"y  c #38341C",
"u  c #2A2C24",
"i  c #362A23",
"p  c #2D3623",
"a  c #323221",
"s  c #3D3421",
"d  c #363B26",
"f  c #3E3E23",
"g  c #31342A",
"h  c #3B372B",
"j  c #35382D",
"k  c #3E3E2A",
"l  c #2E3F36",
"z  c #3A3C33",
"x  c #473A27",
"c  c #3C432B",
"v  c #46442C",
"b  c #554A2E",
"n  c #44502F",
"m  c #54502A",
"M  c #424233",
"N  c #414637",
"B  c #4C4432",
"V  c #464A32",
"C  c #4C4C33",
"Z  c #49473D",
"A  c #474E38",
"S  c #4C4A3B",
"D  c #554C38",
"F  c #4A5336",
"G  c #4D553A",
"H  c #515037",
"J  c #5B5430",
"K  c #53543C",
"L  c #59543D",
"P  c #54593D",
"I  c #5C593F",
"U  c #664A36",
"Y  c #54613C",
"T  c #5D613D",
"R  c #3A3C41",
"E  c #494D44",
"W  c #544B41",
"Q  c #4D5F42",
"!  c #525540",
"~  c #5A5245",
"^  c #555B42",
"/  c #5C5C43",
"(  c #5C5F48",
")  c #585A4C",
"_  c #655A47",
"`  c #6F5F45",
"'  c #60554C",
"]  c #576345",
"[  c #55624E",
"{  c #5D654A",
"}  c #5E6850",
"|  c #626146",
" . c #6B6E46",
".. c #62654C",
"X. c #6A624D",
"o. c #656848",
"O. c #626A4E",
"+. c #6A6C4E",
"@. c #746A4E",
"#. c #66714C",
"$. c #717D4E",
"%. c #656552",
"&. c #636257",
"*. c #6F6653",
"=. c #656C51",
"-. c #696D53",
";. c #6F655D",
":. c #686D58",
">. c #6E6F59",
",. c #726C55",
"<. c #7D6F55",
"1. c #667154",
"2. c #677754",
"3. c #6C7255",
"4. c #67735A",
"5. c #6D745A",
"6. c #6B7958",
"7. c #6E7C5C",
"8. c #717453",
"9. c #727857",
"0. c #72755C",
"q. c #7B725D",
"w. c #747B5A",
"e. c #757A5E",
"r. c #7C7C5D",
"t. c #6B6B65",
"y. c #6D6F6E",
"u. c #756C65",
"i. c #6D7762",
"p. c #757762",
"a. c #7C7561",
"s. c #7E7667",
"d. c #727D61",
"f. c #797C62",
"g. c #7B7E65",
"h. c #72736E",
"j. c #777C6A",
"k. c #7E7E6A",
"l. c #7B7C77",
"z. c #847C63",
"x. c #78825D",
"c. c #748162",
"v. c #758666",
"b. c #7C8261",
"n. c #7D8266",
"m. c #7C8866",
"M. c #788369",
"N. c #7D836A",
"B. c #74896B",
"V. c #7E886B",
"C. c #7A8B75",
"Z. c #828464",
"A. c #8D8164",
"S. c #888766",
"D. c #818866",
"F. c #82846A",
"G. c #8A836B",
"H. c #818B68",
"J. c #82886A",
"K. c #868969",
"L. c #868E6A",
"P. c #82886D",
"I. c #868A6F",
"U. c #838F6C",
"Y. c #898969",
"T. c #8D886B",
"R. c #8A8E6A",
"E. c #8F8D6A",
"W. c #8A8A6D",
"Q. c #8F8A6E",
"!. c #888C6C",
"~. c #8A8E6E",
"^. c #8D8D6E",
"/. c #918E6F",
"(. c #88916D",
"). c #96936E",
"_. c #828371",
"`. c #8A8272",
"'. c #808F73",
"]. c #868D72",
"[. c #8B8D71",
"{. c #8A8D75",
"}. c #858179",
"|. c #8D8D7A",
" X c #938C74",
".X c #849274",
"XX c #8B9170",
"oX c #8E9071",
"OX c #8B9471",
"+X c #8E9472",
"@X c #8A9074",
"#X c #8D9276",
"$X c #8B9476",
"%X c #8E9575",
"&X c #8F9876",
"*X c #889278",
"=X c #8D937A",
"-X c #8D917F",
";X c #8D997B",
":X c #919172",
">X c #969072",
",X c #919572",
"<X c #959573",
"1X c #929374",
"2X c #959275",
"3X c #929575",
"4X c #959576",
"5X c #9B9275",
"6X c #939A75",
"7X c #909B77",
"8X c #9A9A75",
"9X c #919279",
"0X c #95927A",
"qX c #91957A",
"wX c #969778",
"eX c #93927D",
"rX c #92967E",
"tX c #96967D",
"yX c #9A9578",
"uX c #939979",
"iX c #979979",
"pX c #969E7A",
"aX c #93997D",
"sX c #96997E",
"dX c #9C9B7C",
"fX c #989D7E",
"gX c #A49978",
"hX c #8FA07F",
"jX c #9AA37F",
"kX c #A3A17A",
"lX c #888786",
"zX c #948380",
"xX c #9A8F89",
"cX c #8B9885",
"vX c #969681",
"bX c #949B82",
"nX c #9B9981",
"mX c #9C9E82",
"MX c #9C9F86",
"NX c #999D93",
"BX c #A99F86",
"VX c #95A088",
"CX c #9EA38B",
"ZX c #A7A787",
"AX c #ABAE8C",
"SX c #B3A78C",
"DX c #A6A995",
"FX c #B5AB95",
"GX c #ADB09C",
"HX c #BEB790",
"JX c #B3B69C",
"KX c #B9B9A4",
"LX c #CDB5A8",
"PX c #C1C0AA",
"IX c #CBCABC",
"UX c #E5E2D3",
/* pixels */
"M.c.X E E X bX7.i.ZX^.4XoXfXqXbXCXI.5.P 0.E :.M +X].mXuXmXmXdXvXnXsXmXMXqXI._.].} j.u s X.+.ZXFXCXtXnXCXDXL.v.j.hX0 <     z 6.c.",
"M.M.:.GXNXz ;X7.7.8XtXsXiXdXrXV.#XP.0.! k.c %.k [.J.sX&XuXqX4XnXtX0XtXsXN.5.-.f.! p.g e *.X.mXZXnXtXMXnX9Xx.c.M..XVXIXC.l [ v.d.",
"M.6.&.1 & j.V.d.d.V.{.fXtXCXaX.X%XI.p.P k.j :.c OXJ.sXqX3X4X4X0X9X0X0XqXI.-...k.A p.a r q.| mXCXsXfXfXfXP.2.m.H..XVXQ c > hXd.d.",
".Xc.B.DXVX*X]..X'.C.P.dXtXDXMX*XXXP.g.P q.p *.k @XF.aXfXsX4X:XoXoXoXXX9X].F.P.N.! _.j y z.| MXjXfXuXsXaXg.7.hXhXhXhXVXSXIXJX'.C.",
"! G F G Y ^ ] ( { ] 4.jXMX{.=XM.+.+.>.! <.p a.V ].J.aXCXMXwX1X:XY.^.^.].P.I.@Xk.! -Xj r eXo.mXnXwXtXwX3Xe.3.b.7.x.w.R.HXSXE.#.{ ",
"q 6 6 6 6 q 1 6 4 1 { =XMXMXCX=X^.I.f.K q.p s.! K.b.&XmXCXqX+XW.Y.S.oX].F.P.[.N.A *Xg 9 0X| iXdX:XyXyX^.4.e r 4 4 4 4 5 7 r 9 6 ",
"q q w e r r q e 9 4 ..V.{.{.P.5.| | a.K ,.8 a.K D.w.&X6XrXqXXX[.XX3XuX{.@X#X@Xd.V j.u 4 a._ #X#XyXsX9XV.} e 7 r 7 8 9 9 7 e e e ",
"] Y ] { ] { { { 6.t v.B.V.@X].I.k.b.e.N 0.6 j.B D.f.3X%XcXOX(.qXL.&XuX=XqXaXU.w.N d.0 k G.%.U.H.oX{.D.b.2.d T [ P Y Y T ] Q Q P ",
"d c d p d k d d N n #.D.m.J.b.I.N.x.f.M p.6 f.d g.n.].w.5.e.-.qX5.i.5.M.*Xd.} 3.N i.u p f.F 2.7.c.g.6.M.7.#.y A c c c c c c V d ",
"O.} { ] ] { 1.^ m.X R 6XU.m.N.n.g.b.8.M 0.6 g.d V.qXaX=X#XaXaXMXbX;X].;XbX5.5.1.N i.p 8 j.A 1.6.5.7.3.2.d.} 1.{ } } [ ^ { O.1.3.",
"6.1.7.4.{ { 3.V.OXu   w bX*X.Xg.f.7.5.M 5.e 0.p J.].@Xn.3.0.=Xe.c.V.XX9.M.5.1.{ A j.j 8 k.A 3.7.6.7.d.7.N.  t x.7.7.6.] 1.7.7.7.",
"7.c.v.5.#.#.x.x.N.&Xd.  t bX*Xi.7.1.} k i.a >.c V.[.].].I.].#X#X7X7X(.b.i.1.5.O.A j.z 8 k.H 0.0.7.d.6.c.>.X [ x.7.7.7.2.7.x.7.d.",
"N..X].V.7.d.d.c.d.I.aX~.    m.$.p.7.%.v 5.p >.k P.=XqX].+X(.XX6X.XhX@XMX.Xm.c.2.A i.g 8 _.! 6.c.w.6.d.OX< u (.v.c.d.7.M.m.v.c.d.",
"U.@X:X/.N.g.V.P.5.J.[.uXcX& _.M.5.p.-.C 0.e >.v P.P.qX=X(.(.L.XX.XbX#X9X.X7.7.7.F i.u 8 {.K e.7.w.b.$X].X =XpX.XV.m.V.].].#X$X.X",
"I.:X^.I.J.uXuX%X%X@X%X&XZXbX5.E ] a ..G 6.e _.V V.e.g.@XK.&XuXpXrXnXsXyX*Xe.5.5.G V.g 8 |.P J.n.J.(.MX< < CXm.;X$XV.(.[.:X/.>XOX",
"/.S.!.k.8.b.R.K.6XpXpXpXVXVX_.4.4.i.>.{ =.w {.V n.e.b.@X(.b.H.L.{.I.W.a.d.5.+.3.G '.j 8 s./ P.I.I.,XsX  n.x.Y M.;XV.V.I.T.T.Z.1X",
"^.^.W.b.4.c.9X].g.P.I.[.S.fX$XM.b.7.O./ O.q {.~ m.e.e.].F.{.f.tX_.P.b.,Xr.2.{ %.G _.g 8 F._ r.L.5.f.c.U.T 6.n 2.7XU.H.K.!.Q.T.oX",
"^.+X^.b.6.e.].I.].f.aXP.b.+XN.'.b.7.{ H { 1 p.v n.c.e.V.g.e.MXn.n.vX&XuX,X6.O.+.G j.g t G./ x.w.-.K.w.$X(.OXU.c.&X(.H.L.H.!.T.:X",
"^.4XoXD.d.e.g.N.e.MXf.g.iXXXn.'.b.7.} ! / 0 0.v n.e.n.5.n.#XN.F.iXjXCXMX<Xc.} L ! p.j w z.| b.D.S.oXuXH.K.x.w.7.(.&X(.H.m.H.W.2X",
"W.1X^.D.7.N.3.F.#Xg.I.rXjXuX.X'.e.7.} ( ^ w >.v N.0.aX-.F.>.G k.,Xx.#X! 8XH.O...G j.j p <.X.w.D.S.Y.oX+XZ.&Xc.7.w.&X$XU.U.(.W.:X",
"W.4XwXK.5.+X+.S.>.K g.=X,.MXfX].Z.9.O./ ^ e >.M x.9.1XuXuXo.o.D.6X5.) X n.N.1.] ^ N.z p ` X.,X.X/.uXJ.9.m.H.m.] R.aXfXbX;X%XoX1X",
"oXwX4X!.6.OX6X4X{ -.F.sX+.MX#XP.!.f.-.( / a 0.v b.8.+XXX%XfXjXiXjXmXAXZXMX!.6.{ P _.j p <.+.yX4X^.uXJ.U.H.L.OX6.,XjXmXMXaX#X~.2X",
"2XiX3XZ.2.!.oX1XmXnXfXsXnXMXqXn.D.f.>.^ ( a p.d b.8.oX~.%X+X,X7XtXwXjX8XrXI.9.] ^ _.j p ,.| r.r.r.~.9.#.#.Z.b.,XfXpXOXf.c.n.Z.>X",
"0XwXoXF.-.!.[.1XoX3XqX6XsXMXaXV.K.F.5.K %.e j.a Z.8.oX~.XX3X#X7X4X0XdXMXaXV.d.] / l.g d <.I 9.#.W.w.o.m.+.J.r.+X+X(.+X].V.e.S.yX",
"sXiXeXV.3.XXXX~.%X%XwX<XeXDXbX.X+XI.g.F _ t k.h D.9.~.XXoX+X2X5XtXtX0XvX>XK.0.{ I f.j d ,._ qXrXsXmXg.g.3XZXpX/..X$XhXCXL.(.3XyX",
"qXsXsXP.+.~.~.+X%X3X:XyXvX{.#XN.o.( %.G _ t G.h b.9.!.+X[.3X2X5X9XtXtXtX<XF.0...] 0.z d ,.C -.| P f.-.qX+.3.Y.Z.1.0.5.V.9.9.4XwX",
"fXoXI.F.8.!.+X~.3X1X4X>XvXbXCX.X^.Z.>.P _ w `.S b.9.!.XX!.oX/.2X9XtXnXMX<XK.e.../ p.z d q./ tXmXMXMXMXqXiX:XuXoXMXbXCX=XjXOX3XiX",
"sX].[.N.9.!.+X(.oX>X5X>XbX{.].5.@.X.,./ X.t _.S b.9.~.XXXX1X2X>XeXnXsXvX<XF.f.{ / N.M d `.B ,.,.5.P.-.N.K.D.n.w.0.0.I.=.XX&X1XwX",
"9X:X9Xe.3.XX^./.:X3X1X,XnXtXI.P.5.9.5.! >.u g.W Z.8.:XoXoXwX%XoXiXuXuXuXyXW.f...{ k.N d 5XL ^.7.r.r.Q.z.^.b.Z.z.x.b.#XZ.7XXX^.iX",
" XQ.[.f.3.+X1XoXiXiX^.iXnXfXZ.{.I.x.9.! ,.w 0.W D.8.XXXX1X3X3X%X3XuXdXpX8XI.g...( g.N d 5XD Y.=.S.r.Z.yXr.Z.Y.Z.D.~.XXK.&XXX[.4X",
"I.G.f.f.+.+XoX:X1X3X4X,XnXqXF.F.N.b.3.! >.e :.B b.o.1XXX:X<X2XyXwXwXiXdXiXW.n.{ { :.N c 5X/ 2XsXyXdXdXdX4XmXdXmXfXfXuXpX7XXX!.4X",
"Z.n.f.e.O.&XoX1X:X:XiXiXtXtX#XI.N.K.5.^ 0.w >.k b.8.oX!.>X>XyX>XyXdX>X5X8XW.n.{ ..5.M c G._ yX0XwXmXdX<XwXiXiXyX6XuX3XuX7X~.Z.Y.",
"oX:X~.n.0.R.^.>X1X4X4X4XnXuXsXn.D.g.p.K ,.w >.M Z.8.!.%X>X2X4XdXtXtXnXsXMX[.f...| :.z V _.I E. XyXyXdX5XuXiXwXiX%X3XoX2X3X3XW.K.",
"4XqX1X9XZ.[.^. X3X3XiX<XsX#X9Xn.Z.Z.0.G ,.u -.M Z.| e.Z.:XiX1XyXtXfXtXnXaXF.+./ ( %.z c s.L E./.>XyX>X2XwXwX4X2X3X+X:X1X3X4X:XoX",
"wXiX4XsX#XP.Z.Q.wX1XwXwXMXN.I.I.K.g.p.C X.a %.h Z.| w.b.yXdX4X2XvXeXwXtXrXf.O.C ..%.M f k.b A. X2X>XQ.Q.oX^.oXoXXXF.:X4XwX:X2XwX",
"oX4X4XfXI.g.g. XiXwX4XdXqX[.@Xg.D.g.p.H / p =.h D.9.e.!.2X2X:X<X9X9X9XtXqXP.+.P | %.z f }.H S.Q.T.T.Q.A.D.3XK.Y.J.b.W.2X4X^.2X3X",
"iX1X3X#XI.Z.F.oX:X:X3X,XtX X[.f.F.b.0.A _ 0 *.h S././.oXoX^.oX:XoXW./.^.@XW.n.n.-.%.z c G.D S.W.W.Y./.W.Q.^.~.oXJ.oX+X,X+X^.1XiX",
"2X:X~.I.F.K.Y.1X:X3X:X:X XW.F.e.g.b.8.S X.0 X.Z z.T.S.!.^.W.W.oXoXY.W.R.J.F.n.f.%.0.z V _.D E.0X1X1X^.oX2X:X~.!.XXXX~.!.@XoX1X2X",
"W.^.Y.G.f.r.Y.W.Y.K.W.1XW.F.e.b.k.w.3.Z *.p L Z z.S.b.D.S.Y.R.^.K.W.Y.^.n.g.Z.f.:.=.M C `.C ).{./.:X^.^.>X:X~.oX(.%X!.XXU.!.:X/.",
"T.Q.Y.S.Z.r.Z.Y.b.8.Z.r.F.e.5.7.e.r.8.N I p B M r.b.b.b.r.b.Z.Z.Z.Z.S.T.e.g.e.w.%.( j G a.C E.oX/.S.:XS.T.G.R.!.L.,X~.3XL.K.T.T.",
"p.p.a.a.f.e.e.g.g.e.z.g.c.p.=.5.3.>.=.F 3 e 4 u @.q.e.0.0.0.e.r.f.p.g.g.e.0.5.5.+.d q C : _ A.N.F.k.F.k.z.a.g.N.F.k.N.I.[.z.n.k.",
"KXKXKXJXKXJXKXKXKXKXJXJXDXDXmX=XbXbXV.3.( ! e.MXFXFXDXJXAXJXDXJXGXAXGXDXVXmXbX=XJ.p.:.| z.BXFXJXKXJXGXJXJXJXJXJXKXPXKXKXKXJXKXKX",
"O.o.] O...=.( =.O.O.=.3.O.O.5...5.-.=.=.=.O.f.5.8.9.3.3.-.3.3.+.0.>.3.0.5.O.-...O.:.:.+.@.@.+.1.>.>.9.-.=.3.3.....1.} 1.8.o...O.",
"F F F F F G P G G G ] ] P P ^ P F G G F F ^ G G P P G Y { P Y G G F P P H F G F n A ! P m m b F ^ ^ ^ P Q G G T P G G Q Y F n G ",
"UXUXUXUXIXJXGXGXKXKXPXKXJXJXJXMXbXCX-X-XVXNXVXNXCXDXCXGXGXDXDXDXDXCXDXDXVXcXMXCXcXVXGXDXBXBXFXAXGXJXKXKXPXPXIXIXIXIXIXIXUXUXUXUX",
"W ' &.&.t.y.l.l.}.h.y.t.y.h.l.lXlXxXNXKXFXLXLXLXPXKXKXPXIXIXIXIXIXUXIXIXIXIXnXKXLXFXKXPXKXKXDXxXzXzXzXzX}.h.h.h.u.;.W W E ! ~ W ",
"KXPXPXIXIXUXIXIXUXIXUXNXIXKXGXKXBXxXxXzXlXlXh.y.s.' &.;.h.&.y.) ~ W Z N E W ' ' &.&.&.) `.u.;.}._._.-XCX X0XMXqXDXGXUXIXKXIXPXPX",
"gX5X>XPX{.|.CXDXJXN.=XDXJXKXGXNXBX0XBXKXDXKXDXDX>X<XT.5XQ.2X X X!.!.%XL.$X&XyX).ZXMXZXSXFXgXmXZX5X5XgX5XBXPXsXbXyXiXdXwXpXuX5X>X",
"ZXAXZXPXkXBXkXPXBXkXZXkXjXfXAXjXZXZXAXAXgXkXgXkXpX6X%XgXmXdXkXmX8X).).8X6XE.).gXZXkX5XZXAXBXSXAXSXSXHXZXBXUXZXAXZXPXgXZXAXAXZXSX",
". : +   % + % * : 3 6 6 6 1 1 0 6 e h d s s y d h y s U i s y M M d M k V k x x M a r v h i x h 7 q 1 1 , 3 > : : +         =   ",
", . : ; , , , ; 6 : : = , : , 3 6 = % % % = , = % 5 LXA.. : <.+ : = = : = = : = = = = = : : , , , , , : : , , , , , < 1 , 3 r , ",
"h q y V i e d p s r i  Xr d i i W a.s r v I f 9 0 5 UXLX, A.x ) a r a a r k e w r e a r r t a s s s y y y s y c f f | v d U q.a ",
"<.a C 0._ b C V C C f L v X.c c v H v f 5XUX<.B v y UXIXs J _ @.v V C B V v k k f f f f x v H v v V B V B v C H C H | P m FXSXs ",
"K D L K D L C >.C P H K D I ( ^ _ Q.I x U KXB I I y LXeXS T Z | H H K H A A K K H I / P I L D L ! ! G ! H K | I / | o.| ..@.I c ",
"K L H ..( K H [.H I / ^ L K ^ P _ IXq./ BXnXBXq.UX*XSXX.H o.  v A H K K ^ V ^ ^ / -.=.{ / I I ^ P / ( P I ..+.o.o.o.+.o.+.X.L H ",
"..K ( ^ =.O.^ q./ ( { _ ^ ^ ] G K q.{ -.nX`.gXIXUXVX_ ( T -.  H 9...O.-.) ..} :.O.P K ^ ^ ! ( ( | P P ..8.8.<.8.8.8.8.^.#.#.+.( ",
"g...o.-.3.r.W.e.#.<.,.0.-. .8.-Xw.2.#.w._.eX|.s.xX5.:.:. .l.  W ] ..f.} } d.:.} -.>.e.6.8.8.9.+.9.Z.Z.S.F.Z.W.S.R.Z.<XR.<.(.XXW.",
"D 6 x D D W S W J ,.*.( D z.S.S.r.r.z.e.z.dXJX5Xr.yXBXBXkXz.v T M D q.Y K ^ P H ] =.Z.r.z./.T.| @.,.X.@. . .o.| X.X.*.X.` @.A.D ",
": M 7 3 , : = : , : X . X v v v W ~ W ~ G.z.r.I >.@.U i 6 , 2 , = : z.-.k._.s.>.Q [ / _ _ *.B = 1 3 i 1         : : = = : 3 4 % ",
"d ) ..Y ! A ! k N C s <.B   X               . .   X 2 . . X       + < h.NXNXcXDX2 -         o - < ;   X   2 g 1 V F K K G gX%.! ",
"G ^ } ] ] ] ^ F Q [ 8 U x . @ X                         X X X X       X X   X @ X X             X X 0 ; > 7 b y ] F Q ] P GX5.F ",
"V x *./ :.4.=.c @...e 3 i   @ + X       o               X X X X X X             X     X   X O O . # # $ N D U D m I T { w.PXr.^ ",
"0 6 r 3 0 > * X 5 7 B I +   X +         #   $                     X             O o   @     .   . # $ - + 3 IXa.= < 1 6 0 3 , 1 ",
"D _.;.s u < - ; 7 s r = . $ ; , < 2 * ; < # 2 - ; ; < < < ; < < , 0 j z g < ; * ; ; # < , < < 2 1 6 < > @ < y yX*.D S s.|./ _ ~ "
};
