/* XPM */
static char *_youf_qvnh6[] = {
/* columns rows colors chars-per-pixel */
"64 64 239 2 ",
"   c #2D1419",
".  c #331619",
"X  c #391919",
"o  c #300E12",
"O  c #361D22",
"+  c #291D29",
"@  c #3D2223",
"#  c #39262C",
"$  c #3B2C33",
"%  c #332832",
"&  c #3D323A",
"*  c #2D2530",
"=  c #471B1C",
"-  c #46211C",
";  c #442A2C",
":  c #472927",
">  c #532A26",
",  c #4C322E",
"<  c #56332C",
"1  c #432E32",
"2  c #4B3333",
"3  c #4D3A3B",
"4  c #463438",
"5  c #533C3B",
"6  c #5B3C3A",
"7  c #543734",
"8  c #542E30",
"9  c #6A2A2B",
"0  c #653B35",
"q  c #723934",
"w  c #70332D",
"e  c #6C1B21",
"r  c #5A413C",
"t  c #68453C",
"y  c #76483D",
"u  c #4B3D42",
"i  c #463A46",
"p  c #533E41",
"a  c #4D4247",
"s  c #544143",
"d  c #5A4443",
"f  c #5C4A4B",
"g  c #584849",
"h  c #594E55",
"j  c #554E56",
"k  c #634A45",
"l  c #6B4B45",
"z  c #664A47",
"x  c #764B44",
"c  c #6B524C",
"v  c #66514C",
"b  c #73544C",
"n  c #7C594D",
"m  c #7A5348",
"M  c #6B5554",
"N  c #685757",
"B  c #755C55",
"V  c #7B5C54",
"C  c #765B58",
"Z  c #7A625C",
"A  c #555669",
"S  c #6C656B",
"D  c #796665",
"F  c #726B74",
"G  c #766F75",
"H  c #863734",
"J  c #875749",
"K  c #98584C",
"L  c #835D54",
"P  c #885A53",
"I  c #975A54",
"U  c #904A4A",
"Y  c #A55755",
"T  c #AB5451",
"R  c #896458",
"E  c #976759",
"W  c #95715F",
"Q  c #A76B5C",
"!  c #A4715E",
"~  c #B3675A",
"^  c #846965",
"/  c #946D64",
"(  c #997366",
")  c #857677",
"_  c #9B7A75",
"`  c #87706A",
"'  c #A76E67",
"]  c #A27464",
"[  c #AC7B6B",
"{  c #A87768",
"}  c #B77867",
"|  c #B77972",
" . c #A57B73",
".. c #C37B68",
"X. c #9F827B",
"o. c #BC826C",
"O. c #B4816E",
"+. c #AA857A",
"@. c #BB8373",
"#. c #B78878",
"$. c #BE927E",
"%. c #C2826C",
"&. c #C68978",
"*. c #C8937D",
"=. c #D9957D",
"-. c #D58A76",
";. c #E69F7E",
":. c #737387",
">. c #757EA1",
",. c #837C83",
"<. c #D17C80",
"1. c #7B819B",
"2. c #7C9CDB",
"3. c #7E9EE0",
"4. c #8A838A",
"5. c #9B949A",
"6. c #918A91",
"7. c #A78985",
"8. c #B68C82",
"9. c #B99489",
"0. c #BA9895",
"q. c #A4949A",
"w. c #B09DA9",
"e. c #A7A2AB",
"r. c #ABA9B5",
"t. c #B4ACB9",
"y. c #B6B3BA",
"u. c #B7A1AF",
"i. c #8D92A8",
"p. c #C88E84",
"a. c #CB9483",
"s. c #C89889",
"d. c #D59887",
"f. c #C79E94",
"g. c #D79590",
"h. c #E49B89",
"j. c #EE9693",
"k. c #DAA18C",
"l. c #C9A399",
"z. c #DCA493",
"x. c #D9A797",
"c. c #DFB098",
"v. c #E6A588",
"b. c #E3AC9A",
"n. c #E6A995",
"m. c #F2AD98",
"M. c #EBB29D",
"N. c #E7B19A",
"B. c #F2B39B",
"V. c #D4AAA5",
"C. c #D5B2AD",
"Z. c #E9B8A6",
"A. c #F4B3A1",
"S. c #F2BAA5",
"D. c #F4BEAA",
"F. c #FABCA9",
"G. c #F7A6A0",
"H. c #F8C1AE",
"J. c #F9C4B4",
"K. c #ECC1AF",
"L. c #809FDC",
"P. c #87A4DD",
"I. c #96AADB",
"U. c #99ABD8",
"Y. c #BBB9C6",
"T. c #A6ADD8",
"R. c #B7BDD5",
"E. c #ACB0CF",
"W. c #85A3E3",
"Q. c #89A6E4",
"!. c #8DABE4",
"~. c #8DAEEA",
"^. c #92ADE5",
"/. c #94AFE8",
"(. c #95B0E7",
"). c #9CB3E5",
"_. c #96B2EA",
"`. c #9AB5EB",
"'. c #9EB9EE",
"]. c #9DBAF1",
"[. c #96B6F1",
"{. c #8EB2EF",
"}. c #A2B5E4",
"|. c #A3BBEC",
" X c #AABDEA",
".X c #A6B8E5",
"XX c #A3BDF2",
"oX c #A7BEF3",
"OX c #809EE0",
"+X c #C1BEC7",
"@X c #D0BEC5",
"#X c #BAC1D6",
"$X c #BDC5DA",
"%X c #BBC7DD",
"&X c #BFC1CD",
"*X c #ADC0EA",
"=X c #B3C4EB",
"-X c #BDCAEC",
";X c #B8C5E6",
":X c #ABC3F4",
">X c #A7C2F8",
",X c #B5CAF6",
"<X c #B2C7F5",
"1X c #BBD0FB",
"2X c #C4C4D4",
"3X c #C3CADD",
"4X c #C8CADA",
"5X c #CFC9D4",
"6X c #C4CCE2",
"7X c #CACEE4",
"8X c #C4CDEA",
"9X c #C6D1E5",
"0X c #CCD1E5",
"qX c #C6D2EC",
"wX c #CDD3E9",
"eX c #CEDAED",
"rX c #D1D5E6",
"tX c #D2D5EC",
"yX c #D4D9EE",
"uX c #D9DAE7",
"iX c #CEDAF3",
"pX c #C6D4F4",
"aX c #D3D7F1",
"sX c #D5DBF2",
"dX c #D9DDF3",
"fX c #D8DDF8",
"gX c #DCE2F5",
"hX c #DDE4FA",
"jX c #D6E3F8",
"kX c #E1E4F6",
"lX c #E3E9F7",
"zX c #E2E6F9",
"xX c #E4EAFB",
"cX c #EAEDFC",
"vX c #E8EAF7",
"bX c #ECF2FE",
"nX c #F1F5FE",
"mX c #F4F8FE",
"MX c #E1E4EF",
/* pixels */
"aXaXtXdXfXaXaXuXaXaXtXtXaXaXaXaXgXjXkXkXfXkXzXzXcXcXbXxXdXgXyXgXkXzXvXvXcXcXxXcXlXlXlXkXvXvXcXcXxXzXzXkXkXkXzXzXzXcXvXvXvXvXcXcX",
"dXdXdXfXfXkXaXuXtXaXtXtXaXaXdXaXsXgXgXgXdXMXgXzXzXcXnXxXsXyXdXyXdXMXkXlXzXzXzXzXlXhXlXkXkXvXxXvXzXzXkXkXgXkXkXzXvXzXvXvXvXvXcXzX",
"dXuXsXaXuXaXaXtXuXtX5XtXuXaXaXkXdXsXsXgXdXdXdXgXzXxXcXzXsXwXtXaXdXdXgXgXkXkXkXzXhXlXgXgXhXkXhXzXzXzXkXkXgXgXgXgXzXzXzXzXcXcXcXzX",
"aXaXaXaXaXtXaXaXtXtXaXaXaXaXuXaXsXyXyXyXdXyXyXtXsXfXhXhXsXtXsXtXtXdXdXgXgXkXgXkXhXgXgXdXgXgXgXgXkXzXzXkXkXdXgXgXkXkXzXzXzXzXzXzX",
"aXaXtXuXtXaXtXtX7XtXtX7XtX7XaXaXwXtXtXtXtXyXtX0X0XyXhXgXdXhXdXaXwXgXgXgXdXdXgXgXgXgXMXsXyXgXgXgXMXhXgXgXgXdXgXgXhXzXzXkXzXzXzXzX",
"tXuXtXtXtXtXtX7X7XtX7X7X5XtX7XtXwXtXwXyXyXyXtX0X7XtXsXdXdXtXrXwXyXgXsXsXdXdXdXdXgXdXgXyXyXgXgXdXdXgXfXdXdXdXsXgXfXhXhXkXzXkXzXzX",
"aXuXaXaX5XtX7X7XtX7X7X7X7XaXaXtXtXwXtXyXyXtXyXeX0X0XwXwXwX7X7X7XwXsXsXyXsXdXsXsXyXjXsXsXgXgXgXsXdXgXdXsXtXyXtXsXdXhXhXkXzXfXzXkX",
"aXaXuXaXaXtX7XtX7XtX7X7X7X7X7XaXwXtXtXtXtXyXyXrX0X6X7X4XwXwXtX7XtXtXsXsXtXsXsXsXyXgXsXsXyXsXfXsXsXfXdXrX0X0X7XtXaXsXhXkXkXkXzXfX",
"dXuXaXuXtXrX7XrX7X7XwX7X7XtXtXaXtXyXtXtXwXtXrX0X9X3X2X2X0XtXrX2X7XdXdXrX0X0X0XtXtXsXtXdXdXdXsXwXaXfXsXwX7X6X7XwXaXaXfXdXhXkXzXhX",
"aXdXaXaXaXtXtX0X7X7X7X7X7X7XrXtXyXyXtXyXtXrXeX4X2X&Xy.2X0XrX2X2XtXyXtXrX2X4XrXrXrXyXsXdXgXhXgXsXaXdXsXtXtXwX7XwXtXaXsXaXaXfXhXhX",
"uXaXaXaXaXaXtX0XtX7X7X7X7X7X7XtXyXyXtXrXtXrXyX4Xe.y.r.2X4X4XY.r.7XfXuXrXY.7XtXtXwXwXtXtXsXdXsXsXwXsXaXtXwXwX7XwX7XwXwXaXtXsXfXfX",
"tXtXtXtXtXtXtXrXtX7XtX5X4X7X7XtXyXyXtXtXtXtXrXsX5.) 4.5.y.rXt.q.w.+X4X5XY.4XtXdXtXtX0X0XtXsXyXyXwXtXtX6X7X6X7X7XwX7X7X7XwXwXdXhX",
"7XtX7XtXtXrXrXtX0X0X0X0X6X3XrXtXtXsXdXdXyXyXjX9Xe.D f Z 4.6.6.,.D D G q.y.2XdXsXyXtXtXwXtXyXyXwX7X0X3X#X#X3X6X7X6XwXtXwX7XwXaXfX",
"tX5X5X7X7X7XrX7XrXwXtX0X4X3X0XtXsXdXdXfXgXjX0Xy.5.S N N N C N N N f Z D ) q.tXzXsXtXtXyXtXwXtXtXwX6X$XR.#X#X#X%X6X6X8X7X6X6X7XrX",
"aXaXaX7XrX7X0X0XtXtXyXtX0X3X7XyXdXhXgXdXyXhXY.5.G j j g f z c c v f k C N C 5.+XyXrX9XrXtXwXwXwX0X3X$X$X$X#XR.3X2X$X$X$X2X3X6X7X",
"kXdXfXaXtXyXyXyXsXdXdXgXdXtX0XyXgXrXgXgXdXgXi.S N r r v V E ' ] R P n L ^ M C ` u.2X4X9X0XtXtXwX6X3X3X$X#X#XR.R.R.R.$XR.$X3X6XwX",
"vXzXzXkXdXaXkXkXjXhXhXlXhXgXuXyXhX4X&XyXyX0X4.a s C  .#.a.a.a.d.*.@.' o.] R Z Z ^ G y.4X4XsXeXrX0X0X7X3X$X$X#X#XR.#X$XR.3X3X6X6X",
"cXcXcXzXzXkXfXzXhXlXlXlXxXxXjXdXgXgXy.y.&Xr.S r _ x.b.z.g.z.k.n.n.k.=.*.a.{ 9.W B v 4.4XdXjXMXjXsXyXtX7X6X4X3X$X2X#X$X#X$X3X6X7X",
"cXcXvXzXzXzXzXcXxXlXxXxXbXbXxXhXgXgX4Xe.4.,.N 7.Z.V.z.b.b.b.n.n.A.M.N.k.d.*.c.N.( k G &XbXbXlXlXhXhXdXtXeXeX0X9X9X6X6X3X3X6X7X7X",
"cXcXvXzXzXzXcXzXxXxXxXlXxXbXbXxXlXjXdX6.N a +.C.l.z.z.z.b.N.N.N.M.S.S.S.N.M.S.K.c.Z N 5.uXlXbXbXbXbXxXxXlXhXgXdXgXyXyXyXwXtX7XtX",
"xXxXxXzXzXzXzXzXxXxXxXxXxXbXxXbXlXbX2Xh g D C.l.g.g.x.c.N.N.M.Z.M.A.D.D.H.H.S.S.K.C.B G 5XmXvXvXbXnXnXbXbXbXbXbXcXzXzXzXfXfXgXdX",
"xXzXhXhXzXkXzXzXhXxXxXxXbXxXxXbXxXzX6.f M l.l.d.z.c.c.b.b.M.M.M.M.Z.D.D.S.H.H.H.K.J.l.N 5.+X5XMXvXbXbXbXbXbXnXnXbXnXcXcXcXcXcXzX",
"zXzXgXgXdXdXsXhXhXxXxXxXxXxXxXlX4Xr.G a _ V.l.x.x.x.z.z.k.k.b.b.d.c.N.Z.H.H.H.K.K.K.K.D N G X.y.MXvXbXbXbXbXmXnXnXmXmXnXnXbXnXnX",
"zXzXgXdXtXaXtXsXjXjXxXxXxXxXxXgX&X4.N s 9.l.f.f.a.a.*.+.R Z s.z.o.#._ / 9.f.N.M.K.K.J.l.f Z ` +XuXvXbXbXbXnXnXnXmXmXmXmXbXnXcXnX",
"hXlXjXsXwXtXwXtXdXhXzXxXbXxXhXhXr.F a R l.f.x.s.{ Z N g r 4 _ k.[ ( l M D M ` +.c.Z.K.Z.B f G y.uXkXnXcXxXbXbXbXmXmXmXmXnXcXcXnX",
"hXhXgXyXtXwX0XwXsXsXxXxXxXxXxXjX4.j s 7.u.f.8.D a & $ $ 1 1 n s.8.E r d k 5 3 f D 7.C.K.X.r Z 5.rXvXnXcXcXbXcXbXbXnXmXnXmXnXnXcX",
"fXgXgXsXtXwX7X7XwXtXjXxXxXxXhXrXF & f 9.l.7.h & % % % # ; 5 x #.c.( x t 7 # * & r N ` C.0.r N ) C.lXbXcXcXxXvXbXcXcXbXcXnXnXcXcX",
"sXsXfXfXyX0X7X6X3X0XfXhXxXhXjXgXS & N 0.7.u 4 5 2 7 8 0 y x J &.S.d.J y q 0 t x n B r ` c.N j G &XgXbXvXbXvXlXlXzXcXcXcXcXcXnXcX",
"dXsXaXsXaXrX6X3X$X3XyXhXhXhXgXfXS & N 0.S 1 m P I I U t q w K z.A.J.Q < t y Q Q O.o.W v l.Z g 1.uXxXbXbXbXlXgXgXkXzXvXcXcXcXcXcX",
"dXfXfXfXfXaX0X3X3X9XtXyXyXjXhXyXA * D 0.f l / Q ! E x 0 < < I d.A.F.&.9 0 0 m ] O.o.$.W 0.X.r F uXbXbXbXxXkXMXgXdXkXzXvXvXvXcXcX",
"hXfXzXfXaXaXtX0X%X%X6X9X6X9XsXyXj * D 0.n R / m t 2 : 8 > x | g.F.F.A.x 8 7 ; 8 y E O.O.9.7.i a Y.bXcXbXxXvXuXdXdXdXdXdXzXzXcXcX",
"hXhXzXfXwXtXtX6X9X6X6X%X9X%X9X9Xj + ) 9.P P l 0 6 p l y m ' &.b.F.J.J.p.U x x P R R W $.k.0.a a e.bXbXlXvXkXgXdXMXdXdXdXzXkXzXzX",
"iXsXgXyXeXrX0X3X%X9X9X9X0X9X9X9XA + ) 9.( R R P I E ' | | &.s.j.G.G.F.m.j.a.o.} } *.c.c.c.l.f S 4XbXxXxXlXgXgXyXdXMXMXgXjXgXlXxX",
"6XqX9X-X-X9XrX9X-X9X9X9XrXeXeXjX:.* _ 9.O.8.+.| &.a.a.p.&.p.p.-.d.d.h.m.A.F.Z.A.N.M.Z.Z.N.K.N :.xXbXbXxXcXzXgXdXdXeXeXdXlXcXxXxX",
".X;X%X;X%X;X9XeXeXyXeX9X9XeXeXjX1.* 7.f.s.f.z.z.n.h.n.d.p.d.} } ......-.F.F.S.F.H.H.H.H.Z.K.X.j eXbXbXbXxXxXjXgXyXdXjXMXhXxXhXzX",
"I.U.U.}.*X.X.X9XeXgXjXjXeXeXeXjXE.i 7.f.9.g.b.b.b.b.j...&.K = U ~ ~ w H m.A.F.F.H.H.H.S.Z.Z.l.F eXxXxXxXlXlXlXgXyXMXgXeXsXgXgXkX",
"^.I.I.I.).).T..X-XyXjXjXiXeXeXjX%XN 0.0.s.l.g.n.n.h...~ ~ q U I K ~ I H -.v.v.B.H.H.H.K.Z.c.l.X.MXlXlXbXzXhXlXlXgXsXyXwX0XwXfXgX",
" X XI.I.I.U..X*X;XeXiXjXeXeXiXxXr.C f.9.s.p.a.d.d...~ &.( x m I K E ] Q m.m.-.;.B.B.B.M.c.c.C.W s.jXhXxXlXgXgXhXgXtX7X6X3X3XwXaX",
".X.X^.I.U..X*X;X=XpXjXhXiXiXjXuXY D s.8.p.p.d.-...} | ( p 8 7 6 0 y V E a.S.m.=.=.n.N.N.c.c.c.W &.hXjXhXhXjXgXwXsXyX0X$X#X#X9XaX",
"P.^.).).}. X*X=X=XpXjXhXjXiXiX5XU D 8. .#.$.&...o.] b 5 1 1 i 1 2 r l k l [ *.m.n.;.n.c.c.k.f.O.s.hXcXxXxXjX0X3XwXsXwX3X%X3X0XtX",
"^.I.).}..X|.).}.).}.;XeXiXpXpX4XT D ,.| 8.| | } / c 6 l V P I ' Q E E ( / R m ] a.B.k.k.$.$.9.X.V.xXbXbXhXtX6X3XwXaXdXtXwX7XtX7X",
"W.!.^.!.Q.P.P.P.P.I.P.).*X*X*X*X' C C ^ / } o.E l 6 l I Y Y T T ~ T ~ ..&.*.R c L a.c.=.+.X.X.Z @XiXhXjXtX7X6XfXhXgXdXwX7X6X6X6X",
"2.2.2.2.2.2.L.L.P.2.2.2.P.3.P.~.q.p p v R { { l 6 0 J H 9 9 w q w 9 H H H ~ { n n W c.*.W B B W 5X6X6X3X;X#X6XdXfXhXsX6X$X3X;XR.",
"2.2.2.2.2.2.2.2.2.2.2.2.2.2.2.3.u.p i p b { W t 0 q q 9 w U Y I Y Y Y H w e H J y R *.$.X.N v R C.7X9X6X%X%X3X%X3X0X0XwX0X;X$X6X",
"2.2.2.OX2.2.OXOX3.P.P.3.P.P.Q._.u.s 4 a l / / r 0 q 9 x ..<.<.h.<.j.G.m.j.| K K n m *.$.Z B j Z V.wX0XwXwX9X9X9XwXwXwXwXhXaXwXwX",
"OXOXOXW.W.W.OXP.Q.I.!.^.^.(._.].u.k a 4 p L R t x ! #.s.g.....} ~ ..-.g.m.F.H.n.O.E $.$.B c N G rXyXyXwXwXsXwX6X6X7X9XaXzXdXtXsX",
"W.W.W.Q.Q.!.Q.!.P.^.I.(.`.'. X:X;XF r r 3 b E J R @.&.*.| ' R y 0 x I &.d.n.B.B.k.W o.#.B v B X.iXyXjXsXwXfXwX6X6X6X$X7XsXfX7XwX",
"W.Q.W.W.P.Q.!.^.(.(.`.'.|.|.oX X1X>.3 3 2 k L n R O.#.@.} ' J t z q Y | =.d.n.B.=.X.X.W B B c 5.iXsXxXgXsXsXyXwX8X6X6X6XwXfXaXwX",
"~.W.W.W.W.W.!.Q.^.^._.|.|.|.|.|.,Xi.& 4 p z l x n ( O.o.o.o.Q I J E o.%.*.;.;.;.*.R R R M M M 6.jXsXsXfXfXaXtX0X7X8X6X;XwXfXaXwX",
"~.~.~.~.^.^.^.!.Q.^.^.^./.'.'.|.oXI.i u s 0 6 t n R E { o.o.&.&.o.*.k.k.k.c.*.*.] b b Z k v C r.jXjXyXsXdXqXwX8XwXwX6X6XwXdX8XaX",
"/././././._._._._.)././.`.`.'.XXoXXXj 4 6 3 r k t k b / { #.s.s.s.*.k.z.*.$.$.X.R v k v s f M R.jXeXfXsXfXfXdXaX7X9XwXqXwXfX8X7X",
"^.)./././.)._.`.|.|.'.'.'.`.'.`.[.oX>.i 1 2 5 2 2 r d k v / { O.#.] O.X.W R W D Z c k d d d S 8XfXiXiXsXiXfXhXfXfXaX9XwXaXwXfXaX",
"/./._.XX]./._.)._.`.`.`.`.`._._._.[.P.i 4 4 1 8 3 4 3 r v B ( ] P R { B n W B B c c t r p d :.1X=X-XqXqX9XiXdXfXzXfXwXqXfXfXfXfX",
"^.^.^.^././._./.(.(.(.(.(._.[._._.`.XXA # 1 ; # $ 4 & 4 r l B R x b L m n Z B t v t r a 5 i U.<X*X*X*X*X-X8X-XqXfXaXqXdXwXpXfXfX",
"^.~.~.!.!.!.!.^.!.!.^.(._._.`.'.`.XXXXU.i # # # $ ; $ r r r r t k 6 k t r t c r r r r r 7 :.>X|.|.|..X.X X;X;X-X8XpXwXfXfXfXxXxX",
"^.^./.^.^.^.~.^.(.(._._.`.'.'.'.].`.XX}.h % # # @ $ , , , 7 7 r , , 7 2 r r r r r r 2 4 l E.].`.|.|. X*X*X=X-XqXqXpXfXfXfXzXxXcX",
"_._.`.`.'.`.`.'.'.'.XX'.XX|.'.].'.].].}.^ 4 % # @ @ ; @ @ : , , : : : < , ; 7 , , , 1 2 O.R.[.'.`.|.|.|.=X X XpXpXaXfXiXfXfXfXfX",
"`.'.`.XX'.|.|.|.*X|.*X|.|.:X:XoXXX>X>X.X/ z # O +   # # @ @ @ @ @ @ @ : - @ @ : : # ; n *.T.[._.`.).|.`. X X X X=X-X-X8X-X-X-X-X",
" X|.|.|.oX|. X|.'.:X:X'.|.oX`.].].XX>X X_ b 8 + +   @ @     X X X X . . . X @ @ @ : y W *.R.].`.`././.).}.}.}.`.).}..X.X.X).).}.",
",X<X,X<XoX,X1X<X:X<X:X:X<X1X<XoX>X>X>X|._ x l 7 @ O   X   X X o X X . X o X X @ : y W O.d..X].].].].].`.|.|.|.}.|.|.|.).).)././.",
"<X<X,X,X|.:XpX,X1X,XXXoX<X<X>X>X>X:X>X*XO.J m t r -       X X - - - - - . X X , y R O.&.p.T.{.~.{./.^.!./.!././.Q.^.^.^.~.^.^./.",
"`.XX|.oX:X:X>XXX'.].`._._._.[.[.[.[.>X'.O.W n t r < , : X X X X o o o X X > y L W ! o.%.d.V.t.E.^./.~.~.~.~.Q.~.^.^.^.^./././.).",
"'.].'.].XXXX].XXoXXX].XXXXXX].XX].XXr.6.X.E m y t m y t 0 < < - - - - < y R W ! { o.%.-.d.h.;.h.z.V.t.E.}.`.`.XX[.`.`.|.|.XXoX|.",
"].XX|.].'.XXXXXXXX>X>XoX>X>X>XoXE.0.+.O.O.O.O.J J y y m y y t w 0 w y J ! ! ! O.o.%.%.=.;.v.v.;.=.;.v.h.j.g.V.u.+X.X|.oXXX XoXoX"
};
