/* XPM */
static char *oolqa_b9oo9[] = {
/* columns rows colors chars-per-pixel */
"64 64 229 2 ",
"   c #0E0F11",
".  c #0D1215",
"X  c #0D151B",
"o  c #111215",
"O  c #11161A",
"+  c #14191D",
"@  c #1A1A1D",
"#  c #19161A",
"$  c #0D0D0F",
"%  c #151C22",
"&  c #191E23",
"*  c #0C1D27",
"=  c #172026",
"-  c #1A2126",
";  c #16242C",
":  c #1B242A",
">  c #1D282E",
",  c #1D2A33",
"<  c #1D2E39",
"1  c #1A2833",
"2  c #1F313B",
"3  c #21262C",
"4  c #22292E",
"5  c #222C34",
"6  c #222F39",
"7  c #282D33",
"8  c #243036",
"9  c #24323B",
"0  c #2A343C",
"q  c #2B373D",
"w  c #30373F",
"e  c #183B4B",
"r  c #243642",
"t  c #2B3741",
"y  c #263945",
"u  c #2C3B44",
"i  c #2B3D4B",
"p  c #273A48",
"a  c #313D45",
"s  c #383E44",
"d  c #1D4656",
"f  c #2E414E",
"g  c #34424C",
"h  c #38444D",
"j  c #334047",
"k  c #2E4251",
"l  c #264A58",
"z  c #324554",
"x  c #354856",
"c  c #3A4B56",
"v  c #364A5A",
"b  c #3A4D5B",
"n  c #3C515F",
"m  c #365256",
"M  c #1E5166",
"N  c #25556A",
"B  c #3D5362",
"V  c #395566",
"C  c #3E4F60",
"Z  c #42525C",
"A  c #4A5358",
"S  c #55595D",
"D  c #444A4F",
"F  c #425564",
"G  c #445966",
"H  c #4A5A65",
"J  c #455C6B",
"K  c #4A5D6C",
"L  c #485763",
"P  c #505E6B",
"I  c #4B606E",
"U  c #45606F",
"Y  c #52626C",
"T  c #59676A",
"R  c #456172",
"E  c #4C6373",
"W  c #4D6877",
"Q  c #4B6679",
"!  c #4E697B",
"~  c #44657D",
"^  c #526574",
"/  c #546876",
"(  c #596A75",
")  c #536C7C",
"_  c #5A6D7C",
"`  c #536778",
"'  c #5B717F",
"]  c #56707F",
"[  c #63676B",
"{  c #686D71",
"}  c #68737A",
"|  c #78797A",
" . c #266882",
".. c #28728D",
"X. c #2B7895",
"o. c #31758F",
"O. c #536E81",
"+. c #5E6F80",
"@. c #567183",
"#. c #5B7384",
"$. c #5C7689",
"%. c #5E798C",
"&. c #577589",
"*. c #56738C",
"=. c #627584",
"-. c #637887",
";. c #637B8C",
":. c #6B7D8B",
">. c #677886",
",. c #787E82",
"<. c #637D92",
"1. c #697F91",
"2. c #2E90B2",
"3. c #6C818E",
"4. c #798389",
"5. c #668195",
"6. c #6B8395",
"7. c #668398",
"8. c #6B859A",
"9. c #6E899D",
"0. c #718494",
"q. c #738897",
"w. c #738A9C",
"e. c #7A8D9C",
"r. c #798A95",
"t. c #7D919E",
"y. c #6787A5",
"u. c #748DA1",
"i. c #798EA2",
"p. c #7C92A4",
"a. c #7C95A9",
"s. c #7996AA",
"d. c #7EA1B9",
"f. c #339DC3",
"g. c #2F9AC4",
"h. c #34A5CB",
"j. c #37B2DB",
"k. c #3AB8E5",
"l. c #3DC1EE",
"z. c #898B8C",
"x. c #848E96",
"c. c #82929D",
"v. c #8B969B",
"b. c #96989A",
"n. c #8295A4",
"m. c #8598A5",
"M. c #8A9AA5",
"N. c #8197A9",
"B. c #849AAC",
"V. c #8C9DAB",
"C. c #959EA5",
"Z. c #829EB2",
"A. c #8EA1AC",
"S. c #92A2AC",
"D. c #9AA5AE",
"F. c #99A3A8",
"G. c #89A4B7",
"H. c #95A5B1",
"J. c #9DABB4",
"K. c #99ABB8",
"L. c #9DB2BF",
"P. c #A8A9AA",
"I. c #A3ADB5",
"U. c #A5B2BB",
"Y. c #ABB5BB",
"T. c #B1B6BB",
"R. c #B2B9BD",
"E. c #BCBCBD",
"W. c #B3B4B3",
"Q. c #C0BDBC",
"!. c #BDC0BD",
"~. c #C2C1BF",
"^. c #8AA9C2",
"/. c #98B4C8",
"(. c #95B9D6",
"). c #92AFC1",
"_. c #ADBAC3",
"`. c #A7BAC7",
"'. c #B2BCC4",
"]. c #B9BEC3",
"[. c #A2BFD0",
"{. c #9AC5D9",
"}. c #BAC3C9",
"|. c #A8C6DA",
" X c #B5CAD7",
".X c #B2C9D5",
"XX c #BAD7E7",
"oX c #B2D4EA",
"OX c #C4C4C4",
"+X c #C5C8CC",
"@X c #CDCCCD",
"#X c #C8C7C7",
"$X c #C2CCD2",
"%X c #C7D0D6",
"&X c #CBD2D6",
"*X c #CAD4DA",
"=X c #D3D3D4",
"-X c #D4D9DD",
";X c #DCDCDC",
":X c #D4D8D8",
">X c #D1D0CE",
",X c #E0DFDE",
"<X c #E1E0DF",
"1X c #C3DBE9",
"2X c #D6DEE2",
"3X c #DADEE2",
"4X c #E0DFE0",
"5X c #C6E5EC",
"6X c #DCE1E4",
"7X c #D8E4EA",
"8X c #C7E6F3",
"9X c #D3E9F4",
"0X c #D0E9F7",
"qX c #DEF0F9",
"wX c #E4E4E4",
"eX c #E2E6E9",
"rX c #E6EAEC",
"tX c #EBECEC",
"yX c #E9E8E8",
"uX c #F0EFEE",
"iX c #F1F1EF",
"pX c #EBEEF1",
"aX c #EDF1F3",
"sX c #E7F9FB",
"dX c #F3F3F3",
"fX c #F5FAFB",
"gX c #FEFEFE",
"hX c #F7F8F7",
"jX c #F0F0F0",
/* pixels */
"9 2 r r y u i z x z v b Z F G P ^ ^ / / ^ ( ` ^ P P E P E ^ P P ^ ^ ` ` ^ P ^ P P K K K H K L G F b b v x x z z i i y r r 6 6 < ",
"9 r r y u i g x c c Z F G K P ^ ^ _ >.>.} _ _ +.+._ _ _ ` _ +._ =.+.+.+.+.+.+.+./ / K E K H K G F F F Z b v x b x i i p y r r 9 ",
"9 r y i i z i b Z b L H P ( E 0.'.;XtXaXeX&XD.;.$.=.+.+.#.+.=.>.+.:.x.:.+.=.=.+._ _ E E E R K G F J F C n b b b x z i u y r r r ",
"r y p j i z x C n F G K _ _ I.hXgXgXgXgXgXgXgXwXc.>.:.>.=.=.=.+.V.wXhXpXI.:.:.:.-.' ` ` ^ E E K J J J F B C b C x z i i p r r r ",
"y p i f f g x Z F G K ^ ` I.gXgXgXgXgXgXgXgXgXgXpXx.:.1.:.:.:.'.gXgXgXgXhX*Xc.:.:.;.] _ / ) W U J K J G F B C B C i i i p p y r ",
"p p y f k g x F F K ^ _ >.dXgXgXgXgXgXgXgXgXgXgXgX].1.e.0.c.-XgXgXgXgXgXhXgXdXU.3.5.-.=.] ] ] E E R R H G B F F n v z i p i p p ",
"p i i f z z b F L K ^ ` r.gXgXgXgXgXgXgXgXgXgXgXgX-X0.w.I.dXgXgXgXeXD.$XgXgXgXgX:Xc.$.;.#.' ] W Q Q R R J J V G C n v i i p y p ",
"i i f k z v b F G K ^ _ :.pXgXgXgXgXgXgXgXgXgXgXgX'.q.$XgXgXgXgX$XM.p.i.I.rXgXhXgXdXU.-.3.%.&.! ` O.E ) J V F J v n C i v p p p ",
"i i i k x b n G K E ` +.#.U.gXgXgXgXgXgXgXgXgXgXrXH.7XgXgXgXtXU.i.B.n.i.9.w.$XgXgXgXgX+X$.%.$.) ) #.W O.U U G G n B n i z i i i ",
"i z i k z b B G K E ^ _ ;.>.U.hXgXgXgXgXgXgXgX3X}.dXgXgXgXgX2XB.n.B.p.u.w.i.w.H.eXgXgX%X%.5.%.) ) $.Q O.R R V J B V b z v i i i ",
"i i k z v v n G K K Q ) #.;.$.c.}.2XpXtXtX*X_.&XgXgXgXgXgXgXgXhX'.B.i.i.p.i.p.w.p.K.H.5.%.%.%.@.@.%.O.O.R R J R B B B k C i i i ",
"i z f x b b n J J K E ) +.$.;.<.5.w.m.m.w.H.eXgXgXgXgXgXgXgXgXgXgX2XH.a.a.p.i.e.p.6.<.5.5.5.%.@.@.%.O.#.Q R R J B V G v v i i i ",
"i i i v v v n U J J E ) @.$.&.1.w.w.p.t.'.gXgXgXgXgXgXgXgXgXgXgXgXgXhX}.a.p.a.i.e.9.7.5.%.%.%.@.#.;.@.&.Q R J J V J V v v k i i ",
"i z z v b b B J I K E ` O.@.O.;.6.w.w.L.gXgXgXgXgXgXgXgXgXgXgXgXgXgXgXgX2XH.i.p.w.9.6.5.5.5.5.$.@.! @.-.` R G R F V v v z i k i ",
"z i z v b n B K J E E Q O.O.O.%.6.q.w.$XgXgXgX;XgXgXgXgXgXgXgXgXgXgXgXgXgXhX}.a.i.e.8.6.5.5.5.#.m.U.p.-.O.Q E E J V V v V k k i ",
"i v i z v b B J J J R E ! O.@.<.6.9.t.rXgXgXaXm.L.tXgXgXgXgXgXgXgXgXgXgXgXgXgX6XS.9.w.w.6.6.5.A.gXgXgXt.Q ^ R R V C v v i k i i ",
"v x i Z b F C R J I I W ) @.%.;.q.q.S.gXgXgX-Xa.B.V.&XgXgXhXgXgXhXgXgXgXfXgXhXgXhX}.t.w.w.u.6.;XgXhXgXr.) ) U I G V v v l k f i ",
"i x v v b K F ` I I E ! ] %.6.3.e.6.}.gXdXgX'.p.B.B.p._.rXgXhXhXhXhXhXhXhXgXgXdXfXgX6XH.t.t.H.gXfXgX&X#.#.W I I G V v v x k k i ",
"i x Z Z v K F ` I I E ) @.%.q.6.t.+XhXdXgXaXV.p.i.n.N.N.B.$XdXhXhXhXdXhXfXwX%XgXhXdXgXdX}.w.%XgXdXgXV.#.] ) I U G B n x z k k i ",
"x x v i b K F ` I I / _ #.3.3.m.7XgXiXfXrXH.e.i.w.i.i.N.N.n.U.7XdXdXdXpXgX'.s.Y.rXfXaXtXgX6XtXdXdX3X;.=.] W U I V V n v v k k i ",
"v i i v v K C ` J I ` ] #.-._.tXdXtXhX*Xp.6.w.9.1.u.y.N.u.p.p.H.jXjXpXdX7Xa.G.s.m.+XdXdXtXdXdXtXhXI.] #.) E J U B n v l k f i i ",
"s x v v b K C _ I ` ] ' :.}.dXtXuXpXY.q.8.w.w.w.8.w.w.i.i.N.N.'.dXyXyXdX}.s.a.s.p.w.D.6XdXyXyXtXeX6.$.@.) Q U U G V v v l k k i ",
"i v z v b F B +.I E ) } *XiXwXuX-XA.0.w.8.9.9.9.y.u.y.p.i.p.N.%XuXwXyX3XA.s.s.w.u.e.7.e.}.rXtXiXU.$.-.@.! R R U V V n v k k i i ",
"i i i v b n F ) I ^ ) ' }.tXwX].q.3.q.5.5.8.9.7.8.u.u.a.i.a.V.3XwXwXyX'.a.p.s.9.8.9.7.6.:.m.J.t.$.$.@.) Q Q U U F F b v k l f i ",
"i b v v v B B ) K ^ ` ) =.p.r.;.0.3.6.5.<.8.y.<.8.y.w.p.i.u.J.wX;X<X2XV.N.u.u.u.y.<.<.<.7.<.%.*.&.#.O.Q Q ~ J R F V V z z k i k ",
"i i b i v n B E K Q Q ` #.#.O.<.5.5.5.5.<.7.<.<.<.7.8.u.u.u.'.4X;X4X'.N.n.1.y.u.1.7.<.<.<.<.<.#.O.O.O.O.Q R J J F V v z l i i i ",
"i i i Z b B C K J E ^ ` #.$.*.$.;.%.5.5.<.7.8.<.7.8.u.u.p.n.&X:X=X;X_.B.N.p.u.w.8.8.%.<.$.%.%.*.O.O.O.O.Q R J R F V v z l z k i ",
"i i i v v B C R R U E W O.#.O.%.%.%.5.%.<.<.1.7.7.8.8.u.i.i._.=X=X>X=X'.V.i.i.w.8.8.<.<.%.%.%.O.O.O.O.O.R R J R G V v k z z i i ",
"i i i v v C C R K E E W @.&.@.*.%.5.<.%.<.5.7.1.7.8.8.u.i.i.p.H.+X>X@X>X+XJ.n.u.w.9.1.<.%.%.%.O.O.O.O.O.R R J J V V v v z k k i ",
"i z z v v C C J K E ` ) @.@.O.&.%.%.5.%.%.5.7.5.7.8.8.w.u.u.i.i.N._.#X#X+X@XT.N.w.i.1.7.<.<.%.O.O.O.O.Q Q R R J V V v z v k i i ",
"i i v v C C V J K E E ` @.@.! &.%.%.%.5.%.7.7.5.8.8.8.8.u.u.u.i.N.N.H.].OX~.OX~.H.u.8.y.<.<.$.&.O.O.O.! Q R V J J C n v z l k i ",
"i v z v v C C J K J I E ) @.O.@.%.%.%.%.%.5.5.5.5.8.8.8.y.u.u.8.p.N.N.N.U.~.Q.Q.OXI.r.1.<.<.%.O.O.O.O.Q R ~ R J V v v v i i i i ",
"i i i v b b n J J K R E ` O.) O.#.%.%.%.$.<.<.<.<.1.1.1.1.u.u.u.i.N.N.i.i.V.T.E.W.E.W.6.5.-.&.O.) O.! Q R R J G B b v k k f i i ",
"i v i z x b b G J H K E Q O.! O.@.#.$.#.$.;.<.;.<.1.1.w.u.u.1.1.w.i.p.i.n.u.c.C.W.W.F.1.;.%.&.O.! ! ! Q R V V G n x x k i i i p ",
"i i i x x v C F G J J K ` ) Q ) @.#.#.@.#.%.<.%.<.<.1.1.N.D.C.C.D.I.D.i.e.r.w.1.w.r.-.-.%.#.@.W W W Q R R J B B n v x z i i i p ",
"i i i z z x v F F G J J E E E ) ) ] #.#.O.#.;.=.<.1.1.1.T.OXOXOXQ.Q.Q.c.1.1.1.1.;.%.#.#.#.@.O.W R E R J J V B n n l k k k i p p ",
"i u i i k z v C F F F F K E W ^ ) ) ] #.O.+.&.#.;.1.1.w.T.#XOXOX#X#XOXc.1.:.1.:.$.=.#.] @.) ) W E U K G B B B b v z z i i i p r ",
"i i i i g x x Z F F F J I E E ^ ` ) ) #.#.+.=.=.<.1.r.e.].>X@X>X@X@X@XM.e.1.1.=.=.#._ ) ) W W E E K J J G B B B v v z z i i p y ",
"t i i i k z z n C C F F J E K E / ` / ] +.+.=.>.+.>.1.1.].;X=X=X=X=X=Xp.6.;.=.=.#.' ) ` ) W E I K J G G B B b b v z i i i p r r ",
"r u i i f z z b B n F F H K K K / / ` _ +.+.+.>.I.'.'.].=X4X;X;X;X;X3X].'.Y.'.p.] ' / ^ E I I I J J G V B B b v v i i i p y r r ",
"6 r y p i f j x b b b n F H H R I / ` ) _ _ _ _ M.pXtXyXwXwXwXwXwXwXwXtXyXdX}.=.] ) / ^ E I I K H F F F b b x x z i i p y r r < ",
"2 r y y i i g x b b b b C B B B G L G J J K ^ _ _ C.tXyXtXtXtXtXtXtXyXyXtX+X>.#.] Y K G F n n n v v x x x b x z v i p y y r 6 < ",
"9 r r p i i i i f f z c F Y ( 3.e.m.A.K./.`.'..XXX X9XdXuXdXuXjXuXuXtXhXpX1XXX1X XXX X.X.X`.U.H.V.t.-.^ B x f f i u i y r r < 2 ",
"< 9 r 6 , u c ^ 3.c.J.{.XXXXXX1XXXoX|.{./.^.^.^.Z.Z.a.'.hXdXdXdXdXdXgX2Xm.a.p.a.N.s.B.G././.|.oX1X0XqXqX9X%XY.M.=.F p < < r 6 < ",
"9 2 9 Z x.`. XXX8X8XoX{.^.s.7.=.+.` ^ H J K K K P / +.} '.gXhXfXfXgXwX:._ ( Y K K L F F B B G J R W &.9.G.oX0XsXfXrX&XA.I p 2 < ",
"2 m Y.aX9X5X5X5X(.y.*.U R J F F F F K K F H K K K ^ / +.( R.gXgXgXyX:.( ( ^ I K J H Z F F Z Z c c b m z x V ! d.oX5XsXgXhX_.x < ",
"2 3.gXfX5X7XsX5X<.O.~ *.I m c b F F L L Z L H K H I Y ^ _ Y ].gXtX,.` / Y H L L F F b F b Z b c x z x z g f l *.(.oX{.0XgXsXF , ",
"2 f r.:XgXgXgXsX1X).y.<.*.E b x c x c Z Z F L L H H K Y ^ Y Y R.4.H / Y P H L L F Z b b b x c i j f f f V  .y.(.oXoX7X2XD.Z 2 , ",
"> , 1 9 H x.}.-XaXfXsX0XXXoX(.G.s.5.&.W F F n c x v c b b Z Z h c Z n m c x x h x x g z v V V E O.7.s.^.|.oXXX.XI.x.T u 1 , > ; ",
"; > , 1 ; ; 1 f Z ] r.S.}. X*X7X9X0X0X8X1XXXXX|.[.`.).K.H.G.Z.B.V.B.m.B.B.B.G.G.G.L.)././.`.|.`./.L.S.t.} Y h u , ; ; , 5 1 > ; ",
"> > ; > 8 8 9 9 9 < , < r u f c A Y ( } >.4.r.x.M.M.S.S.S.S.S.S.S.A.A.M.M.c.c.r.0.3.} ( Y L Z g j q 9 2 , < , 9 5 8 , , > > ; ; ",
"= = ; 5 4 > 8 9 9 q q q a i u u j j q r i 0 w i t a u u u u u u j u j u j u u u a q q u a u u u y u u q t 0 9 9 , , > ; ; : : = ",
"= = : > > > 5 8 5 0 9 9 u u u a a t o.2.f.h.N a h h h h h g g g g g g h g h h g j j j j i a u t q y q 9 9 8 8 5 > , > ; > ; = = ",
"+ + = : : > 5 , 7 6 9 0 q 9 q 5 N f.2.i y X.k.V u j j a s i a a u u i a a u j a j j u j u t u 0 9 9 9 9 8 8 , > 5 > > : ; = % % ",
"+ * = = = : > > : > 5 & ; 0 5 l k...3 0 t 3 2.2.5 u 9 0 5 1 q t q 0 q 8 q u q q w u 8 8 6 t 0 6 9 8 , 5 , 5 5 7 > : ; = = % % % ",
"= + % % = - > + v.@XE.~.{ , 1 f.2.- t 0 q 7  .h.; z.=X!.#Xb.a , [ E.E.=XE.E.{ 5 j ; 4.,XS > t 0 = z.R.5 5 > 8 j > ; = % % * + + ",
"+ % + % % = ; . W.wX# z.gXD e k.d 4 0 0 7 9 N h.% P.hX4 | hX[ : s 0 { gX} 7 a 7 5 t =X4X].3 0 0 @ F.>X3 : > ; = % % % % % % X + ",
"+ + + & % % = . b.=X,.W.P.& N j.; 7 6 5 6 4 N 2.. C.dXW.#XF.a 6 0 : S hXS : 0 0 % b.E.| tXS & 0 @ z.W.3 > : = = = % % % + + + + ",
"+ + + + & % = . z.Q.S D % O 2.g.% 7 5 4 7 @ 2...$ v.;X,.wXD % t 0 : S uXS : 0 : a @Xz.,.~.P.3 4 + z.P.- = = = = % % % + + + X O ",
"O O + + + + = X ,.P.o O > O ..g.1 & 3 5 @ d h., % ,.].# | #XD & 5 & D +XA % 7 + z.b.+ $ [ W.A & + { F.| | [ + % % % + + + O O X ",
"o o O + O + @ + & 3 - - = @ e k.M r % # e k.M & 3 7 7 3 & 0 0 3 3 5 4 7 3 3 : 3 7 : 3 5 - 3 4 ; = : : 4 > : % @ % + + + O + X . ",
". O O O O O O + + + @ & & - O ..g. ...g.k.M # 3 - - & 3 4 & & 3 : 3 & & : : & : & & : & - - % = & % % + + % % @ + O O O o o o . ",
"  o . X O O + O + + + + & & & O M X.o. .r o 3 : : & 3 & 3 3 3 3 & : - 3 & 3 : & - 3 - = - - - @ & % @ & @ @ + O O X O o . . .   ",
"$   . o o o O O O + + + + % % @ o # % o & & & : & 3 & & & & & & & & - - - - & & & - & & & @ % % @ @ + + O + O O O O . o . . $   "
};
