/* XPM */
static char *_x7ak_tqu1o[] = {
/* columns rows colors chars-per-pixel */
"128 128 92 1 ",
"  c #000000",
". c #000C00",
"X c #021402",
"o c #081406",
"O c #021B02",
"+ c #081A06",
"@ c #061609",
"# c #0A160C",
"$ c #061A08",
"% c #0B1C0A",
"& c #0F1C10",
"* c #17171A",
"= c #1A1019",
"- c #022402",
"; c #082506",
": c #032C03",
"> c #07240A",
", c #0C200B",
"< c #0A2A0B",
"1 c #10210E",
"2 c #023302",
"3 c #013C01",
"4 c #07320B",
"5 c #0F2311",
"6 c #0E2812",
"7 c #122313",
"8 c #192017",
"9 c #122913",
"0 c #1A2718",
"q c #1D301F",
"w c #271024",
"e c #221A20",
"r c #2F1635",
"t c #2B1834",
"y c #311C34",
"u c #3F1A3B",
"i c #28242D",
"p c #253425",
"a c #323C2F",
"s c #352037",
"d c #332D35",
"f c #382B35",
"g c #382D3D",
"h c #2F3C35",
"j c #343033",
"k c #373038",
"l c #401B3C",
"z c #014300",
"x c #024B01",
"c c #054908",
"v c #0A4909",
"b c #025302",
"n c #015B01",
"m c #055508",
"M c #095B08",
"N c #006301",
"B c #006B00",
"V c #056608",
"C c #017301",
"Z c #007C00",
"A c #331C44",
"S c #3A1B45",
"D c #3E2B43",
"F c #471D47",
"G c #422549",
"H c #492256",
"J c #008400",
"K c #008B00",
"L c #088806",
"P c #098B0C",
"I c #009300",
"U c #0B9007",
"Y c #009D00",
"T c #00A300",
"R c #0AA306",
"E c #00AA00",
"W c #08AF0B",
"Q c #00B300",
"! c #00BC00",
"~ c #0AB00B",
"^ c #0BB80D",
"/ c #00C400",
"( c #00CE00",
") c #00D500",
"_ c #00DA00",
"` c #00E400",
"' c #00EC00",
"] c #00F300",
"[ c #00FE00",
"{ c #AD3EAE",
"} c #B542B7",
"| c None",
/* pixels */
"                                                  .....X..X.X.X......... ...                                                    ",
" ||||||||||||||||||||||||||||||||||||||||||||O-OXxQ]]]]']]']]''```_)(/QTIT(Tn-XXt|||||||||||||||||||||||||||||||||||||||||||||| ",
" |||||||||||||||||||||||||||||||||||||||||OO-bK/']][[[[[[[[[[[]][[[[[[[]]][]]](K3OX|||||||||||||||||||||||||||||||||||||||||||| ",
" ||||||||||||||||||||||||||||||||||||||$O-BQ']][[[[[[[[[[[[[[[][[[[[[[[[[[[[[[[]]_I3O@||||||||||||||||||||||||||||||||||||||||| ",
" ||||||||||||||||||||||||||||||||||||O-NQ'][[[[[[[[[[[[[[[[[[[][[[[[[[[[[[[[[[[[[[]])Z-o||||||||||||||||||||||||||||||||||||||| ",
" ||||||||||||||||||||||||||||||||||$-K_]][[[[[[[[[[[[[[[[[[[[[[][[[[[[[[[[[[[[[[[[[[]]`Y2o||||||||||||||||||||||||||||||||||||| ",
" ||||||||||||||||||||||||||||||||$2T'][[[[[[[[[[[[[[[[[[[[[[[[[][[[[[[[[[[[[[[[[[[[[[[[]]E3o||||||||||||||||||||||||||||||||||| ",
" ||||||||||||||||||||||||||||||$:Y]][[[[[[[[[[[[[[[[[[[[[[[[[[][[[[[[[[[[[[[[[[[[[[[[[[[[]]E2Xw|||||||||||||||||||||||||||||||| ",
" ||||||||||||||||||||||||||||A:K'][[[[[[[[[[[[[[[[[[[[[[[[[[[[]][[[[[[[[[[[[[[[[[[[[[[[[[[[]')C0||||||||||||||||||||||||||||||| ",
" |||||||||||||||||||||||||||<V_][[[[[[[[[[[[[[[[[[[[[[[[[[[[[[][[[[[[[[[[[[[[[[[[[[[[[[[[[[[[]]~4w||||||||||||||||||||||||||||| ",
" ||||||||||||||||||||||||||2K][[[[[[[[[[[[[[[[[[[[[[[[[[[[[[[[][[[[[[[[[[[[[[[[[[[[[[[[[[[[[[[[])me|||||||||||||||||||||||||||| ",
" ||||||||||||||||||||||||73![[[[[[[[[[[[[[[[[[[[[[[[[[[[[[[[[[[][[[[[[[[[[[[[[[[[[[[[[[[[[[[[[[[[]L<||||||||||||||||||||||||||| ",
" |||||||||||||||||||||||2N`[[[[[[[[[[[[[[[[[[[[[[[[[[[[[[[[[[[[][[[[[[[[[[[[[[[[[[[[[[[[[[[[[[[[[[]!2r||||||||||||||||||||||||| ",
" ||||||||||||||||||||||3K][[[[[[[[[[[[[[[[[[[[[[[[[[[[[[[[[[[[][[[[[[[[[[[[[[[[[[[[[[[[[[[[[[[[[[[[[_xy|||||||||||||||||||||||| ",
" |||||||||||||||||||||zE][[[[[[[[[[[[[[[[[[[[[[[[[[[[[[[[[[[[[]][[[[[[[[[[[[[[[[[[[[[[[[[[[[[[[[[[[[['Ci||||||||||||||||||||||| ",
" ||||||||||||||||||||3/[[[[[[[[[[[[[[[[[[[[[[[[[[[[[[[[[[[[[[[][[[[[[[[[[[[[[[[[[[[[[[[[[[[[[[[[[[[[[[]U0{||||||||||||||||||||| ",
" |||||||||||||||||||3)][[[[[[[[[[[[[[[[[[[[[[[[[[[[[[[[[[[[[[[][[[[[[[[[[[[[[[[[[[[[[[[[[[[[[[[[[[[[[[[]~h}|||||||||||||||||||| ",
" ||||||||||||||||||z_[[[[[[[[[[[[[[[[[[[[[[[[[[[[[[[[[[[[[[[[[[][[[[[[[[[[[[[[[[[[[[[[[[[[[[[[[[[[[[[[[[]^p|||||||||||||||||||| ",
" |||||||||||||||||c`[[[[[[[[[[[[[[[[[[[[[[[[[[[[[[[[[[[[[[[[[[[][[[[[[[[[[[[[[[[[[[[[[[[[[[[[[[[[[[[[[[[[]Rp||||||||||||||||||| ",
" ||||||||||||||||c`[[[[[[[[[[[[[[[[[[[[[[[[[[[[[[[[[[[[[[[[[[[][[[[[[[[[[[[[[[[[[[[[[[[[[[[[[[[[[[[[[[[[[[]Pa|||||||||||||||||| ",
" |||||||||||||||3(][[[[[[[[[[[[[[[[[[[[[[[[[[[[[[[[[[[[[[[[[[[]][[[[[[[[[[[[[[[[[[[[[[[[[[[[[[[[[[[[[[[[[[[]Vf||||||||||||||||| ",
" ||||||||||||||2!_'][[[[[[[[[[[[[[[[[[[[[[[[[[[[[[[[[[[[[[[[[[][[[[[[[[[[[[[[[[[[[[[[[[[[[[[[[[[[[[[[[[[[[[](3||||||||||||||||| ",
" |||||||||||||2!___`][[[[[[[[[[[[[[[[[[[[[[[[[[[[[[[[[[[[[[[[[][[[[[[[[[[[[[[[[[[[[[[[[[[[[[[[[[[[[[[[[[[[]__!:|||||||||||||||| ",
" ||||||||||||:Q_____'][[[[[[[[[[[[[[[[[[[[[[[[[[[[[[[[[[[[[[[[[][[[[[[[[[[[[[[[[[[[[[[[[[[[[[[[[[[[[[[[[['`___T:||||||||||||||| ",
" |||||||||||-E_______`][[[[[[[[[[[[[[[[[[[[[[[[[[[[[[[[[[[[[[[[][[[[[[[[[[[[[[[[[[[[[[[[[[[[[[[[[[[[[[[['`)___)J:|||||||||||||| ",
" ||||||||||%I_________'][[[[[[[[[[[[[[[[[[[[[[[[[[[[[[[[[[[[[[][[[[[[[[[[[[[[[[[[[[[[[[[[[[[[[[[[[[[[[]]`______)n9||||||||||||| ",
" |||||||||*C)__________`][[[[[[[[[[[[[[[[[[[[[[[[[[[[[[[[[[[[[]][[[[[[[[[[[[[[[[[[[[[[[[[[[[[[[[[[[[[[]_)_______/2||||||||||||| ",
" ||||||||=M(____________`][[[[[[[[[[[[[[[[[[[[[[[[[[[[[[[[[[[[][[[[[[[[[[[[[[[[[[[[[[[[[[[[[[[[[[[[[]'`__________T:|||||||||||| ",
" ||||||||$!______________`][[[[[[[[[[[[[[[[[[[[[[[[[[[[[[[[[[[][[[[[[[[[[[[[[[[[[[[[[[[[[[[[[[[[[[[]]____________)B9||||||||||| ",
" |||||||rb))______________'][[[[[[[[[[[[[[[[[[[[[[[[[[[[[[[[[[[][[[[[[[[[[[[[[[[[[[[[[[[[[[[[[[[[[[]`_____________(2||||||||||| ",
" |||||||O!_______________)_`][[[[[[[[[[[[[[[[[[[[[[[[[[[[[[[[[[][[[[[[[[[[[[[[[[[[[[[[[[[[[[[[[[[]]________________T-|||||||||| ",
" ||||||#Z___________________`][[[[[[[[[[[[[[[[[[[[[[[[[[[[[[[[][[[[[[[[[[[[[[[[[[[[[[[[[[[[[[[[[]]_)_______________)n7||||||||| ",
" ||||||:(__________________)_`][[[[[[[[[[[[[[[[[[[[[[[[[[[[[[[]][[[[[[[[[[[[[[[[[[[[[[[[[[[[[[[]]_)_________________!-||||||||| ",
" |||||$K)___________________)_`][[[[[[[[[[[[[[[[[[[[[[[[[[[[[[][[[[[[[[[[[[[[[[[[[[[[[[[[[[[[[['`____________________N6|||||||| ",
" |||||2(_______________________`][[[[[[[[[[[[[[[[[[[[[[[[[[[[[][[[[[[[[[[[[[[[[[[[[[[[[[[[[[[]'`_____________________/vH||||||| ",
" ||||@I_______________________)_`][[[[[[[[[[[[[[[[[[[[[[[[[[[[[][[[[[[[[[[[[[[[[[[[[[[[[[[[[]]_______________________)Q%||||||| ",
" ||||2(__________________________`][[[[[[[[[[[[[[[[[[[[[[[[[[[[][[[[[[[[[[[[[[[[[[[[[[[[[[[]'`_)______________________)mH|||||| ",
" |||.K____________________________`][[[[[[[[[[[[[[[[[[[[[[[[[[][[[[[[[[[[[[[[[[[[[[[[[[[[[['___________________________I@|||||| ",
" |||-/___________________________)_`][[[[[[[[[[[[[[[[[[[[[[[[[]][[[[[[[[[[[[[[[[[[[[[[[[[]'____________________________(-|||||| ",
" ||oC)______________________________`][[[[[[[[[[[[[[[[[[[[[[[[][[[[[[[[[[[[[[[[[[[[[[[[[]'_____________________________)N#||||| ",
" ||XQ________________________________`][[[[[[[[[[[[[[[[[[[[[[[][[[[[[[[[[[[[[[[[[[[[[[[]'_______________________________T$||||| ",
" |lz(_________________________________`][[[[[[[[[[[[[[[[[[[[[[[][[[[[[[[[[[[[[[[[[[[[[]'_)______________________________(-||||| ",
" |XJ)__________________________________`][[[[[[[[[[[[[[[[[[[[[[][[[[[[[[[[[[[[[[[[[[[]'`________________________________)b$|||| ",
" |O!__________________________________)_`][[[[[[[[[[[[[[[[[[[[][[[[[[[[[[[[[[[[[[[[[]'___________________________________I-|||| ",
" Fx(_____________________________________`][[[[[[[[[[[[[[[[[[[]][[[[[[[[[[[[[[[[[[[]'____________________________________/X|||| ",
" .I)____________________________________)_`][[[[[[[[[[[[[[[[[[][[[[[[[[[[[[[[[[[[[]`_____________________________________)3|||| ",
" O!______________________________________)_`][[[[[[[[[[[[[[[[[][[[[[[[[[[[[[[[[[[]'______________________________________)B;||| ",
" z(_______________________________________)_`][[[[[[[[[[[[[[[[[][[[[[[[[[[[[[[[[]'_)______________________________________T>||| ",
".C)__________________________________________`][[[[[[[[[[[[[[[[][[[[[[[[[[[[[[[]`_________________________________________/X||| ",
".N)_________________________________________)_`][[[[[[[[[[[[[[][[[[[[[[[[[[[[[]'__________________________________________(2||| ",
" 2(____________________________________________`]][[[[[[[[[[[[]][[[[[[[[[[[[[]`_)_________________________________________)n;|| ",
" z)___________________________________________)_`][[[[[[[[[[[[][[[[[[[[[[[[[]`____________________________________________)Z:|| ",
" b)____________________________________________)_`][[[[[[[[[[[][[[[[[[[[[[[]'_____________________________________________)T-|| ",
" N)_____________________________________________)_`][[[[[[[[[[[][[[[[[[[[[]`_)_____________________________________________/X|| ",
".C)________________________________________________`][[[[[[[[[[][[[[[[[[[]`_)______________________________________________(O|| ",
".Z)_______________________________________________)_`][[[[[[[[][[[[[[[[[]`_________________________________________________):|| ",
" Z)_______________________________________________)__`][[[[[[[]][[[[[[[]`_)________________________________________________)3-| ",
".K__________________________________________________)_`][[[[[[][[[[[[[]`__________________________________________________))b:| ",
".I)____________________________________________________`]][[[[][[[[[[]`____________________________________________________)N4| ",
".I)___________________________________________________)_`][[[[[][[[]]`_)___________________________________________________)B:| ",
" I)____________________________________________________)_`'][[][[[[]`_)____________________________________________________)C:| ",
".I)_______________________________________________________`][[][[['`_______________________________________________________)C2| ",
".I_________________________________________________________`][]][]`________________________________________________________)Z2| ",
".K(((((((((()(((((((((((((((((((((((((((((((((((((((((((((()_`]]`))(((((((((((((((((((((((()((((((((((((((((((((((((((((((((Z4| ",
".J!///!/////////!/!////!!/////!/////!/!////!!/////!/////!////(_)(!/!///!////!/!////!////!!//!///!//!//!//!///!//!//!//!!//!!C:| ",
" K()((((((((((((()((((()((((((((((((()((((()(((((((((((((((((((/((((()((((((()((()((((((()(()((((()(((((()(()(((((()((()((((C:| ",
".I)_________)________________________________________________)//___________________________________________________________)B2| ",
".I)__________________________________________________________)(/)__________________________________________________________)N:| ",
".K___________________________________________________________)//)__________________________________________________________)KO| ",
".J)___________________________________________________________(/___________________________________________________________)YX| ",
".Z)__________________________________________________________)//)__________________________________________________________)ZX| ",
" Z)__________________________________________________________)/()__________________________________________________________)bo| ",
".B)__________________________________________________________)//)__________________________________________________________):|| ",
" n)___________________________________________________________/()__________________________________________________________(X|| ",
".x)__________________________________________________________)(/)__________________________________________________________IO|| ",
" 3(__________________________________________________________)//__________________________________________________________)B-|| ",
" -)__________________________________________________________)//)_________________________________________________________)3X|| ",
" ./__________________________________________________________)/()________________________________________________________)(O||| ",
" XE)__________________________________________________________//_________________________________________________________)T-||| ",
" OJ)_________________________________________________________)/()________________________________________________________)B;||| ",
" on)_________________________________________________________)(/)________________________________________________________)2|||| ",
" F2(_________________________________________________________)//_________________________________________________________!O|||| ",
" |X!_________________________________________________________)(/)_______________________________________________________)Z-|||| ",
" |oN)________________________________________________________)//)_______________________________________________________)3||||| ",
" ||O/)________________________________________________________(/________________________________________________________Q-||||| ",
" ||$J)_______________________________________________________)//)______________________________________________________)B;||||| ",
" |||2))______________________________________________________)//)______________________________________________________(-|||||| ",
" |||OE________________________________________________________/(_______________________________________________________K:|||||| ",
" |||ob)______________________________________________________)/()_____________________________________________________)3||||||| ",
" ||||O!______________________________________________________)//)_____________________________________________________Y:||||||| ",
" ||||+N)_____________________________________________________)//_____________________________________________________)z|||||||| ",
" |||||O!_____________________________________________________)(/)____________________________________________________Y:|||||||| ",
" |||||+n)_____________________________________________________//)___________________________________________________)3||||||||| ",
" ||||||-Q____________________________________________________)(/___________________________________________________)I2||||||||| ",
" ||||||#x)___________________________________________________)/()__________________________________________________(2|||||||||| ",
" |||||||-I)__________________________________________________)//)_________________________________________________)C:|||||||||| ",
" ||||||||:/__________________________________________________)//__________________________________________________Q:||||||||||| ",
" ||||||||%N)_________________________________________________)(/)________________________________________________(3|||||||||||| ",
" |||||||||:Y_________________________________________________)//)_______________________________________________)C2|||||||||||| ",
" ||||||||||:/)________________________________________________(/)_______________________________________________Q2||||||||||||| ",
" ||||||||||&x)_______________________________________________)//_______________________________________________)T%||||||||||||| ",
" |||||||||||:Z)______________________________________________)/()______________________________________________/vS||||||||||||| ",
" ||||||||||||2Y_______________________________________________//______________________________________________(MG|||||||||||||| ",
" |||||||||||||:E_____________________________________________)/()____________________________________________(MD||||||||||||||| ",
" ||||||||||||||2!____________________________________________)(/)___________________________________________)Mg|||||||||||||||| ",
" |||||||||||||||3/___________________________________________)//)__________________________________________(Md||||||||||||||||| ",
" |||||||||||||||sv(___________________________________________//_________________________________________)(mj|||||||||||||||||| ",
" ||||||||||||||||km(_________________________________________)/()________________________________________(ck||||||||||||||||||| ",
" |||||||||||||||||dM()_______________________________________)//________________________________________/cd|||||||||||||||||||| ",
" ||||||||||||||||||t:K)______________________________________)/()______________________________________!3|||||||||||||||||||||| ",
" ||||||||||||||||||||2B)_____________________________________)(/)_____________________________________Q2||||||||||||||||||||||| ",
" |||||||||||||||||||||3b(____________________________________)//)___________________________________)Y2|||||||||||||||||||||||| ",
" ||||||||||||||||||||||4z!___________________________________)//__________________________________))Z2||||||||||||||||||||||||| ",
" ||||||||||||||||||||||||2Y)_________________________________)/()________________________________)/n:|||||||||||||||||||||||||| ",
" |||||||||||||||||||||||||2B()________________________________//________________________________)T28||||||||||||||||||||||||||| ",
" ||||||||||||||||||||||||||:3E)______________________________)/()_____________________________)/B:||||||||||||||||||||||||||||| ",
" ||||||||||||||||||||||||||||:B/)____________________________)(/)____________________________)T21|||||||||||||||||||||||||||||| ",
" |||||||||||||||||||||||||||||-:I))__________________________)//)__________________________)!n:|||||||||||||||||||||||||||||||| ",
" |||||||||||||||||||||||||||||||:3T))________________________)(/_________________________)/C-%||||||||||||||||||||||||||||||||| ",
" |||||||||||||||||||||||||||||||||:zT))______________________)//)______________________)/Z-$||||||||||||||||||||||||||||||||||| ",
" ||||||||||||||||||||||||||||||||||<-zI())___________________)(/)____________________)QB-$||||||||||||||||||||||||||||||||||||| ",
" |||||||||||||||||||||||||||||||||||||-:Z!))_________________)//)_________________))/C:$||||||||||||||||||||||||||||||||||||||| ",
" |||||||||||||||||||||||||||||||||||||||-OxI/)))_____________)//)____________)))(QJm>#||||||||||||||||||||||||||||||||||||||||| ",
" |||||||||||||||||||||||||||||||||||||||||-OOzJQ)()________)__/()________))((QJb:XXA||||||||||||||||||||||||||||||||||||||||||| ",
" ||||||||||||||||||||||||||||||||||||||||||||$-$-bK!()))(())))//))(()((/EJN3XX>+||||||||||||||||||||||||||||||||||||||||||||||| ",
" ||||||||||||||||||||||||||||||||||||||||||||||||$Oo;bJKNxnNBCNBBNnx3:XXO-:-||||||||||||||||||||||||||||||||||||||||||||||||||| ",
" ||||||||||||||||||||||||||||||||||||||||||||||||||||A..-::::44::4::;|||||||||||||||||||||||||||||||||||||||||||||||||||||||||| ",
"                                                                                                                                "
};
