/* XPM */
static char *hp9n3_0plnp[] = {
/* columns rows colors chars-per-pixel */
"64 64 60 1 ",
"  c #010101",
". c #010B01",
"X c #0B050C",
"o c #0E0D0D",
"O c #011401",
"+ c #011B02",
"@ c #0D110D",
"# c #130213",
"$ c #002000",
"% c #002C00",
"& c #023402",
"* c #023D02",
"= c #083F07",
"- c #0A3C0A",
"; c #103E0F",
": c #123F13",
"> c #190F20",
", c #203724",
"< c #233A24",
"1 c #024502",
"2 c #044B04",
"3 c #09490B",
"4 c #025302",
"5 c #015C01",
"6 c #075409",
"7 c #065F08",
"8 c #0C580F",
"9 c #144218",
"0 c #1A491B",
"q c #105314",
"w c #105911",
"e c #036403",
"r c #026C02",
"t c #037403",
"y c #017C01",
"u c #097509",
"i c #0D7C0E",
"p c #136315",
"a c #127A12",
"s c #018301",
"d c #018C01",
"f c #068C08",
"g c #019401",
"h c #019B01",
"j c #0C910D",
"k c #0E9F0E",
"l c #02A302",
"z c #01AB01",
"x c #00B500",
"c c #01BC01",
"v c #17A419",
"b c #00C300",
"n c #00CA00",
"m c #00D400",
"M c #00DA00",
"N c #00E300",
"B c #00EB00",
"V c #00F300",
"C c #00FE00",
"Z c None",
/* pixels */
" ZZZZZZZZZZZZZZZZZZZZ .+&ygdgdddsstrer*OXXZZZZZZZZZZZZZZZZZZZZZ ",
"ZZZZZZZZZZZZZZZZZZZZ=rgnNCCCCCCCCCCCVCNngeZZZZZZZZZZZZZZZZZZZZZZ",
"ZZZZZZZZZZZZZZZZZZ5hmVCCCCCCCCCVCCCCCCCCCBby-ZZZZZZZZZZZZZZZZZZZ",
"ZZZZZZZZZZZZZZZZezBCCCCCCCCCCCCCCCCCCCCCCCCCmd-ZZZZZZZZZZZZZZZZZ",
"ZZZZZZZZZZZZZZqlBCCCCCCCCCCCCCCVCCCCCCCCCCCCCCMj<ZZZZZZZZZZZZZZZ",
"ZZZZZZZZZZZZZtmCCCCCCCCCCCCCCCCCCCCCCCCCCCCCCCCCcwZZZZZZZZZZZZZZ",
"ZZZZZZZZZZZZgBCCCCCCCCCCCCCCCCCVCCCCCCCCCCCCCCCCCMiZZZZZZZZZZZZZ",
"ZZZZZZZZZZZxVCCCCCCCCCCCCCCCCCCCCCCCCCCCCCCCCCCCCCBjZZZZZZZZZZZZ",
"ZZZZZZZZZZxCCCCCCCCCCCCCCCCCCCCVCCCCCCCCCCCCCCCCCCCVvZZZZZZZZZZZ",
"ZZZZZZZZZcCCCCCCCCCCCCCCCCCCCCCCCCCCCCCCCCCCCCCCCCCCCkZZZZZZZZZZ",
"ZZZZZZZZlVCCCCCCCCCCCCCCCCCCCCCVCCCCCCCCCCCCCCCCCCCCCBiZZZZZZZZZ",
"ZZZZZZZhMNVCCCCCCCCCCCCCCCCCCCCCCCCCCCCCCCCCCCCCCCCCCNn7ZZZZZZZZ",
"ZZZZZZgmMMNVCCCCCCCCCCCCCCCCCCCVCCCCCCCCCCCCCCCCCCCCNMMc2ZZZZZZZ",
"ZZZZZumMMMMMVCCCCCCCCCCCCCCCCCCCCCCCCCCCCCCCCCCCCCVNMMMMhZZZZZZZ",
"ZZZZ9cMMMMMMNVCCCCCCCCCCCCCCCCCVCCCCCCCCCCCCCCCCCVNMMMMMmuZZZZZZ",
"ZZZZfMMMMMMMMMVCCCCCCCCCCCCCCCCCCCCCCCCCCCCCCCCCVNMMMMMMMc2ZZZZZ",
"ZZZ6nMMMMMMMMMMVCCCCCCCCCCCCCCCVCCCCCCCCCCCCCCCVNMMMMMMMMMfZZZZZ",
"ZZZgMMMMMMMMMMMMVCCCCCCCCCCCCCCCCCCCCCCCCCCCCCVNMMMMMMMMMMnpZZZZ",
"ZZ6nMMMMMMMMMMMmMVCCCCCCCCCCCCCVCCCCCCCCCCCCCVNMMMMMMMMMMMMhZZZZ",
"ZZdMMMMMMMMMMMMMMMVCCCCCCCCCCCCCCCCCCCCCCCCCVNMMMMMMMMMMMMMn3ZZZ",
"Z:cNMMMMMMMMMMMMMMMVCCCCCCCCCCCCCCCCCCCCCCCVMMMMMMMMMMMMMMMMtZZZ",
"#rmMMMMMMMMMMMMMMMMMVCCCCCCCCCCVCCCCCCCCCCVNMMMMMMMMMMMMMMMMlZZZ",
"@hMMMMMMMmMMMMMMMMMMMVCCCCCCCCCCCCCCCCCCCVNMMMMMMMMMMMMMMMMMb1ZZ",
"%bMMMMMMMMMMMMMMMMMMMMVCCCCCCCCVCCCCCCCCVMMMMMMMMMMMMMMMMMMMneZZ",
"1nMMMMMMMMMMMMMMMMMMMMMVCCCCCCCCCCCCCCCVMMMMMMMMMMMMMMMMMMMMMsZZ",
"&nMMMMMMMMMMMMMMMMMMMMMMVCCCCCCVCCCCCCVMMMMMMMMMMMMMMMMMMMMMMhZZ",
"1nMMMMMMMMMMMMMMMMMMMMMMMVCCCCCCCCCCCVNMMMMMMMMMMMMMMMMMMMMMMxZZ",
"2mMMMMMMMMMMMMMMMMMMMMMMMMVCCCCVCCCCVMMMMMmMMMMMMMMMMMMMMMMMMb1Z",
"5mMMMMMMMMMMMMMMMMMMMMMMMMMVCCCCCCCVMMMMMMMMMMMMMMMMMMMMMMMMMn4Z",
"5mMMMMMmMMMMMmMMMMMMMMMMMMMMVCCVCCVMMMMMMMMMMMMMMMMMMMMMMMMMMne ",
"5mMMMMMMMmMMMMMmMMMmMMMMMMMMMVCCCBMmMmMMMMMMMMMMMMMMMMMMMMMMMne ",
"5nmmmmmmmmmmmmmmmmmmmmmnmmmnmmBVBMmmmmmmmmmnmmmmmnmmmnmmmmmmmnr ",
"4bnnnnnnnnnnnnnnnnnnnnnnnnnnnnnnnnnnnnnnnnnnnnnnnnnnnnnnnnnnnbe ",
"5mMMMMMMMMMMmMMMMMmMMMMMMMMMMMMnmMMMMMMMMMMmMMMMMMMmMmMMMMMmMne ",
"5mMMMMMMMMMMMMMMMMMMMMMMMMMMMMmnMMMMMMMMMMMMMMMMMMMMMMMMMMMMMme ",
"4mMMMMMMMMMMMMMMMMMMMMMMMMMMMMmnmMMMMMMMMMMMMMMMMMMMMMMMMMMMMn4 ",
"1nMMMMMMMMMMMMMMMMMMMMmMMMMMMMMnmMMMMMMMMMMMmMMMMMMMMMMMMMMMMb:Z",
"&nMMMMMMMMMMMMMMMMMMMMMMMMMMMMmnMMMMMMMMMMMMMMMMMMMMMMMMMMMMNlZZ",
"+nMMMMMMMMMMMMMMMMMMMMMMMMMMMMmnmMMMMMMMMMMMMMMMMMMMMMMMMMMMMsZZ",
"+zMMmMMMMMMMMMMMMMMMMMMMMMMMMMmnMMMMMMMmMMMMMMMMMMMMMMMMMMMMmeZZ",
"odMMMMMMMMMMMMMMMMMMMMMmMMMMMMmnmMMMMMMMMMMMMMMMMMMMMMMMMMMMb1ZZ",
"#emMMMMMMMMMMMmMMMMMMMMMMMMMMMmnMMMMMMMMMMMMMMMMMMMMMMMMMMMMgZZZ",
"ZZxMMMMMMMMMMMMMMMMMMMMMMMMMMMmnmMMMMMMMMMMMMMMMMMMMMMMMMMMmrZZZ",
"ZZyMMMMMMMMMMMMMMMMMMMMMMMMMMMmnmMMMMMMMMMMMMMMMMmMMMMMMMMMx*ZZZ",
"ZZ1bMMMMMMMMMmMMMMMMMMMMMMMMMMmnMMMMMMMMMMMMMMMMMMMMMMMMMMMyZZZZ",
"ZZZdMMMMMMMMMMMMMMMMMMMMMMMMMMmnmMMMMMMMMMMMMMMMMMMMMMMMMMc2ZZZZ",
"ZZZ2bMMMMMMMMMMMMMMMMMMMMMMMMMmnMMMMMMMMMMMMMMMMMMMMMMMMMmyZZZZZ",
"ZZZZymMMMMMMMMMMMMMMMMMMMMMMMMmnmMMMMMMMMmMMMMMMMMMMMMMMMx1ZZZZZ",
"ZZZZ-zMMMMMMMMMMMMMMMMMMMMMMMMMnmMMMMMMMMMMMMMMMMMMMMMMMnrZZZZZZ",
"ZZZZZ7nMMMMMMMMMMMMMMMMMMMMmMMmnmMMMMMMMMMMMMMMMMMMMMMMMgZZZZZZZ",
"ZZZZZZymMMMMMMMMMMMMMMMMMMMMMMmnmMMMMMMMMMMMMMMMMMMMMMMnwZZZZZZZ",
"ZZZZZZZgmMMMMMMMMMMMMMMMMMMMMMmnMMMMMMMMMMMMMMMMMMMMMMmaZZZZZZZZ",
"ZZZZZZZZlMMMMMMMMMMMMMMMMMMMMMmnmMMMMMMMMMMMMMMMMMMMMnaZZZZZZZZZ",
"ZZZZZZZZ0zMMMMMMMMMMMMMMMMMMMMmnMMMMMMMMMMmMMMMMMMMMniZZZZZZZZZZ",
"ZZZZZZZZZ0gmMMMMMMMMMMMMMMMMMMmnmMMMMMMMMMMMMMMMMMMnuZZZZZZZZZZZ",
"ZZZZZZZZZZZsnMMMMMMMMMMMMMMMMMmnMMMMMMMMMMMMMMMMMMcrZZZZZZZZZZZZ",
"ZZZZZZZZZZZZrcMMMMMMMMMMMMMMMMmnmMMMMMMMMMMMMMMMmz5ZZZZZZZZZZZZZ",
"ZZZZZZZZZZZZZ5hmMMMMMMMMMMMMMMmnMMMMMMMMMMMMMMMnd-ZZZZZZZZZZZZZZ",
"ZZZZZZZZZZZZZZZucmMMMMMMMMMMMMMnmMMMMMMMMMMMMmleZZZZZZZZZZZZZZZZ",
"ZZZZZZZZZZZZZZZZ1scmMMMMMMMMMMmnMMMMMMMMMMMmztZZZZZZZZZZZZZZZZZZ",
"ZZZZZZZZZZZZZZZZZZ1yzmMMMMMMMMMnMMMMMMMMMnzr-ZZZZZZZZZZZZZZZZZZZ",
"ZZZZZZZZZZZZZZZZZZZZZ5sznmMMMMMnMMMMmncgy8<ZZZZZZZZZZZZZZZZZZZZZ",
"ZZZZZZZZZZZZZZZZZZZZZZZZ2uflghhgggdyr4&ZZZZZZZZZZZZZZZZZZZZZZZZZ",
" ZZZZZZZZZZZZZZZZZZZZZZZZX#OO+++++.   ZZZZZZZZZZZZZZZZZZZZZZZZZ "
};
