/* XPM */
static char *wqeou_8vjma[] = {
/* columns rows colors chars-per-pixel */
"64 64 206 2 ",
"   c #010101",
".  c #0C0502",
"X  c #020B03",
"o  c #0A0E0A",
"O  c #080A07",
"+  c #1C0301",
"@  c #100804",
"#  c #041306",
"$  c #051509",
"%  c #0C130D",
"&  c #0B1A0D",
"*  c #081006",
"=  c #11140E",
"-  c #18140D",
";  c #0F1C11",
":  c #0D1610",
">  c #141712",
",  c #151B14",
"<  c #191B14",
"1  c #290703",
"2  c #3A0906",
"3  c #22150B",
"4  c #3D1B11",
"5  c #142215",
"6  c #1C2217",
"7  c #162619",
"8  c #1C241A",
"9  c #1B2A1D",
"0  c #21251C",
"q  c #25251A",
"w  c #3A2115",
"e  c #1E2D21",
"r  c #1F3023",
"t  c #232C21",
"y  c #2C2C22",
"u  c #223225",
"i  c #2B3125",
"p  c #253629",
"a  c #263A2B",
"s  c #293C2D",
"d  c #34362A",
"f  c #333A2C",
"g  c #3A3B2E",
"h  c #383423",
"j  c #2B3E30",
"k  c #393E31",
"l  c #550C07",
"z  c #5C1B11",
"x  c #4B0D07",
"c  c #630C06",
"v  c #730D06",
"b  c #6C140B",
"n  c #75140C",
"m  c #7D1A10",
"M  c #6B1A10",
"N  c #6B2A1E",
"B  c #762418",
"V  c #573526",
"C  c #403F31",
"Z  c #443726",
"A  c #6D3B2A",
"S  c #783929",
"D  c #2D4233",
"F  c #324436",
"G  c #3C4434",
"H  c #324837",
"J  c #344638",
"K  c #384739",
"L  c #354A3B",
"P  c #3A4B3D",
"I  c #454637",
"U  c #434D3D",
"Y  c #4A4D3B",
"T  c #474736",
"R  c #584938",
"E  c #4B513D",
"W  c #53523F",
"Q  c #6A4938",
"!  c #64513D",
"~  c #3D4E40",
"^  c #3E5041",
"/  c #414F41",
"(  c #445243",
")  c #4A5645",
"_  c #4C5847",
"`  c #4B5748",
"'  c #4E5949",
"]  c #465D4C",
"[  c #535542",
"{  c #535C4B",
"}  c #595E4D",
"|  c #585A46",
" . c #675B46",
".. c #7F5844",
"X. c #55614E",
"o. c #5C624E",
"O. c #5D6450",
"+. c #5D6954",
"@. c #61644E",
"#. c #6C624D",
"$. c #626651",
"%. c #666954",
"&. c #6B6B56",
"*. c #656D58",
"=. c #6D6D59",
"-. c #686651",
";. c #726C55",
":. c #716E5A",
">. c #6B705B",
",. c #75715C",
"<. c #7A745E",
"1. c #7B795F",
"2. c #71634C",
"3. c #7C7660",
"4. c #7E7A62",
"5. c #757861",
"6. c #9B0E09",
"7. c #9B0D07",
"8. c #83130C",
"9. c #88150D",
"0. c #97130D",
"q. c #881C13",
"w. c #9C1811",
"e. c #A30C08",
"r. c #A3130D",
"t. c #A41D13",
"y. c #A81C10",
"u. c #892419",
"i. c #85271B",
"p. c #972518",
"a. c #A02216",
"s. c #822F20",
"d. c #983726",
"f. c #893524",
"g. c #8B4333",
"h. c #9C4937",
"j. c #837B64",
"k. c #897E66",
"l. c #8A7E68",
"z. c #807762",
"x. c #7D8268",
"c. c #8A8167",
"v. c #8D8369",
"b. c #878369",
"n. c #91856B",
"m. c #938A6D",
"M. c #98866B",
"N. c #938D71",
"B. c #998F72",
"V. c #959174",
"C. c #9C9375",
"Z. c #9E9679",
"A. c #9D9A7B",
"S. c #959579",
"D. c #8D8D71",
"F. c #A19576",
"G. c #A29779",
"H. c #A49B7C",
"J. c #A99D7E",
"K. c #AA8F73",
"L. c #A8A07E",
"P. c #AA9F80",
"I. c #ACA282",
"U. c #A5A381",
"Y. c #B1A585",
"T. c #B4A986",
"R. c #B2A788",
"E. c #B5AB89",
"W. c #B9AE8C",
"Q. c #BBB18D",
"!. c #BEB590",
"~. c #C0B692",
"^. c #C4BB95",
"/. c #C8BF96",
"(. c #C8BF98",
"). c #C5BE98",
"_. c #CCC39B",
"`. c #C9C198",
"'. c #D0C79D",
"]. c #D2C99E",
"[. c #D5CCA2",
"{. c #D8CFA4",
"}. c #D1C7A0",
"|. c #DAD2A5",
" X c #DFD8A7",
".X c #DDD5A9",
"XX c #D7D0A3",
"oX c #E0D7AA",
"OX c #E3DBAC",
"+X c #E6DDAB",
"@X c #E6DFB0",
"#X c #EBE5AC",
"$X c #EEE8AF",
"%X c #E7E0AD",
"&X c #F0EAAF",
"*X c #E7E0B0",
"=X c #EAE4B3",
"-X c #EFE9B6",
";X c #EFE9B8",
":X c #F2EDB3",
">X c #F2ECBA",
",X c #F6F1B5",
"<X c #F7F1BD",
"1X c #F8F3BE",
"2X c #FBF5C2",
"3X c #FEF8C4",
/* pixels */
"P ~ ( ( ( ( j         Y Y.(.:X>X,X1X1X1X3X3X3X3X3X3X3X1X2X;X=X=X|.'.(.W.R.v.  % } ;.z.l.n.n.z.:.<.&.-.=.;.&.%.$.} } { { } { ) U ",
"L ( ( ( / ( a         T G._.#X,X,X<X1X3X3X3X3X3X3X3X3X1X>X;X=X=X.X_.^.E.R.j.    / :.z.j.l.l.k.z.z.-.-.<.:.&.:.%.} { ' ) ' { ) P ",
"L ^ ^ ( / ] u         0 L.[.%X,X,X,X1X3X3X3X3X3X3X3X3X>X1X>X@XOX|.}.^.R.I.4.o   s :.3.3.j.M.l.l.j.&.%.3.3.:.:.&.} } { ` ' ' ) P ",
"P ^ ^ ( / ( e         i W.].+X:X:X,X1X1X3X3X3X3X3X3X1X1X>X>X@X=XoX_.!.R.P.4.:   i 3.z.3.l.l.n.n.k.:.&.,.3.<.:.%.} } } ' ' ` ) G ",
"L ~ ~ ^ ^ ^ e         i H.Q.oX&X,X,X1X1X3X3X3X3X3X3X2X<X<X-X@X=XOX].^.E.Y.n.>   y 5.j.j.k.n.n.n.v.3.:.3.3.5.&.%.} o.} ' ) / U K ",
"~ ~ ~ ~ ~ ~ ,         6 m.Q.oX&X,X,X1X1X1X1X3X3X3X3X3X1X<X>X=X@XOX}.(.W.J.B.6   < 3.j.j.l.n.m.n.M.k.:.3.z.3.&.} } @.o.} ( P P j ",
"~ L ~ ~ ~ ~ &         0 B.W._.&X,X1X1X1X3X3X3X3X3X3X2X1X>X>X;X=XOX[.`.Q.I.Z.t   > 5.j.j.j.v.n.n.m.c.3.3.z.,.%.} } } { ' ( P J j ",
"L ~ ~ ~ L L $         f c.C.].%X,X,X1X1X1X1X1X3X2X3X2X2X1X>X;X-X@X[._.Q.R.C.6   o :.k.z.k.n.n.n.v.c.,.,.:.&.} } { { { ` U K K j ",
"~ ~ L ^ ~ ~ o         , @.Z.`.+X&X,X<X<X1X3X1X3X2X3X2X2X2X>X=X=X@X[.}.`.Q.J.0   O -.j.j.l.n.n.n.n.j.:.:.&.o.{ { ' ` ' ` U K K F ",
"L L ^ ^ ( ( o O O       [ H.^.oX$X,X<X<X1X3X3X3X3X2X3X2X1X1X-X=XOX}.}.`.~.I.t   O o.3.z.k.v.n.v.v.z.:.&.%.{ { { { ` ` ` U K K L ",
"H L L ^ ) ( o           I I.~.].#X,X1X1X1X1X3X3X3X2X2X2X1X1X-X=X.X[..X}.~.R.f   O } :.,.j.n.M.l.l.3.&.:.%.{ { { { ` ' ` / K F J ",
"D H L ^ ( ) :   % O     E E.Q.^.#X,X1X1X3X3X3X3X2X2X3X2X1X>X=X%X.X.X.X[.).W.&.  O ' %.&.3.v.n.v.j.<.&.=.-.{ ' { { ` ) ( F a a a ",
"D D D ~ ( ` ,   O       | L.L.'.$X:X,X1X1X2X3X3X2X2X;X-X1X-X%XOX{..X.X[.`.E.v.o 2 i. .+.,.j.n.l.z.:.&.=.*.{ ) { ' ( K F e 5 7 7 ",
"a a D H ~ ] t   % =   * ;.H.T.oX$X:X1X1X2X2X3X<X|.`.E.H.~.'.[.|.[..X}._.^.G.P - p.0.S +.=.3.j.j.<.&.-.&.$.' ) ' ( G a 9 & X $ $ ",
"D a a D L ) <   O o   q j.Q.XX#X#X,X1X1X2X3X>X).H.m. .U E C.T.'.[..X).!.W.R + b 8.0.N *.&.,.3.:.=.-.o.$.$.{ ) ) K p 7 & X   X   ",
"H D a D L ^ k O   < s 0 -.|.#X#X$X:X<X1X3X=XW.M.M.@.# 7 G @.v.~.{.{.W.W.<.m r.x l 8.x #.5.,.<.;.&.O.{ O.o.' ( K p 5 & # X X     ",
"~ L D L J *.OX5.  0 u & Y .X&X#X#X:X>X1X+X[.I.B.c.&.[ _ ;.U &.W..X`.R.=.3 a.y.l l v z f.4.3.,.=.$.} ' ' ' U D r & # # X X X     ",
"^ ~ P ~ P A.OX;XY 9 G : I [.&X&X$X:X1X-X[..X_.W.G.;.K E ,.j.v.W..X!.#.  + r.6.1 x S N p.g.4.3.=.$.' P F F u 5 # X # # # X X X X ",
"] ~ ~ / { S.j.;X).f K & I ].&X&X#X:X1X>X=X[.^.P.,.F , i c.m.H.'.OXI.- O h p.v 1 l  .2.y.q.<.3.&.} ( F u 9 & # X   X # # $ $ # # ",
"] ( ~ / X.G.V.}.1XV.t & g `.:X&X#X:X>X-X[.~.Z.N.b.v.m.| m.F.Q.+X;XN.  T  .d.B 2 b R f.t.w.;.=.o.) F u 5 & $ X X # # $ & & & & $ ",
"' ( ^ ( O.W.@X.X-XXXs   s `.$X$X$X-X-X=X].G.z.Y > G &.m.C.I.[.>X2X4.  ;.M.d.f.z A Z 6.6.u.%.o.U F p 7 7 5 ; & & & 7 5 5 7 7 5 ; ",
"' ) ) ^ 5.`.OX-X X-XA.< g !.$X#X#X-X*X+X(.k.&.q   3.v.@.P.^.>X>X2X,.@ k.Y.p.A N g.( V q.V +.` F p 9 9 9 e e 9 9 u 0 9 9 u 9 9 9 ",
"X.] ' ( b..X=X3X=X-X XT Y ~.#X%X$X-X=XOXQ.H.T.&.T C.J.<.E.>X>X2X3Xb.@ z.K.p.s.d.A F X.s.A +.E D u 9 0 u p a D D s s a a s a p 9 ",
"' ' ' ) S.*X=X2X<X$X%X1.E W.#X#X-X-X-XOX).'.OXQ.C.W.P.C.(.2X2X2X3XH..  .h.w.w.8.m q [ f.Q O.` L D p D D D K K K K H s s D F s u ",
") ) X.` S.=X X}.!.OX;XU.| W.%X#X-X-X>X=X*X=X[.].).!.E.E.}.>X2X2X3X`.- Z u.y.9.c q.b q.p.! O.{ ( P K K K P U ( ( ( L j j F F a u ",
"L ^ ' ) A.@X^.I.v._.>XQ.3.`.%X-X-X>X;X,X1X1X.X~.Q.I.G.J.}.>X2X2X2X*Xg < m r.8.l B Q t.6.Q +.{ ` ` ` ' ` ` ` ` ` U F a p j D a e ",
"H ~ ] / L.XXI.A.B.).1X^.H.[.=X;X-X<X1X1X2X2X>X_.E.H.H.^.;X2X2X2X1X=X,.  w c x b u.[ p.e.S +.o.X.X.o.{ { { ' { ` P j p u p j p t ",
"D L ` P A.}.P.R.[.*X3XXX`..X=X-X-X>X>X2X2X2X2X=X`.`._.OX2X2X2X2X1X-XU.O X @ x v w.B q.e.S *.%.$.$.@.o.o.{ { ' ( K j s t u a p e ",
"D L ` J S.{.!.2X1X>X3XOX.XOX*X-X-X>X1X2X2X1X1X>X>X@X{.>X3X1X>X2X2X;X^.- *   2 q.r.N S q. .*.&.$.$.-.O.o.{ ) ( P j j j p r p u u ",
"D L ` L 4.@X{.2X1X>X2X*X.X X*X=X-X;X>X2X2X2X1X1X-X|.OX3X3X>X2X2X2X2X{.y     . 8.r.M R } O.O.-.o.O.o.) ) / / P k j j j i r u u p ",
"r H ] L *.}.*X>X2X-X2X=X.XOX@X=X=X-X,X1X1X2X>X;XOX.X>X3X2X1X1X<X2X2X@Xd     . v 7.V ] { { { o.{ ' ( K K ~ F F k j j j p u u p p ",
"r D ^ ~ X.!.|.>X<X-X>X*X.X.XOX=X=X-X>X2X1X2X>X=XOX=X>X2X1X>X>X2X2X2X>XT 5 :   + 4 F ( U ( ` { ( U K a a j j j j s s s s p p a a ",
"e D ^ ^ ] !.`.;X=X>X>X@XOXOX@X=X*X-X;X;X1X1X>X=X=X>X>X2X1X>X>X1X2X2X2X[ < =.t   p F P U U ) ' ( P K p p j j J j j j j j a j j j ",
"e a ~ ( K U..X X-X=X=X*XOX@X*X=X@X*X-X-X;X>X;X;X>X>X>X1X1X;X>X1X2X;X2X,.  j.{ O F L U ` ( ) ) E ( P a a j D D D F F K F j j D D ",
"7 r D P ~ 5.@X.X=X>X*X*XOXOX+X*X@X*X=X-X-X;X;X<X>X>X>X1X>X-X>X>X=X2X2XU.  T k o ( P / ` ) ) ' ) ` ) F s j D D F K ~ P K F F L L ",
"7 D D D ^ { !. XOX*X.XOX+X@X@X=X*X*X=X*X=X-X;X>X>X>X>X>X-X*X>X>X=X2X2XR.o o O 0 X.( ( ) ' X.' ' { { K s j D H P / / ~ P L K ~ P ",
"7 r D r L ^ b..X=X=X=XOXoXOX@X=X=X=X=X@X*X=X=X>X>X;X>X;XOX*X<X>X>X>X>X}.y     f *.{ { ' { } } ' { ` F s D F P ) ` ) ) ( / / ~ / ",
"r D D r D ~ ' _.-X1X1XOXOXoXOX*X*X*X*X XOX*X=X>X>X>X;XOX[.=X1X>X=X2X2X[.I     U =.%.O.} } } } { ' ( F D D P ) { { ` ` ' ' / ( / ",
"j D a r D H F V.*X;X1XOXoX.X.X@X@X@X.X X X@X-X;X>X;X;XXX_.OX=X-XoX+X@X^.C   O } ,.=.&.%. .} } } { ( K K P ( { o.O.{ { X.{ ) ) ( ",
"D L D D s D H K S.'.E._..X.XOX.X@X X{..X.XOX=X-X>X;X@X_.].[..X^.H.W._.P.>   o &.,.:.&.%.O.} } } | ` U U ` ' } @.$.X.X.O.{ ( ) ) ",
"H ~ L H D D D D u y < !.oX.X.X@X@X.X.X.X.X@X=X2X>X>X|.[.OX(.C.< O b.I.d     0 :.,.,.&.$.} } } $.@.{ ) ` } } } O.%.O.X.} { ) ) ( ",
"D ~ L H H D D H L & O !.oX.XoX@XOX.X{..X.X=X;X;X>X=X[.OX<XoX;.I 3.V.g       d 5.,.:.%.O.{ } $.&.%.$.} } O.$.%.O.%.O.X.X.{ ) ) ) ",
"H H H ~ L H L L ) u > ~..X.XoXoX.X.X{..X@X*X;X>X>X=XoX>X1X<XXXoX_.y         ( 5.:.=.%.$.} O.=.:.:.&.%.O.%.=.&.=.=.O.X.{ ' ` ` ` ",
"~ D H H L L L ^ ` F 4.)._..XoXoX.X[.{. X@X=X=X2X>X=X$X<X<X:X&X$X^.[         } :.:.%.$.%.%.%.:.3.3.<.=.=.=.=.*.*.%.O.X.} X.' { { ",
"~ D D L ] L ^ ^ ( ' Q.).).XX.X@X|.}.{..X*X-X;X>X,X>X,X<X:X$X#X+XI.C.,     o $.=.%.%.%.=.=.:.3.l.k.z.3.:.:.=.O.%.%.{ ] { X.{ X.} ",
"^ D a D ^ ^ ^ ] ` { Q.^.!.}..X.X.X|..X X*X=X-X2X,X:X,X#X|.]._.'.F.E. .    > %.&.$.$.=.:.:.:.z.l.l.z.3.:.:.%.} { { { ` { { { { O.",
"^ D a a ^ ^ ~ ^ ' { E.~.Q.`..X.X.X.X.XOX%X-X=X;X:X$XoX~.W.L.H.L.;.C.z.8   8 >.%.$.$.=.:.,.:.3.j.z.3.=.=.&.O.{ ` ` ` ` ` ` ` { O.",
"^ D a a H ^ ^ ^ ) ( J.^.R.^.[.OX.X.X.X*X=X-X-X-X&X_.L.J.H.^.~.C.} B.Y ,   < ,.%.$.%.=.:.,.:.,.3.3.=.%.$.O.X.` / ) ) / ` ( ( ` ` ",
"D D r a D ^ L ^ ' ( A.`.I.!.[..X.XOX@X*X=X=X#X&X XH.F.F.!.].~.Q.!.).d     < >.%.$.-.=.,.:.=.&.&.=.%.$.} { ' ` U U ~ P P J K P / ",
"r r 7 r D D D P ) ( C.'.R.I._.|.{..X@X*X*XOX#X%XQ.C.C.E.T.<.:.C.R. .      0 >.%.$.=.%.:.<.&.%.&.%.%.} { ` ` ( U P K F j s p j j ",
"; $ ; 5 9 p a L ( ) S.[.W.J.Q.].[..X@X=X=X+X#X.XH.c.| ,.f G E W 8         t =.O.$.%.%.=.:.%.$.%.&.%.} } ` ( / P F j a u t u u p ",
"X X X $ & 5 9 D ~ ' H.[.(.H.R.`.[..XOX=X=XOX#X XL.c.@.c.U..XXXH.| d o     d *.O.$.$.$.%.:.:.$.%.=.%.O.} ' ( / J j a s t u a a a ",
"          # $ t D { P.}.[.R.G.~.].|.OX+X+XoXoX%X^.T.oX#X%X#X%X_.(.(.T     G %. .$.$.} %.&.=.-.%.:.=.%.} { / / J D j j a j D J D ",
"            X & 7 } R.(.OX_.C.R.).[..XOX X XoX].~./.XX|.XX|.XX`.~.W.d     U } } $.$.} %.&.&.$.&.:.=.%.$.{ ' ) ~ ~ K F F J L K J ",
"                X o.Q.(.OXOXJ.C.Q._.|.OX.XXXXX]./.].+X|.^.W.Y.v.&.g     O ' } } @.$.o.$.%.$.$.&.=.=.%.} { ` ) / ~ / K K K L P F ",
"X                 $.^.^.oX=X_.n.J.^._.|..XXX].'.^._.|.XX^.G.<.6         > } } } $.$.} o.$.O.} $.%.%.$.} ` ) ) ) / / ~ ~ ~ ~ ~ j ",
"                  4._.~.oX=X@XH.m.Q.`.].XX].].(.~._.].].~.C.G           8 O.} o.$.} } } @.} } } @.$.O.} ` ) ` ) / ~ ~ J J ~ j j ",
"                  V.[.~.OX+X;X}.b.C.~.].[.].].'.^./.`.^.~.m.9           i { { } O.} { { | } } | } } O.} ` ( ( / ~ K ~ ~ j J j j ",
"                X W.[.).@X@X=X+XW.j.T.`.].].].].^.^.(.).T.C.6           f ' ` { } } { { { { { ' { } $.} ` ) / ~ K J J D j j j j ",
"                & _.[.).@X*X=X@XXXN.n.Q._.[.XX].].'._.`.~.L.x.6 * >     j ' ( { | } { { ` { { ` { } $.} ` ( ~ ~ J j j j s j j j ",
"                e .X{.)..X*X*X-X X`.:.G.~.].].XX.X|.].`.`.L.L.v.,.-.o   G ' ) ' { { { [ ` { ' ) ` ' } } ) / G ~ J s a s s s j j ",
"          X X   U =X.X).OX=X@X=X X XA.;.L.^.].].|. X'.`.].`.L.K.B.&.q   / ' ) ' { { { ` ` | { ) ( ) { { ( ~ ~ k J j p a s s j j ",
"            O   %.;X.X_..X=X@X@X X X X;.c.L.`.].|.].W.`.].`.T.F.m.1.0   / ` ) } { { { ` { | { ) ) ) ' ' ( / J ~ J j s a a s j D ",
"          X     D.;XoX[.oX=X@X X X X#XL.E M.L.`.]._.W.L.^.`.T.H.m.1.<   / ) ) { { { ` { { | | ) ( ) ) ' ( ~ ~ j ~ F j s a a D F "
};
