/* XPM */
static char *svrgp_tbqam[] = {
/* columns rows colors chars-per-pixel */
"64 64 237 2 ",
"   c #3B2A2B",
".  c #4B382F",
"X  c #77543C",
"o  c #754F39",
"O  c #5E4535",
"+  c #695348",
"@  c #7C5A43",
"#  c #7B5B4A",
"$  c #735747",
"%  c #725D53",
"&  c #604C46",
"*  c #7F624C",
"=  c #7B6154",
"-  c #7C655B",
";  c #78635A",
":  c #776664",
">  c #7D7270",
",  c #5E4D46",
"<  c #865D3F",
"1  c #815C42",
"2  c #815E4A",
"3  c #8B6346",
"4  c #84624C",
"5  c #8B654C",
"6  c #8D694E",
"7  c #836046",
"8  c #936B4D",
"9  c #976B4A",
"0  c #9D724D",
"q  c #9C7047",
"w  c #856956",
"e  c #8C6A55",
"r  c #816759",
"t  c #846A5C",
"y  c #8C6D5B",
"u  c #846552",
"i  c #926D53",
"p  c #966E52",
"a  c #8D715D",
"s  c #947156",
"d  c #9B7254",
"f  c #94735C",
"g  c #9B765B",
"h  c #9D795D",
"j  c #9F7856",
"k  c #A3754E",
"l  c #AC7B4E",
"z  c #A27652",
"x  c #A47955",
"c  c #AA7C55",
"v  c #A17759",
"b  c #A47C5C",
"n  c #AA7E5B",
"m  c #B07F54",
"M  c #A9774B",
"N  c #846D64",
"B  c #8D7364",
"V  c #85726A",
"C  c #8B746A",
"Z  c #877368",
"A  c #937664",
"S  c #957965",
"D  c #9B7B64",
"F  c #947A6C",
"G  c #9B7D6B",
"H  c #937769",
"J  c #8C7A74",
"K  c #887774",
"L  c #947D73",
"P  c #9A7F71",
"I  c #957F79",
"U  c #A37E63",
"Y  c #A57F64",
"T  c #AC825D",
"R  c #AB805A",
"E  c #B38356",
"W  c #B3855C",
"Q  c #B6885C",
"!  c #BB8B5C",
"~  c #B98757",
"^  c #BF905F",
"/  c #9C816D",
"(  c #9F8066",
")  c #9C8373",
"_  c #9C857B",
"`  c #9F887D",
"'  c #968278",
"]  c #A58164",
"[  c #AB8464",
"{  c #A3836B",
"}  c #AB866A",
"|  c #AD896D",
" . c #AE8866",
".. c #B28663",
"X. c #B48A64",
"o. c #BA8D63",
"O. c #B38C6C",
"+. c #B98F6A",
"@. c #B28669",
"#. c #BD9165",
"$. c #B6906E",
"%. c #BC926C",
"&. c #A38572",
"*. c #A68975",
"=. c #AC8B73",
"-. c #A28779",
";. c #A48B7C",
":. c #AC8E7B",
">. c #AA8771",
",. c #B38E72",
"<. c #B18F79",
"1. c #AD917D",
"2. c #A4907F",
"3. c #B59175",
"4. c #BC9574",
"5. c #BE9976",
"6. c #B4937C",
"7. c #BA967B",
"8. c #BD997C",
"9. c #B7987D",
"0. c #C18F5F",
"q. c #C08E60",
"w. c #C19363",
"e. c #C2966C",
"r. c #C5996D",
"t. c #CA9A68",
"y. c #C19772",
"u. c #C49A74",
"i. c #C99E74",
"p. c #C39C7B",
"a. c #C99F79",
"s. c #C09779",
"d. c #CCA176",
"f. c #CBA27C",
"g. c #C5A17C",
"h. c #D1A67D",
"j. c #D2A677",
"k. c #CDA06F",
"l. c #8C8083",
"z. c #9A8985",
"x. c #9E959B",
"c. c #A38D82",
"v. c #A98F83",
"b. c #A48F88",
"n. c #AD9383",
"m. c #A5918B",
"M. c #AC958A",
"N. c #AC978C",
"B. c #B39682",
"V. c #B69985",
"C. c #BB9B83",
"Z. c #B19689",
"A. c #B49B8C",
"S. c #BB9D8A",
"D. c #B89680",
"F. c #AD9993",
"G. c #A69796",
"H. c #B49D92",
"J. c #B99F91",
"K. c #B29F9A",
"L. c #BDA18D",
"P. c #BFA287",
"I. c #B6A093",
"U. c #BCA394",
"Y. c #B5A29B",
"T. c #BCA59A",
"R. c #BEA89D",
"E. c #AEA09A",
"W. c #BEABA4",
"Q. c #B7A6A3",
"!. c #C29E82",
"~. c #C4A184",
"^. c #CBA583",
"/. c #CEA885",
"(. c #C4A48B",
"). c #C9A68A",
"_. c #C6A88D",
"`. c #CDA98C",
"'. c #D3AB85",
"]. c #D2AD8B",
"[. c #D4AA81",
"{. c #D9B38D",
"}. c #D6B28C",
"|. c #C2A693",
" X c #C5A994",
".X c #CBAC93",
"XX c #C4AB9B",
"oX c #CBAE9A",
"OX c #C4A695",
"+X c #D1AE92",
"@X c #CEB195",
"#X c #CDB19C",
"$X c #D4B294",
"%X c #D9B594",
"&X c #DDB995",
"*X c #D3B49B",
"=X c #D9B69A",
"-X c #D5B99E",
";X c #DBBA9C",
":X c #E2BD97",
">X c #EABD8A",
",X c #C4ADA2",
"<X c #C5AEA4",
"1X c #C7B1A3",
"2X c #CCB3A3",
"3X c #CAB5AA",
"4X c #CDB9AD",
"5X c #C8B4A9",
"6X c #D2B6A2",
"7X c #D5BAA5",
"8X c #DABCA3",
"9X c #D5BCAB",
"0X c #DABEAA",
"qX c #CDBBB2",
"wX c #C7B7B6",
"eX c #D4BEB1",
"rX c #D1BFB8",
"tX c #E0BEA2",
"yX c #E4C09B",
"uX c #DCC2AC",
"iX c #DEC0A5",
"pX c #D6C1B4",
"aX c #DBC3B3",
"sX c #D9C6BB",
"dX c #D8C5BC",
"fX c #E3C3A5",
"gX c #E3C5AC",
"hX c #E5CAAB",
"jX c #E4CAB3",
"kX c #E9CEB5",
"lX c #E4CCBB",
"zX c #E3C8B4",
"xX c #E9D1BA",
"cX c #F2D4B3",
"vX c #DBC9C1",
"bX c #E1CDC2",
"nX c #E8D4C5",
/* pixels */
";.L.U.3.O.*.| XXXX XA.B.!.(.2X=X|.*X`.s.C.6.D.*XV.,.*X`.).$X0XoX`.!.U.M.=.N.I C V A 4XXXR.J.H.A.V.Z.A.|.|.S.B.&.y V Z.(.D.) 6.S.",
",Xn.v.XXK.6.6XrXQ.,XY.5XQ.H.R.I.,XW.S. X*XXX~.'.].^.a..XS.D.XXT.XXQ.W.:.|.U.J % N 3.(.=.<.C.7.!.s.g.6.C.3.u.).B.r ; m.n.G S XXR.",
";.J.*X+X1X: 4XQ.2X1XZ.pX5XY.6.Q.A.n.XXJ._.eX2X`.f.h.g.^.).^.H.V.K.S.S.U.L. XL.C C C.6X .8 v T ,.3.n m a.3.v @.O.{ N l.D.).|.#X`.",
"p._.|.;X9XF 5X<X9Xz.).4XeX2XD *XT.T.5X1XY.1XOX`.$Xe.u.`.r..X2XS 6XK.U.1X<XY.V.&.C  XbX<X.X8X_.U !.,.6.V. .] h +.g C c.I.O.9.XX=.",
"`.C.[ y.0XZ.6..X5X;.2XT.Y.XXD.D.2XaX<XT.A.,X|..X^./.`.(.g.U.2X7.C.<XeX2X:.A.|.H u Z.bXoXqXaX$X X*X*X*XU..Xz 3 D $ H H.*.). X2X].",
"0XjX.X). XP.C.U.9X9XT. XpXsXA..XeXdXsX3XU.9X].`.^.(.(.P._.C.A.B.!.eXeX4XG 6.A.- B >.!.eX9XoXp.:X;XjX#X8X7X#X,.6.&.J ' ) n.2X5X*X",
"T.T.R.Y.F.-.%.| @._. X<.(.7. XM.C.0XJ. XaXXXn y.|.p.r./..Xg.7.^.U =.,XS.|.S._ : t e./.6XJ.7X9X0X'.:X:XoX|.U.oX+X&.N > : : : ' Y.",
"m._ _ &.C.Z.2Xn.U %.g.Z.Z.<.7.OXM.S.B.v.B.6.n.A.L.U._ G D.n.:._.F B g A A 4 X e y 7.J.D B.-.;.b.F ;.n.B.(.Z.v.:.H N C : % - / m.",
"H.n.B.J.!...%XwXc.kXeXaXdX4X5XlXsXrXaXsXoXpXvXvXnXnX<X4XdXlXeXeXOX1XwXoXJ g 8.$X~.7.#X2XoX|.I.|.Y.I._ Z.W.Z.W.W.K % 8.A.D.C.|.S.",
"=.<.,.!.|.OX!.0Xc.xXeX2X`.0X2XeX6XaX_.oX`.0XaXuX7XbX0X*XbXaX$X^.(.6X0X1X:.y /.] 1.`.v ].s.%.`.7..X6.+.J.p.XXG.N z.x.: # ,.<.6.(.",
"N U 3.3.!.*X#XA.S.xXlX#X.XgXbXdXpXuX4X7X2X4XuXs.eXlXdX1X0X8XoX0X|.4X{ 3.F ( '.R X.s.] 7.*XoX_.).).~.#XS.c.XX(.&.`.vXl.+ 4.G 7.B.",
"P >.<.D.3.Y s..XI.3X#X$X~.uX6XuXsXoX*X0XuX XeX_.*X7X$X:.!.^.7.C.O.S.S 6._ b '.u.+.6.*X`.oX.XV.jXS._.A.6.| L oXH U oXz.& >.:.B.} ",
"% 4 <.oXB.!.s.!.=.$X|..XD.*X$XXX8X|.!..X6.^.2X|.0XD.OX`.!.B.W 7.B.| s.Y <.3.}.] i.s. XC.$X4XT.nXrX!.OXc.C.D.6XS.S.6X`.B 4 P ;.U ",
"P a 2 >.V.=._.XX=.@.| a.aX2XaXeX$X*XXXoX.XaX7X*XOX X.XoXC.b m a.7.C._.a.C.+.>XfXfX:X+X8XqXXXbXdXbX9XXXJ.dXvXT.XXoX9X].U K ;.P ;.",
"Z.-.v.D g.*..XU.Z.~.@.X.=.Y A.5XQ.A.6.A.|.(.v.7.(.H.OXJ.| | X...!.=X).Y n f.].u.{.~.6.^.^.C.) ^.`.!.s.X.g 6.).~.).{ Y H - =.=.|.",
"!.;.<XH.R.4X,XY.z.K J ' v.Z.% N % P P H c.) >.D.:.,.v.:.>.} p p 7./.>.Y y.@.@.v y D f <.} f G D.-.H z c 2 :..X|..Xr G S.P G ,.^.",
"H.J.6X0X5XrX+X`.m.A.Z.U.H.m.V L P A D.C.> B.7.).V.d %.,.<.U h v p.,.c O.4.3.} | P.!.t a G a B.1.% - h o.*.P { } *XA.&.!.A | ~.V.",
"_.p.s.).OXoX0X!.) ,XN.V.(.m.N Y t y @.6.[ 5.4.s.<.6 x ..s.^.) (  .^.6 0 u.U.1.V.3.| F r y =.Z B y I.C [ (.S.oX2XOX#XJ { ;.6. .^.",
"@.3.] ).,.8X_.,.S.J.|.R.p.&.% y f t | >.&.Y ,.L.>.,.A c 7.!.7.D O.,.j Q g.C.D.6.L.Z.!.6.) t 6.L.A.XXz.@.oXA.*X,XoXH.0X0XfX` f.:.",
"S.3.,.] p.7.6.@. .OX:.D.Z.&.+ g D A *.!.7.D.s.+.s.|.Y O.e.'.d.5.| e 2 6 g.&.i 3.r e g.3.5 -.C.I.U.XXB T .XY.oXXX1X4XzXgX;XL 3.9X",
"eX%.u.@.a.[ ..] ,.1.=.7.<.v.+ y r y G v [ 5.,.3.s.,.>.a.y.d.p.@.6.G b ..@.@. .) 9.G V.&.a ~.1.C C G 4 p.S.2X8X X2X0XuX2XxX' (.lX",
"7X].D @ } @.o.G % [ C.|.D.C $ e D G F ] 6.|.^.O.] ,.4._. .u.$.:...,.s.w.5.@.y.f.{ + + ~.|.U.1.t V a p.3.S.dXeX<X4X2X7X9XxX- f.nX",
"gXs.s XX~.j 4.G } O.!.Z.!.K < 8 O.v B.D.e./.p.6.,.7.!.| ] [ u.y.O.a.7.i.g.^.S.i.*.S *.Z.t n.] 8.A.2.D.a $XI.2X7X.X2X3XuXlXK E cX",
"!.,.^.$XC.:.[ D U P <.A B.V t B - - F J G P ) A 6.S.H.=.;.;.A.!.&.3.%.5.|.fX%Xf.$XpXXXL.K.B.p.D.S.:.8.~.`.N.A.&X~. X_.A.S.H.n.D.",
"5X_ (.&.(.!.B.v.&.v.I ;.n.<.B.v.c._ v.C G >.6.] ] 4 ) 0X2X4XOX7X{ g { U 3.].&X&.=.5XY.R.XX4XpXaX4X7X6X.XaXqXR.XXS.S.1XXX*XaX X2X",
"jXP (.~._.!.C.3.a.p.7.!.,.$.W s.3.7.(.8.n W a.u.+.T * i.@.4.@.T j y d p Q e.C.A ( 4XR.Y.I.6XzX|.H.oX.XL.6.(.oXXX8X5XuXuXaXcX$X:X",
".XU 5.D n d @.7.+.p.y.u.%.s.X.a.a.a.4.i...n +.X.%.:.O i.O.p.O.@.f g U [ d.=.p.F.F 7XXXW.1X@X/._.XXL. X.X*X5X6XC.$X XS.&XfXiX].@X",
"~.).=X_.!.^.y.a.7.u.p.Y n ] @.Y [ @.[ ,.[ y.y.4.O.U 4 *X*Xs.6.<.T a.#X`.).}.).M.&.D.U.-.P.A.[ =.*.C.| ] 6.6.1.S 5.#XN L.8X-X@X@X",
"Q g.'.].^.^./.+.X.w.'.c.} h./.6.S.B.S.&.%.z.Z.;.:.;.g y y D V.-.}.uX(.^.(.B.V.$X X X4XW.XXoXXX XP.#X#X_.L./.a.:.^.].y.*X=Xd.g.f.",
"p.e.a.4.r.h.&Xa.a.s.s.!.+XtX'.e.`.] [.Z.>.;.P *.y u S f a &.;.-.h.aX#X`.5.'.#XgX9X=XW.uXL.g.$X6.6.7XD /.D.4.$Xn.~..X`.'.}./.`.;X",
"^.$X!.{.+.o.X...o.4.Y !.!.<.p.@.[ 0 O.s.%.[ { [ j g | ,.,.7.7.*.f.{.+...%.u./.oX*X$XD.#XS.].}.*X@X6X3.6..X^.%XP./.fX*X].$XL.%X5.",
"^.[.[.tX;Xy.e.y.e.o.$Xn.j.g } i p d U Y s.U v } D d v O.+.(.A.:.$.k.T ~ h.u.yXkX*X8XpXXX5.).8X#XXX X(.$.L.*., . @X.X*X_.}.i./.8.",
"u.e.%.u.4.~._._.OXV.6.8.{.| g %.@.} ,.D.$X!.7.7.p.=.=.3.^.a.^.A.A.(.U._.#X7X,X#X2XT.R.W.XX XL. X6.G %.Y x g 3 S 3.E  ...4.oX%.4.",
"#.! ! Q l d ~.L.U.A.|.OXV.&.S./ ;X=X0X1XoX=X0X*X.X'.uXY.Y '.+X+XXXhXP./.iX$X#X.X*X2X9XaX*X|.$X$X3.` %.[ m %.3.i.o.Q w.! ! w.0.! ",
"w.^ E %.%.X.d.g.,.%.{.!.%.g.].t 6X8X].:X].].%X~.4...:X).U `..X+XC./.i.4.d.`.C.p._. X7XsXL.oX$X~.s.1.[ u.X.e.Q +...t.i.W #.w.w.e.",
"E R Q X.$.S $.W @.T i.[.+. XV.,..X5.^.$X+.^.&X_.6.^.:X8X[ '.8X$X.X@Xg.f.'.}._.}.%XkXpX2X$X*X+X5.g.F.E 0.w.t.~ X.e.#.w.#.o.X.0.w.",
"$...X.%.$.*.,.+.!.D.L.h R i.i.{.&X].*X8X*X*X*X*X*X6X-X2XD.7.O.*.| g.5.#.%.a.*.(.S.9.I.1.9.*.(.D.3.:.X.o...+.x  .#.W ! #.u.o.#.X.",
"#.! E R ~ ! ~ e.I.) V z.L C.*.) Y.H.P m.^.V.<.B.U.C.|.U.Q.B.N -.$.*.n.( D y h =.=.F._.3.9.*.w - b.v.-.b.Q #.e.d.%.%.3.W ! ~ k #.",
"r.Q ! W T ! x s n.D S t C.F 1.,.{ { c v.`...7.,.+.)..X_.oX X.XZ.{ g | ,.U.: 4.U.XXg.$.T | 1.s H z.r # F ^ ~ Q ~ e.#.W #.! R Q g.",
"#.E c ^ E R x @.A.d b h $. .{ (.6.=.u e ^.u.^.Y Y C.!.C.:.U 3.3.{ 4 5 5.[ J { u.p.e.5.U 8.6.s S G u y ' t.E R o.E ! ~ #.X.0.c x ",
"o.! Q R c c ~ f.~.T 3.{ [ #.@.v d &.$ 6.:X7.@.!.V.`.*XL.6XA.[ >.D D s x 3 1.-.X.5.f 7 X.T 4.) f Y <.f G ~ ~ 0.! w.#.E Q R T c E ",
"X.T W ! X.%.5.XX6.~.L.n.Z.v.S.O.p.+X$X1XH.T.J.Y.T.Q.N.~.2XXXA.T.U.A.A.J.;.P.I.n.1.v.A.I.I.U.|.R.S.P 6 %.w.Q z Q %.E E R E l W o.",
"|.~.U 8.(.J  XZ.U.|.T.S.V.Z.G.P.*X(.)._.1X|.^.7.>.6.V.S.+X_.$XgX/.i.=X_.$X`.8X8X XiX*X3.d.}.^.y.U : g ,.B.6.7.).#X2X8X#X6XoXL. X",
"*.| f 1.S.{ h y.6.{ @.G d g.S.6.].7.[ a.].O.,.!.~.a.O.7.+.,.!.6Xa.].+X&X$X/.$X@X$XiX/.X.g.p._...d = 2 j [ v  .| R w.}.d.{.&Xg._.",
"S.V.1.|.oX@.} D [ H ,.,.B.Y C.^.+.W <.+X|.D } } O..X).^.:.(.8XfXa.y.^.&X*X$X8X@X$X8X]./.s.]./.] 4 # j a f g U !.s.Q o.R ! r.d.n ",
"y.`.).~.,.Y n F U .XaX*X_.oXC.|.XXoXXX<X2XXXD.S.(.V._.(.| %. X.Xa.^.*XzX2X#X(.-XXX).g.4.[ 4.3.0 &.+ { ] Z.,.p.6XC.8.4.{ ,.O.5.<.",
"U.U.n.n '.6.Y a.oX(.).+X7XeX*X).2XoX_._.OXXX,XT.oX(.L.D.G.H -.I.A.U. X*.D./ y N.;.2.|.s.* u U 5 | s :.!._.6.C.).n.M.6.2XR.I.U.Y.",
"1.S.|.5.&X`.6.4.p.e.y.tX!.;X'.u.%X'.t.u.{.!.'.6XXXS.d.C.uXA.U / 6. XA.&.,.v.B./ 3.#.v  .4 Z ,.4 [ n n o.+.v 5.v ..h 8.].,.h h @.",
"8.5.'.,.f.~.b q h.u.+.o.W t.y.o.a.i.e.w.h.d.i.e.).OX^.3.).=.,.{ -.9.V. .>.|.5.s.6.4.R W 5 { ,.. T [ [ @ $.h d 0 Y x b b %.5.] g ",
"} w.^.4.:X/ 4 c b k [ j T x 4.{.M %.w.r.e.i.X.r.t.,.7.$.] (.~.A.5.P.L a g ) &.b W [ +.s   u.Y @ x T 3 @ 8 v R  .p [ D D y.+.9 6.",
"S.%.[.~.%XA 4 O.g 4 # j g 8 4.@.u.,.R n | [ z b v n g.5.x &.n.U 3.,.9.B b 4.n.h 4.( T + = ; [ q c 1 z W j  .s v 8 p @.u.^.R [ }.",
"F ,.[.f.*.. 1 6 =.7.# D 5 8 5 d ,.^.6 $ o 1 @ o 2 w s.T j U =.F 3.V.9.*.d %.S.4.1.A a X @ # M l z p 0 a.e %.3.T 4.S  .5.f  .&X#X",
"D.F o.a.:.H ( b b q.e.U W ..O.0 +.+.v 2 8 q 1 7 v | |.8 $X:.] p.4.%.3./ ( &.O./ d * + - ] D.[ X.k b @.T 8 c !.'.4.!.O.%.6.P.X.3.",
"9XeX5X2XU.XXpXeX,X4X3.,.N.S.C.H.:.:.*.p.`.4.9.*.;.M.z.v._ J G ) z.n.V.Z.v./ ] S F 1.~.P.M.XXXXI.{ 3.8.|.(.D '.3.6.oX;XS.*X#XA.XX",
"gXkX;X].6XxXlXxXeXQ.;.hXeXeX6X0XaXR.V 6.F % & & + y m.5.P m.A F z.S ] 8.| 5.L.} (.].4.o.0 i.].o.x E q W O.| ~.| b '.`.'.`.%XaXxX",
"jXfX.X`.%XlXjXaXkXnX;.j./.'.f.7X=XB.D { . = + G O.h X.h T !.)  .8 b O.5.~.h.-X- #.0 d R ! ^.C.e.e.X.X.1 X.X.] @.p.W g.$X%XhX;X&X",
"7.4.`.jXxX8X8X$XtX+X4.%.h.c d =Xe.;.:.| Y B w G f 6 j g 9 D _.t ] 1.B.y 3..X~.+ b k n R d %.g.d.%.W w.Q #.u b 4.9.[ ,./ 4.%.5.*X",
").~.%XyX/.D.s.i.p.+X).s.j.U %.^.|.U g ,.b 9 p u [ 3.(._.C.} %.Z.P.U.P.C.^./.} S v 5 d 3 q E  .E W d 1 0 o < g.4.g.{.p.-XoX$X;X:X",
"V.p..XA.'.].!.).`._.S.C.(.$X*X_.a.N.P ).|.B.>.~ 7.XXS.m.S.B.| V.N.I._.U.&.:.S.n.n.) z.L. XL.n.*.S @.O.8.5.*.[ p.f b =.3.~./.f.].",
"O.h 8 &.p.'.3.v b o.@.e.%.n c r.e.h.a.a.r.a.) ' n.n.A.M.n.V.n.*.V.Z.=.,.D.S.N.9.I.v.5.U. XL.-XH.F S.&.A *.] y } [ 5 v X.4.@.X v ",
"+.f ( =.y.f./.`.].{.).%.o.7.g Y ^.i.c l 9 o.4.U H.A.U.U.1.P.P.B.D.U 3.X.6.S.6.C.D.D f 1.6.Z.P.N.e a.O.b [ D T *.6.n 5 g j +.h (.",
"e 0 g c a.^.fX:XtX$X'.].(.'.=X^.g.`.s.u.] p.^.O.|.,XS.&.,.1.| 6.6.D 0 D | O.*.S a *.{ { 6.D.3.L.| `.7.U n T ,.p.] g 2 { b ..%.D ",
"f X T *.W 0X=X=X%X`.].9XoX8.s.fXuXfXzXjXJ 6X7.} D.|.V.(.} d } ( D |  .s h A a @ 1 d w 3 *.*.,.S.U ^.S b %.3.b ..O.| X.@.# 7 6 8 ",
"/ ] e F !.jX0XzXtX0X0XfX8XfX8XjXlXaX;XnX> 9XO.[ ~.|._._.L.{ S B | n.F d / a 3.-.a i e  .j T { [ f a.U Y D 4 d [ b O.] { { r *.e "
};
