/* XPM */
static char *rz0zl_s70f0[] = {
/* columns rows colors chars-per-pixel */
"64 64 241 2 ",
"   c #3E3430",
".  c #453B39",
"X  c #52372C",
"o  c #584339",
"O  c #48423F",
"+  c #674B3B",
"@  c #74533B",
"#  c #4E4643",
"$  c #564B47",
"%  c #5C524D",
"&  c #5D5452",
"*  c #594F52",
"=  c #654C41",
"-  c #63524B",
";  c #6A5349",
":  c #7B5A45",
">  c #735A4D",
",  c #7A5D4C",
"<  c #745648",
"1  c #645A56",
"2  c #6C5B55",
"3  c #665C5A",
"4  c #6A5D5C",
"5  c #615554",
"6  c #745D52",
"7  c #795E53",
"8  c #6D625D",
"9  c #7D6355",
"0  c #73635C",
"q  c #7B655B",
"w  c #776358",
"e  c #7E604D",
"r  c #6E6562",
"t  c #7C6B64",
"y  c #766966",
"u  c #7D716B",
"i  c #7F7066",
"p  c #7C7372",
"a  c #825D47",
"s  c #84624C",
"d  c #8A654D",
"f  c #8C664A",
"g  c #926A4D",
"h  c #91674D",
"j  c #846553",
"k  c #876956",
"l  c #8C6A54",
"z  c #856B5B",
"x  c #8C6E5B",
"c  c #866655",
"v  c #936E54",
"b  c #916E59",
"n  c #8D705E",
"m  c #947257",
"M  c #9C7354",
"N  c #94735C",
"B  c #9A755B",
"V  c #9D795E",
"C  c #9D714C",
"Z  c #A37B5B",
"A  c #AB7E5B",
"S  c #A67A55",
"D  c #A7774C",
"F  c #846D63",
"G  c #8A6E61",
"H  c #8C7263",
"J  c #85736B",
"K  c #8C756B",
"L  c #8D796E",
"P  c #867164",
"I  c #937563",
"U  c #997762",
"Y  c #967965",
"T  c #9C7B64",
"R  c #947A6B",
"E  c #9B7D6B",
"W  c #92766A",
"Q  c #837572",
"!  c #8D7C74",
"~  c #8C7E7A",
"^  c #867975",
"/  c #947D72",
"(  c #977E73",
")  c #A27E63",
"_  c #A27E69",
"`  c #AD815C",
"'  c #B3845B",
"]  c #B6895C",
"[  c #BA8B5C",
"{  c #B48357",
"}  c #9E816C",
"|  c #8C827C",
" . c #958175",
".. c #9D8373",
"X. c #94827C",
"o. c #9C857B",
"O. c #9D897D",
"+. c #95887F",
"@. c #A58164",
"#. c #AB8465",
"$. c #A4836C",
"%. c #AB866B",
"&. c #AC896D",
"*. c #AF8966",
"=. c #B18662",
"-. c #B58A64",
";. c #BA8D63",
":. c #B38B6B",
">. c #B98E69",
",. c #B18769",
"<. c #BC936D",
"1. c #B8906B",
"2. c #A38573",
"3. c #A68974",
"4. c #AC8B73",
"5. c #A28779",
"6. c #A48A7C",
"7. c #AB8D7B",
"8. c #A98772",
"9. c #B38E73",
"0. c #B08E78",
"q. c #AE917C",
"w. c #AF9077",
"e. c #B49175",
"r. c #BB9473",
"t. c #B4937C",
"y. c #BA967A",
"u. c #BD997C",
"i. c #BC9978",
"p. c #C39465",
"a. c #C1956D",
"s. c #C7996C",
"d. c #C09672",
"f. c #C39A75",
"g. c #C29C7C",
"h. c #C99D76",
"j. c #CCA37C",
"k. c #C8A07B",
"l. c #D2A578",
"z. c #C1925F",
"x. c #8D8382",
"c. c #998682",
"v. c #9B8A83",
"b. c #9B8C89",
"n. c #958785",
"m. c #9D908C",
"M. c #9E9497",
"N. c #9C8F92",
"B. c #A48D83",
"V. c #A98F83",
"C. c #A18E88",
"Z. c #A88F88",
"A. c #A69085",
"S. c #AC9384",
"D. c #A5928B",
"F. c #AC958B",
"G. c #AE998D",
"H. c #B39583",
"J. c #B69984",
"K. c #BB9B84",
"L. c #B19688",
"P. c #B49B8C",
"I. c #BA9D8B",
"U. c #BA9781",
"Y. c #A59694",
"T. c #AC9A93",
"R. c #A99A96",
"E. c #B49E93",
"W. c #B79E93",
"Q. c #BDA08C",
"!. c #BAA08B",
"~. c #AFA09B",
"^. c #B6A194",
"/. c #BCA394",
"(. c #B5A29B",
"). c #BCA59A",
"_. c #BDA99D",
"`. c #BBA89A",
"'. c #B4A6A3",
"]. c #BDABA3",
"[. c #BBABA7",
"{. c #BEB0AC",
"}. c #C19E82",
"|. c #C29F89",
" X c #C3A185",
".X c #C9A484",
"XX c #C3A38C",
"oX c #CAA68A",
"OX c #CCAA8C",
"+X c #CAA88A",
"@X c #D3AD8B",
"#X c #D3AB84",
"$X c #D6B18D",
"%X c #C2A693",
"&X c #C5A995",
"*X c #CBAC93",
"=X c #C0A799",
"-X c #C3AB9C",
";X c #CAAE9A",
":X c #C8A792",
">X c #D1AE91",
",X c #CDB19C",
"<X c #CEB094",
"1X c #D4B294",
"2X c #D3B49C",
"3X c #DAB797",
"4X c #C3ADA2",
"5X c #C4AFA8",
"6X c #C5B1A4",
"7X c #CCB3A3",
"8X c #C4B2AA",
"9X c #CAB5AA",
"0X c #CDB9AD",
"qX c #CFB9A6",
"wX c #D2B6A2",
"eX c #D4B9A4",
"rX c #DABCA3",
"tX c #D4BCAC",
"yX c #DABFAA",
"uX c #D1B6A8",
"iX c #CCBBB3",
"pX c #C6B7B1",
"aX c #D2BDB3",
"sX c #E1BD9F",
"dX c #DBC1AC",
"fX c #D7C0AB",
"gX c #D5C1B5",
"hX c #DBC4B2",
"jX c #D4C4BB",
"kX c #DAC7BB",
"lX c #DCC8B9",
"zX c #E4C5AA",
"xX c #E3CAB6",
"cX c #E9D1BD",
"vX c #F0D2B0",
"bX c #E8C19A",
"nX c #DBCBC5",
"mX c #D7CAC7",
"MX c #E6D3C5",
"NX c #E0CEC3",
"BX c #F4E7DD",
/* pixels */
"..Q.I.e.1.7.%. XQ.:X[.pXI.%X5X;X%X5X'.[.].=XW.R.P.' g.d.d.f.>.d.E B.E.Y.c./ 5.Y.T.x.D.~ R.b.b.N.x.M.b.Q 5 7 N.2 W 0._ z.h.:XA H.",
"-XL.S.=XR.t.2X;X%XwX4XkX2X,XtX%X,XuX5X9X=X%.3.E.W r.h.z.h.) ;.a.0.F.'.Y.R.E.~ 5._.S./ X.W.T.'.~.~.R.J Q r W c.5.%X|.7.,.,.hXX.S.",
"5./.2X$X4Xt 9X[.=X-XpX;XK.i.7X&X%X;X:X:X-X5X|.0X(.7.j.p.;.;.l.j.r.5.5XW._.%XL.W E.} 6.4XE.V.Z.E.W.F.c.F 0 c c < v d.}.|.}.1XP.XX",
"i.:X/.3XtXR 8X8X0XI.J.eX%X%X;X-X0X9X=X4X4X7X;X2X;XK.9.9.,.j.l.f.d.t.R.&.7X4.N oXJ._ 4.V.c 7 d 3.F.; 5.F * F F z d 9..X.XbX@Xd.h.",
"OXu.#.r.yXS.U.-XaX%X|.uX9X9.%X X7X9X7X%X7.E.-X8X;X-.OX9.9.9.>.d.&.T E.R %.T E $.y.i.f.c.C.;XF.T.T.( 7 6 4 J W c %.d.j.$X>XU.s.#X",
"rXxX;XoX&X XI.aX5X4XL.4XW.XX}.7XgXgXaXaX;X%X/.5XNX4.@XU _ 9._ XXS.$.j H , U :XL.e.&XI.P.mXY x E b.Z.B.^ 2 t ^ G d e.l.p.' ;.l.eX",
"/.^.-X/.E.P. X;X7X4XP.4X9X4XjXaX).-X9X;X-X7XI.-X8Xc.v ,.-.2.I &.F 3.:.$.T l k k z E B.7.o.W.3./.T.~ F ; 0 * 4 4 z t..Xj.#.u.}.).",
"C.c.o.5.J.F.5XL.z 2 ! 5.F.G R V.$.$.t.H.6.7.W Q J L F H ! J R ( u H L E 6.v.o.0 t N : < T %.7...G < - . y 5 . # 2 P m K z / _ B.",
"G.t.t.P.K.J.<XS.- 4 Q Y.^ N.~ B.(.Q.;.%XW.G.Q.*XP.).-X=X-XA. ./.F.D.R.W.Q.I.P.6.D.F.7.! n.O.D.D./ 2 - < X.F.C.b.t / P.H.0.I.:XJ.",
"3.&.J.(.! A.L.A.G K ..E Y F 5.E X.A.3.}.P.%XI.I.K.L.I.;X;X*Xr.%.P. XV.%XK.K.K.U.4. .i.6._.4X).P.....> $ 2.L. ./ ~ 5.Z.L.@.u.Q.K.",
"9 _.| y u u p u 4 4 2 t F.B.G Z.P.Q.].=XXXU.7X-X,X%XE.J.&.U.i.%.t.XXI.:Xt.u..X4. X!.S.&.S.=XQ.s $.4.6.X ( B.c.R  .o.B.D.L.K. X0.",
"Y fXY.1 ,XJ.-X7XQ ~ b.p % D.U._ t.4.:.^.S.4.U t./.;X].^.H.H.K.e.*.A f.r.a.=.e.>.i.#.B u.U t.5.%XH.4.3.= ! ....O.5.D.J.t.%X5XJ.@.",
"> x /.% ^.i.r.1XF L | 8 r ^.t.t. X5.e.-.) Y T 9.c U H.F.4.;X~ /.o.M ' ' g.r.i.*.d.u.U  Xw.:.E I.4.t.z = ..S...6.6.$.J.4.) 0.o.T ",
"R H `.3 | Q.} K 3 & 8 v.Y.8Xz t.F u L t.%.T V.;XJ.N @.%.H.l f U R.6.8.K.Q.e.E.S.k. Xy.>.K.y.r.B N J.E q I l I H Y L.y.2.K 2. .2.",
"L.2.%Xy 5 X.x.u . Y.G.K 6.6X1 $ 4 y p & T.`.O.U.$.&.%.q.F.( B B ..( b g.L.U.XXK.3.OXu.i.i.&.i.e.4.@.e j U + d N < Z @.2.V.4.4.XX",
"k.5.jX| r jX8X8X# | F.D.Q u x.m.b.m.8Xr & Y.H e o F E j k } o.$.a < 6.P.P.].S./.J.6.L.6.S._.3.T 2.3.5.} Y ; < d E x E j k 6.>.g.",
"D./.gX| r aX6.0X8 u kXr i pXnX,XP.J._.1 p S.n +.> ~.jX%X%X%X8XnX4.K 9XS.;X7X-XXXy.K.K.I.%XU.!.j 9.J.q.O.L 7.Y S.7.H.oXH.P.:.}.H.",
" Xi.yX| & _.3.&XT.# J O jX!.5.q...!.A.O ~.`.O.0 u M.dX7XqXP.fX'.x.V.%.).u.4.J.H.S.K.,XP.Q.!.K./.3.t.A.G.F.t  .H.U.U.J.J./.t.*.k.",
"!.,XqX .1 8XT R A.t +.8 1 S.P.J.2.+.# +.L.A.8 & 0X8XoX X,X6.xX+.3 b.u u u ^ x.+.8 ^ ;XB I.:XI.XX3.I.V.o.V. .5.:XL. X7.&.;XO..X4.",
"gXgXfXD.| 6XT n k V 4.(.6.8 i J 8 1 A.P.N ^.`.& y D.Q.,X;X/.nXx.# | v.`.!.2X2XeX .A./.$.} S.J.q.e.|.Y / /.U.b E _./.J.b 3.K e.eX",
"fX X2.} %Xn Z n n N M x 3.F.c.L  .F. .k < H P.G.u u ^ ^ 9XXXnXp O m.5.I ..7.u./.S.XX&X8Xr 8X!.$.t.E 7.^.v.V.2.J.!.,X/.P.dXo.*XdX",
"yXf.o + 9 > j ; > $ o o X o t J z k k x m E N } ..C.0X].-XaXNXy | & u 7X .9 ../.].S./.v.& jX^...H k oXG.).A.W.7XS.!.!.9Xr Q zXxX",
"zXf.} 0 X.q L | L K q w 9 H 2 - - - $ - w P H  ...+.aXE.iX,X-XR.NX[.8 y b.P.R &.&X<X2X0 | zXI.! t G.3.K./.E.F.B.O.G.~.% v.(.i.vX",
"I.4.+XH ^./.%XS. .].fX6XtXtX].C.W.Y.A.6.2 0 0 % - & ^ L T.o.H E o.P.T.^ 3 r v.O...^.8X% ~.-XqX|   Y.G.3.H c.^ V.,Xv.% m.MX| Q ,X",
"7X .&XH 0.;X;XU.3.$.8.0.|.=XaX%XXXy.Q.;X| } 2X-XL. .i % $ # y '.m.O.G.tXfXm.{.nX^.4XY.3 iXP.].8 & 8 (.-X4X9X9XjX| 1 pXlXkX8 M.lX",
"zXE +X4.h x e.0.9.%.j h a B N |.xXzXzXMX[.: 3XfXOX2XxX7XG.! 8 y L.-XxXfX*XeX-X`.J.zXu +.xX<X`.$ R.& m.,Xw.,X0Xu Q NXMXfXgX8 fXbX",
"OX@.i._ V a U B Z N T c b b U ) y.xXdXcX].- cXoXOXr.1X2X!.3XdXA.2 9 e.fX,X2X+X:X-XkXn.jXlXq. .% jXy p cXfXR.5 v.cX`.t.vXfX| lX<X",
"k.XX1XK.|.&.) ) 7.E $.U N ) 0.9.J.-X*XXX$.U /.H U M } | Y x V N } Q % 8 J G.G.n J.6XA.E } } ^.!.0Xn.1 pXu * (._.@.} O.!.qX`.3X&X",
"' k.@X$Xj.+X$Xa.-.s.$X7.%X:XJ.eXrX*Xt.&XyXeX2X:X2X3XQ.+ v M v T T.!./.t .  .:X_.L...4.t. Xt.e.u.J.gX% 8 | iXfXn 7 3Xt.!.!.#Xk.k.",
"f.r.h.a.s.l.3Xg.g.d.r.:X_ &.E N e.:.$.wX2X1X,X X3X,X2X6 f d 4.m @.e.-.2X! O P k.XXX.g.$.*.M m #.`.hXr `.gX*XQ.V.9 <XOX+X!.XX.X3X",
"j.$X X$X>.-.>.] a.g.-.g.9 U %.e.Y T _ 4.0.|.eX:XXX,XyXq g a B :.m %.B %XhX1 T &.%.5.e.m $.*.T V !.&X .!.!.!.%Xo.9 dX<Xt.F.S./.g.",
"k.#X.XzX3Xd.>.>.Z A 1X%XB 9.t.9._ c d b T y.#.U.U.y.H.0 B V s %.U F } q..., @.#.$._ g.f.&.4.w.i.<.w.$.w.4.> $.I v..X<Xe.$Xu.u.u.",
"a.s.>.f.r.%X-X(.[.uXuX7X]._.4X=X(.5X_.S.uXiXmX9XF.-X4XaXiXnX7._ } 9 9 H T I ( J 0 J.z G 6.6.X.B.S.$.W q.V.T T V.I.0.W.H.P.J.t.d.",
"[ [ [ ] D B OX|.;XwX2XeX:XXXoX.XoX%X2XP.-X;XL.7XpXiXxXyXqXjXI.@.2.OX%.q.S.N U 9 2 y 4 x.= 2 ! / P.r x (.4X>XU.&.f #.-.0.9.r.i.[ ",
"z.z.' >.a.=.$X#X3X>XoX@X1X3X@X1X#X>X1Xt.4XXX X7XgXkXmXkXkX4XXX#.T m &.*.o.R H u w w 7.2 ~  .9 ..XXo.6.7XU.J.P.8._ r.t.>.<.K. Xp.",
"` S ' -.:.) zX1X@X>X|.r.>X1X.X1X3X>XsXI.4XtX-X7XaXaXnXkXkXnXwXv m e x B E F 9 z 9 w +.m _ 7.< G W.E.6.) g.u.i.K.f.r.XXy.}. Xh.[ ",
";.#.;.<.<.4.g.XXW.XX%X|.*X%X X X*X=X%X:X=XI.7X-X6.J.].4X;XqXG.B.H.L.;Xe.7.Q.%.:XQ.Q.^._.S.Y...@.:XS.y.0.H.e.S @.] A ;.-.a.[ ;.-.",
"[ ;.{ S ] [ ' p./.uXeX:XwX;X-X%XrXyXyXK.:XoX*XH.}.0.%Xt.M 4.qX5X'.).XX}.@.v g -.) r.*.i.!.K./ V./. X%X;X%XW.4.8.:.u.;.] -.[ D [ ",
"p.] ;.{ { ' D v P.9.t.aXwXwX7XwX;XwXdXH.W.wX2XF.@.v 9.e.%._ Z d.}.oXK.t.4.U.-./.u.<.K.XX+Xy.T 9.K.OXXX%X:X%XK.I.J.S.i.[ [ ` ' h.",
"[ ` ` [ { Z Z %.;X..F.BXdXyX2XdX).;X%X:X/.5XwXB.3.9.y.|.;X,X9.&.-.*Xy.1.r.U.' }.y.u. X.X#.T 4.#.XXK.}.y.&.@.J.y.W.<.r.XX:.p.S C ",
"[ [ ' { D D [ f.*XnXhXtX,X-X7XuX7X).I.I.I.P.U.( Z B Z t. X_ t.,XU } $.A r.#.9.4.H.}.r.Y T @.$.d S. XH.K.:.4.) :.e.r.,.9.9.;.A { ",
"] ` ` [ >.r.g.&XH.A.0.t.9.J.U.E v M S ) :.4.6.E.P.( S.H.P.F.( G x a n T Z H.=XP./.I.;X).7X%XwXJ.I.3.N <.r.9.S ` >.;.{ A A D { { ",
"Q. X&.9.S.K H.S.I.P + z 7 > 8.9 < ) h.;.N P.W.}.(.].H.8.7.3.S.R.b.%X%.N y.u. XZ e. Xi.r.r.g.g.XX&XK.XX+X&XXX X/.5XXXXX%XeX,X X&X",
"2.&.B q., H XXt._ ..7 6 ; 7 U W 2 E a.Z d l _ I.J.) #.4.) H.) U.5.5.^.(.t.g.K.e.u.9.&.#.2.K.y.y.t./.%XY t.7.I.XX2.#.4.-.@X@X X.X",
"u.J.q.%X5.o.$.} @.d j H G 2.E j > 7 B j Z U 2.u.@.L.K.}.4.9.S v &.XX-X/.H.K.Q.$.k ) g.9.).xX}.y.wXOX4.&XY S.t.e.q.J.K.$.:.;.l.S ",
"r.oX+X Xu.!.E ^ ..V.( q I R W.c.c.~ o.2.7.t.9.9.$.T 4.Q.;X)./.).].E.A.v.F.[.8XL./.K.y.Y.C.q.t.S.S.J.u.0.@.$.4.4.Y 4.u.L.t.e.i.3.",
"^./.S.V 3X/.3.!.I.;XL.(._.-X8XMXiX6.H.5XeX4X4X6.*Xc 9.].4X].4X(.].(.4.T.'.D.E.A.x.E.B.M.D.X.x.} J F.C.A.v.7.XXt.H.|.y.%X7X/.^.^.",
"4.K.&XE &.2.^. X}.9.4.I %.b + , q.}.)./.r.y.9.-Xq.e.}./.U./.%XXX/. Xy.).-Xo.6X .2 *XS.I.4.B.~ 5.K O./ L.c. . XM $./.!.I.P.q.m =.",
"u.i.#XH T n %.B 4. XN 6 T 3.- = N 7.K.J.@.4.:XP.Y oXoXP.E J.I.6.3.y.#.6.8X%XE.,Xy.i.e.t.$.Y R K v.V.o._ X.X.*.C &.t.9.U %.w.%.M ",
"%.p.j.Y e.2.s t.$.w.$.4.T H Y z !.2.&...4.4.Z B i.4X). Xt. XI.S.7.J.H.H.5XL.H.9XOX.X9.K $.H $.Y K H.C.D.^ } ` #.&.%.v M <.>.f e.",
"P.-.#X9 3.q.U y.I K %X4.N , 7 V.Q.$.T 6.H  .^.&Xg.XXJ.2X XK.t. X$.&.S.t.-X;X9.5.qXt.:.Y I R x 2.- w 2.6.c.A.1.B m l M f.g.A Z #X",
"Y _ J.T K x c q o.7X3.v 5./ L L z ..B x Y J.;X).B.:Xu.U.i.&.t.e.3.2.4.K.I.t._ R T _ >.N E 3.N x j x d ( } ..XX` m H #.V S M } ,X",
"y.( :.$.P 4.T $.l N N x Z 8.= : l 6 s l > l s v >.W.e.S.K.t.;XI.g.%XI.J.7._.B.E.J.oX1X#.N k N H E U.6.4.( S.oXi.e.k.e.f.i.4.M r.",
"tX7XE.S.A.S.O...G E D.C.C.! ( W Y ,.u.o ) I 5.t.3.5.4.6.H.S./.E.U.P.S.2.L. XL.B.E.C.D.F.O.( $.N Z $.$.t. XE.A.G.w.q.rXK.,XeX!./.",
"3X*Xw.} J O.6.4.U.A.S.k E S.v.^ c.^ L.O.9.}.D.5.E 7.L.!.t.H.3.K.) ) %.( A.7.J._ ! F.D.+.(  .( J.Q.3./.L.3.U 2.4.c.5.@X#XOX1XhXcX",
"zXzX;X<X!./.!.e.y.J.4.9 c ) x x Y K Q c.G 7._.|.K.:.#.B T %.&.B g #.i.Z -.7.*Xd + 4.(.S.B.t.3.*X/.&.Q.K.2.k I l O.4.f.>X@XzX3X3X",
"t.r.OXK.w.n @.:.M w.Z k s f N M E %.q o . y H.m &.:.v M M V l Z *.m >.a r.&.&.S.K 8.P./.t.Q.K.J.U.J.;X4.T x I c q.@..Xi.2X}..X1X",
".Xk.3XrXq.d B @.N c x N k l v &.U Y 2.&.%.:.d a M _ f a v m h ) #.v A : v 4.f.e.0.=XW.}.9.8.F.=XP.,XN B k : : x , K. XOX2XrXrX3X",
"J.k.*XP.#X@Xr.` 1.%.9.r._ ) $.E K. X|.}.}.y.0.%XK.7.).Z.I.}.|.E m 0.&._ _ y.H.3.3.x %.7.P.F.F.E.S.S.! 6.( S.W 5.E 4.*.t.}..Xl..X",
"*.B g $. Xp.{ { ;.[ A ] { 4. X=XXX6.3.0.|.L.,Xg. Xe.}.0.H.tX4XiXC.U :.J.)./.;XJ.B.E.2.I.u.Q.E.I.Y.E.F.O.F 5...M 5.Y M -.r.:.@ M ",
";.N } 4.<.s.;.] [ ` ' z.] E zX>X7.B H.P.f.U.7.9.,.) :.9.H.%X%X9XmXB.y. X:Xt.*X9.y.e.y.A :.1.&.I.4.oXB.6.6.v f a y.&.f N Z -.) }.",
"l C m ` j.a.] ` ] ] @.>.' $. X$._ R 0.H.&.y.t.0.U.U.t.:Xt..X:X=XiXW.,._ .Xi.8._ 9.Z A M E t.@.} I.3.y.4.Z l v : M B a $.Z ' r.N ",
"N @ ` $.-.>.[ A ' [ Z Z S 7.B.) t.u.=XI.2._ H.:X}.J.J.y.|.%X*X%X]...,.T v N v Z M 7.$.@ : l o.&.Z I W @.v $.N < S ) >.&., s l h ",
"} ` s  .g.f.' ] { ' Z ;.' 0.7.7.I 4.H.I.V.U.y.,.7.4.4.d.0.}.tX%XZ.3.$.oX4.b ) ) d l T T B ) E 7.Y 8.$.N T $.$.%.) $.Z ) } j $.d "
};
