/* XPM */
static char *b4j5y_jpckk[] = {
/* columns rows colors chars-per-pixel */
"64 64 245 2 ",
"   c #070609",
".  c #110E13",
"X  c #181518",
"o  c #0D0C10",
"O  c #221C1E",
"+  c #271A19",
"@  c #34221E",
"#  c #231D22",
"$  c #2C2424",
"%  c #292325",
"&  c #332A2A",
"*  c #382B29",
"=  c #3C312E",
"-  c #332D33",
";  c #3B3338",
":  c #2C2730",
">  c #1F2130",
",  c #47332C",
"<  c #583B2C",
"1  c #443532",
"2  c #4B3936",
"3  c #41363A",
"4  c #4B3C3B",
"5  c #453939",
"6  c #523D38",
"7  c #432F27",
"8  c #4E403C",
"9  c #54413D",
"0  c #5A443D",
"q  c #5A4135",
"w  c #674838",
"e  c #78553E",
"r  c #734E3A",
"t  c #3E3B45",
"y  c #453D43",
"u  c #4A3F42",
"i  c #4D4144",
"p  c #4B444B",
"a  c #534444",
"s  c #5B4A45",
"d  c #52464A",
"f  c #55494C",
"g  c #5B4C4C",
"h  c #594843",
"j  c #5E504F",
"k  c #534B51",
"l  c #5A4E51",
"z  c #5D5154",
"x  c #5E5358",
"c  c #4F4751",
"v  c #614E4B",
"b  c #644D44",
"n  c #63524D",
"m  c #6A554C",
"M  c #685248",
"N  c #7C5944",
"B  c #7C5C4A",
"V  c #755647",
"C  c #635453",
"Z  c #695653",
"A  c #6B5955",
"S  c #62555A",
"D  c #66595C",
"F  c #6B5B5A",
"G  c #665955",
"H  c #725D55",
"J  c #745E56",
"K  c #7E604D",
"L  c #74625C",
"P  c #7B645B",
"I  c #7C6357",
"U  c #68605A",
"Y  c #6C5E61",
"T  c #786764",
"R  c #776F70",
"E  c #855E46",
"W  c #85634C",
"Q  c #89644B",
"!  c #9C6E4C",
"~  c #93694A",
"^  c #826452",
"/  c #8C6B55",
"(  c #846B5D",
")  c #8B6D5B",
"_  c #876754",
"`  c #936D52",
"'  c #946F57",
"]  c #8C715E",
"[  c #957155",
"{  c #9B7354",
"}  c #94735B",
"|  c #9A755B",
" . c #9D795E",
".. c #9F7857",
"X. c #9C724E",
"o. c #A6764D",
"O. c #A47753",
"+. c #AB7D55",
"@. c #A37B5C",
"#. c #AA7D5A",
"$. c #A37956",
"%. c #856E63",
"&. c #8D7364",
"*. c #89746B",
"=. c #947563",
"-. c #947865",
";. c #9C7B63",
":. c #957A6B",
">. c #9B7D6A",
",. c #967665",
"<. c #8A7A76",
"1. c #947E73",
"2. c #987F73",
"3. c #A27E63",
"4. c #A37F67",
"5. c #AC815D",
"6. c #A7805E",
"7. c #B3845C",
"8. c #BA8B5C",
"9. c #B5875A",
"0. c #BE905E",
"q. c #9E826D",
"w. c #9D8375",
"e. c #9C857B",
"r. c #97847B",
"t. c #A48165",
"y. c #AB8364",
"u. c #A4836B",
"i. c #AA866B",
"p. c #AD896C",
"a. c #A9886C",
"s. c #B18662",
"d. c #B48A65",
"f. c #BA8D63",
"g. c #B38C6B",
"h. c #B98E6B",
"j. c #B38668",
"k. c #BB916C",
"l. c #BA9068",
"z. c #A38572",
"x. c #A68974",
"c. c #AC8B73",
"v. c #A48A7B",
"b. c #AB8D7B",
"n. c #A78774",
"m. c #B38E73",
"M. c #B18F79",
"N. c #AE917C",
"B. c #A6917A",
"V. c #B49174",
"C. c #BB9474",
"Z. c #B3937C",
"A. c #BA967B",
"S. c #B7987E",
"D. c #BC997C",
"F. c #BE9875",
"G. c #C19263",
"H. c #C1946C",
"J. c #C89A6C",
"K. c #C19673",
"L. c #C49A74",
"P. c #C99E75",
"I. c #C39C7B",
"U. c #C89D7A",
"Y. c #C7A07C",
"T. c #CBA27C",
"R. c #D2A67B",
"E. c #D2A16C",
"W. c #C18F5E",
"Q. c #9A8883",
"!. c #878082",
"~. c #A48D83",
"^. c #A58F87",
"/. c #AC9383",
"(. c #AC958B",
"). c #A7948A",
"_. c #B39583",
"`. c #B59984",
"'. c #BB9B84",
"]. c #B49A8B",
"[. c #BB9D8A",
"{. c #B69784",
"}. c #AA9994",
"|. c #B59D92",
" X c #BA9F92",
".X c #BDA18C",
"XX c #BCA088",
"oX c #BCA394",
"OX c #BCA59A",
"+X c #B8A49A",
"@X c #B7A8A5",
"#X c #C29E82",
"$X c #C29F89",
"%X c #C4A184",
"&X c #CBA583",
"*X c #CEA985",
"=X c #C3A38C",
"-X c #C9A68B",
";X c #CDAA8C",
":X c #C6A88C",
">X c #D3AB84",
",X c #D3AD8B",
"<X c #D4A981",
"1X c #D9B28C",
"2X c #C2A592",
"3X c #C5A995",
"4X c #CBAC93",
"5X c #C3AB9B",
"6X c #CAAE9A",
"7X c #C2A69A",
"8X c #D2AF92",
"9X c #D0AF99",
"0X c #CDB19D",
"qX c #CCB097",
"wX c #D4B294",
"eX c #DAB594",
"rX c #DCB895",
"tX c #D3B49C",
"yX c #DABA9C",
"uX c #D7B79D",
"iX c #E2BC99",
"pX c #E2B98B",
"aX c #C4AEA4",
"sX c #CCB4A4",
"dX c #CAB5AA",
"fX c #D2B6A3",
"gX c #D4B9A4",
"hX c #DABCA3",
"jX c #D5BCAB",
"kX c #D7BDAA",
"lX c #C9BAB5",
"zX c #D5BFB0",
"xX c #E0BEA2",
"cX c #E4C09B",
"vX c #DCC2AC",
"bX c #DCC1A6",
"nX c #D9C4B6",
"mX c #E3C5A9",
"MX c #E4CAB3",
"NX c #E6CDB9",
"BX c #ECD2B9",
"VX c #F4D6B5",
"CX c #E7D4C5",
"ZX c #EAD5C5",
"AX c #DFCDC2",
/* pixels */
"w.[.oXm.h.b.i.3X5X3X{.b.v.v.[.(.*.^.*.P *._.[.hXA.C.uX8X=X9XkX0X8X=X=X).c.].1.%.R ,.fX5XOX(./.<.^.Q.2.~.Q.}.Z.z.) *._.=X`.w.V.'.",
"5X_./.7X}.M.fXlX@XsX(.~.~.~.1.}.T T H T R :.V.C.=Xm.m.g.b.m.m.n.M.m.A.S.S.m.&.} =.m.A.c.M.{.2.T %.r.e.<.*.}.<.{._ J ^./.>.-.5X@X",
"v.oXfX,XaXT lXOXsXsX~.|..X].OXr.v.R v.%.S J @X XgXy.! Q E h.{ E N V 3.h.#.{ ` m.o.#.s.;XQ / OX).2.<.Q.^.e.).T p.n.%.!._.;X.X6X-X",
"K.:XoXyXkX:.dXaXdX~.m.m.p.m.c.S.w.*.&.>.s &.OXfX8X#Xo.| W U.K.O.' <  .H.! | [ { Q E _.BXN B c.} ) B J ( m B P g.| *.~. Xg.S.6Xa.",
",X'.y.K.kX_.Z.4XsX~. X~ ` O.o.o.! ! e w M E iXMXxX,X+.E / p.p.{ ` w | H.Q ~ y.! ` ' BXBX4.$.< w r E ~ ! E _ p.;.b :.}.n.=X3XsX<X",
"hXMX4X-X6X$X'.OXjXjXOX6X`.#.! +.#.| B V V N B B 0 , * $ @ + + + + @ * @ 7 , < w w N Z.=XU.Q N Z b V #.j.j.z.u.@.c.1.r.w._.sXdX0X",
"|.|.aX+X}.z.h.p.j.:X4Xb.:X@.N W E q , $ X X . o . X X O O $ $ # $ % O O X O O O # + + @ 7 < e w w V E { Q /.i.Q V V <.T T T 1.+X",
"^.Q.r.z.'.(.sX/.3.h.I.{.{.V < $ X . o . X X O # & $ & 1 1 1 4 1 2 = = 2 & = = $ $ $ $ & $ $ $ 7 < < r i.&.$XD.;.4.{.*.H L T >.^.",
"]./._.$X#Xj.eXlX/.VXNXZXU   X . # X & $ % = & = 2 = 2 6 2 w s 8 0 4 = 0 1 2 6 1 1 1 * 1 & & & & = % * '.Z./ y.3.;.;.2XhX'.'.2X{.",
"n.M.c.$X2X=X#XzXe.[.r.5 o % O $ = & 4 9 2 a 4 2 0 6 0 0 9 s M 0 b h 2 M 0 0 b 6 6 0 6 h 9 5 2 1 7 2 7 q ^ V u.,.=.v.>.^ m.m.A.$X",
"( ;.C.m.$XtX6X9XC     o # % $ 4 4 8 Z J s s v n n s m M M J n d Z v h H n n m n b A s b M 9 M b 5 1 2 * * X C =X$XnX!.m C.>.A._.",
">.c.b.A.C.4.K.xXG   # % = a 4 C n n A C a C g m Z m n C a P A y C f d v s v j l A P 0 d s a j M h h 6 9 6 $ H b.>.6XQ.s c.b.Z.4.",
"H W M.6X_.#XC.1XF . = - 3 d d v C Z C C s L v n Z m j g h L A i j C f H h l C C m L h a s a h H m M h b h = M 6X].fX4X( Q 2.~.;.",
":.) E n.{.Z.2XfXF O y 3 3 a d Z z s m F G F s F A n n g h H D s Z j d H v l C l n Z C F A s A F A A v h H s b 6XsXgX1Xt.<.z.2.z.",
"_.n./.=.#Xc.-XfXC # y y u d h A D g n C j F g F Z g g v h C x j m j d H Z l j c g Z f G L f Y T m S Z h H a m yX#X4.i.=.P c.m. X",
"#X~.aX XOXdXaXdXl - u u u l a C d f L x g D C D A f l C h C x n m v d n C f C x C d z L Y d F T Z Z C s n 9 n gX:X( :.[.2.u.m.U.",
"). XsXkXdXzX4XiXx - p p g l 4 k p a l d f D C l D f g n a F D d m C k C S f C x d C D G T d D T s j Z v s h 1 D.qXXXw.D.&.p.&X_.",
"$X#XD.-X7X6XgX8XC - p p l p d k l d l 2 u F C l S f a l 4 F S d m F p C x f x l l Y f 4 C a S L g j C h a a 8 uX7X0Xr.u.v.N.d.Y.",
"#.M.i.&Xg.hX$XI.D - y p x l f l k d x f k T Y l S C g F s j Y l m Z l x k f z g z S C g D d F P v C A v 1 4 2 oXsX|.nXhXbXr.%Xc.",
"$XC.g.4.#XA.M.K.A - p k x D g x D g S l j T D Z F C Z Z i 4 i i d n f g g h v i f Z F 8 n n Z F g v F v 9 8 2 oXsXjXvXmXyXr.m.gX",
"kXC.U.j.I.3.5.C.F - c c l S f l z j S g Z J C H A v m H h h s A n C d g M g s 5 s Z Z h J s f m b C F C h g 1 `.jXvXvXsXVXr..XvX",
"sX,X| N g.g.s.t.l ; p k c Y l l d C z g C C C F n g A v h f g Y n x k f h d C h g C Z f F h f A C Z F n h n 1 (.nX5XfXbXNXP R.CX",
"mXI.{ 5X%X..C.m.F : p p c k a f d z C s A D F C j z Z C 2 j x D C T p d i 3 C z d C C z C f a C C C f v 4 C 9 ].tXaXdXvXvX<.7.VX",
"[.m.&X8X'.b.i.4.c - c y c c u x g x S x S S x S x x G D x g D D Y Y S k l f z x l l C z l l f f f h h 4 4 n 1 x.wX=XoX]..XoX/.Z.",
"0Xr.=Xu.[.#XZ.[.l : u p u d c k d a d d d k g g D x Y l x D z x x l D i g f p z f d g i k g i d a a g a g v = ] 5X].5X5XfXvX3X0X",
"mXr.=X%X3X#X'.&Xg > t y y y p u p p 8 i u 3 ; 3 5 y 3 ; y ; i 3 ; ; ; ; ; ; i ; - $ y i y ; y 3 y 3 ; u u 5 $ / MX3XbXbXMXBX8XrX",
";Xt.A. .#.{ g.I.P m T ( J _ ) &.P B ( L =.:.*.r.*.P L %.*.:.:.*.*.T %.1.Q.r.R 1.<.*.T P T A 1.:.T I ) 1.1.&.*.Z.`.XX`.cXhXyX8X;X",
"I.=XyX;XI.*Xg.m.h.d.g.7.+.+.s.7.$.5.X.! G.h.h.J.| k.U.t.K.I.j.t.y.g.;.t.p.{ _ &XZ.V.=XwXwX} p.k.L.g.y.d.g.t.g.=.( qX<.].qX0XwXqX",
"7.Y.>X1X&X&X<Xh.5.l.>X~.p.>X>X_..X].oXN.g.Q.(.x.b.~.} / ( ,.].z.;XvX:X*X=X].`.wX2X2XlXdX0X0X5X3X[.6XsX[..X*X'.n.Y.;XL.wXuXR.Y.Y.",
"U.k.U.k.L.R.yXU.U.P.h.[.8XmX<XH.*Xy.R.(.x.v.w.c.} K ;.) ] c.v.e.>XvX0X;XF.<X6XmXjXyXOXvX.XY.tXZ.V.jX3.&X`.F.rX_.%X4X;X>X,X*X;XeX",
"Y.wX&X1Xg.d.d.7.f.C.s.&XI.Z.I.p.y.! p.C.k.y.u.y.} | p.V.m.A.S.c.Y.eXd.d.l.L.&X6XtX8X'.qX].,XeXwX8XsXA.%X%X;XqX_.,XbXuX;X1X.XeXF.",
"Y.<X&XmXyXH.H.L.C.f.wX/.E.} i.` [ X.3.i.I.3.$.i. .{ @.g.d.:X$XN.l.Y.5.9.R.T.cXBXtXkXnX5XF.4XhX0X5X.X%XA.4X3X[.D.wX;XuX:X,XL.&XA.",
"H.H.k.F.C.-X-X=X3X[.V.S.1Xc.| k.j.i.m._.wX%XS.A.D.c.c.V.<XS.b./.S.F.:XqXtX3XOX=X6XoXx._..X'.2XXXD.c.Z.V.A.'.p.>.D.f.d.d.D.6Xk.k.",
"0.8.0.9.o.[ %X=XOX].2X2X'.z.'.q.yXuXhXsX4XyXkXuX4X>XvX+Xi.I.W g.m.F.x.v.oXB.`.OX=Xx.N.c.#XyXwXsXqXyXjXuX4X&XhXaXu.E.G.8.8.G.W.W.",
"0.0.9.l.k.f.Y.Y.m.l.1X=Xl.Y.;X( fXyX,XiX,X,XeXY.L.y.rX-X| '.;.;.g.c.N.D.Z.Z.R.wXA.K.,Xq.B.VX;XcXwX;XrX;XL.d.eXwX .J.G.9.l.G.0.G.",
"5.5.9.d.g.;.k.9.d.5.L.<Xg.4X'.m.4XA.&XwXh.&XrX-XV.>XcXhXg.p.} | p.F.u.L.k.C.f.&XL.F.5Xi.oX%XL.wXK.L.eX;Xm.Y.eXvX@.E.J.l.f.f.G.8.",
"9.y.f.k.h.x.c.d.#X_..X .5.J.P.1XrX,XtXhX0XuX0XqXtXsXuXsX[.{.4.| y.k.m.Y.;Xm..XN.@.k.Y.<XrX,XwXbXtXuXtXtX9XgXhXfX_.P.k.d.H.8.l.f.",
"8.f.9.+.8.8.9.J. Xw.*.Q.1.'.v.w.+X|.1.).&X'.Z.`.oX'.2XOXOXb.&.v.C.C.V.g.&X>Xw.<.r.c.S.>..X+X~.e.;X'.{.Z.OX'.oX2XaX^.oXK.f.8.o.8.",
"l.9.8.7.7.9.O.[ /.;.;.( [.1.N.m.u.u.+./.;Xj.C.V.d.-X3X-X6X4X=X_.u. .p.C.c.x.;.] w._.:.'.-.x.O.x.3Xh.g.C.g.#X4X%X6X3XqX=Xd.#.9.Y.",
"G.7.+.0.9.#.$.p.[.[ @. .f.p.u.%XV.c.^ _ &XL.*X3.4.'.#X'.b.u.S.x.u.B W I.e.Z.|  .5.L.=.#XS.N.=.B I.L.&Xc.$.'.$X$XZ.;.tX2Xi.0.+.o.",
"8.8.7.7.O.7.9.Y.I.5.V.t.y.l.g.@...n.V V.rXC.g.'.`.,XtX=XhX[.a.n.q.} 6.m./ $XC.c.4.d.C.y.$.u.) } iX#Xp.L.{.;X4X XtX$X0XsX5.7.7.+.",
"7.5.7.8.d.k.F.3XS.XX=X(.`./.'.g.I.8XtX0X+XOXoXoX+X|.(.`.~.r.q.z.m.S.P a.>.%Xc.u.u.>.{.Z.].[.V. X_.[.Z.[.~.'.>._.[.Z.Z.u.{ +.;.9.",
"oX%X3.F.=X<.2X`.2X2XOX|.`.].}.].tX.X=X$X|.2X#X[.N.^.(.:.v.Q.<.r.r.].&.y.(.~.1.2.(.oX/._.b.[.a.p.:.Q./._.b.1.).Q./.(.|.v._././.4X",
"u.c.} N.[.u. .F.Z.u.d.>.[ L.[._.%Xu.n.[.oXM.n.[.Z.c.i.E ;.>.&.:.*.<.].A.S.].=XV.d.3.t.c.p.| ~ C.g.y.n.4X,.r M./.b.S.N.z.oXc.'.=X",
"S.].Z.5X6Xm.i.| y.:.m.V.{.t.'.&Xk.d.A.M._.;.A.i.` @.=.J W ` { ,.t./ @.;.| >.t.C.{ ..{ | / 3.t.y.#...A.i.~.%.| _.S.c.w.u.].S.6X3.",
"C.*X-X#Xm.@.@.w.i.&XzXtX:X0X$XoX].oXZ.g.} i.} ~ j.| | W ' ~ 3.3.>.q.u.;.3.~ ` g.~ E / { Q y.` { ` E p.V.A.M.7XoXb.Z.S.p.Z.7X/.;.",
"oXoX/.] ~.Z >._.b.7.P.[.'.u.;.@.@.y.M.b.6XaX].).v.=._.n.&.v.~.2.(.1.:.u.,.e.} t.+X].[.Z.A.b.#Xm.;.=.p.#XC.n.u.n.'.Z.V.2XOXA.c.Q.",
"c.'.oXF.wXv.2X[.b.b.s.;XlX^ I.tX3X#X;X0XtXC.2X=X3XaX Xv.{.sX].aX@X).R ^ _.lX%.m.3XV.b.[.A.#X#XU.:X{.=XC.%XS.L.@.f.t.D.1XV.;.u.d.",
"D.A.>Xm.,X/ X.C.I.%X-XR.0Xc.1X{ ! ;X$.t.#X&XI.4Xm.;Xm.L.oXm.3X6X( 4.+X@XT oXn.%XsXp.[ { 6.d.C.p.+.s.#Xj.3.@.#.V.>.#.@.@.l.D. .{ ",
"i.G.&XF.&Xx.) g.T.%X1XyXV.R.>XU.k.K.'.I.6XtX;X3XuX=X4X5X$Xb.e.6Xb.c.=XlXF sXN.3XAXsX4XtXhXi.N.Y.p.$XM.g.O.| g.} ;.3.u. .C.g.[ V.",
"].k.<X&X,Xw.p.V.&X<X1X=XF.R.1X .L.t.qX=X=XtX7X2XCXaX'.[.z.Z.;.7XOX:.=X5XZ.hX^./.nX4XsXnX;X*XuXhXhX6X5X4Xy.~ -.[ C.4.s.C.Y.#.y.,X",
"-.m.&XU.&X< Q V.P.J.f.9.J.&XpXrXhXpXwX:XkXdXjXnXCXZXdXfX(.jXAX5XaX5XsXhXU.rXoXh.#XNXsXjX.XbXeXmXvX6XhXfXdX'.'..XCXyX%X%Xt.p.rXqX",
"Z.:.f.U.Z.>.} p.Y.Y.l.k.Y.;XR.T.eXeX;X,X,X:X'.5X$X=X;XA.U.i.oXtXS.=X,Xb.K.U.g.h.I.$X{.gX0XjX3XT.iXyX:X=X[.=X4XN.oXD._.[.;X:Xp.l.",
"gXzXdX6XOX5XnXdX+XbXD.C._.'.Z.'.c.c.'.v.m..Xw.z.{.v.(.`._.OX=X4X4Xv.>.c.c.p.S.-.;.g.W ` a.C.A.V.8.A.u.<Xv.V.<Xm.c..X4X_.4X0X].oX",
"mXMXhX,XuXBXNXZXnX@Xe.MX=XfXb.n.].).S.c.u.m.'.XX(.D.=Xw.c.'..X_.4X/.-.=X:.;.3.@./ m.j.{ $.d.F.{ W l.y.B t.S.&Xi.@.>X,X,X;XwXMXNX",
"MXcX4X4XwXNXMXnXMXNXx.R.*XZ.Z.=X.Xu.i.x.g.y.c.S._.Z.b.u.-.N.`.`.%X).` <Xg.#.i.@.C.Z.m.Q / } $.g.A.A.$.3.t.g.d.y.L.s.Y.eXeXmXyXrX",
"Z.yXqXvXNXuXtXyXNXuXV.H.R.O...4Xx.x.q.V.@.} y.g.q.) W q.q.} Z.Z.c.oXI.:Xc.@.5.d.m.k.3. .' g.{ d.6.Q Q X.5.y.y.m.`.y.g.w.C.k.C.wX",
"&X,XyXiX,XtX8XrXmXhXY.D.K./ i.` W [ } / u.!  .] | K K { W ! t.i.m.x.` Y.) d.g.t.$.f.g.y.g.=.w Q K 6.W Q a.t.R.C.Y.1XI.tX4XtXyXrX",
"_.I.4X].>X,X'.%X%XXXD.V.p.I.%X:.[ y.-.i.].u.:. .g..X-.) } z.} t.t.S.Z.%Xz.;.] / -.t.;.N.m.C.Z.e.;./ D.t.-./.y.I.} 6.c.V.#X-XR.;X",
"d.| ~ z.I.>XC.O.$.l.d.L.H.d.+.P.L.>XY.T.J.Y.w.e.^._..X].].`.`.N.[.].V.N.`.].[.#XOXv.S.oX3X.XqXoX:..Xw.;.p.q.) a.y.Q O.l.k.d.e ..",
"d. .>.p.K.&X<X,X,XeX;Xh.l.A.{ y.T.J.$.+.~ f.C.3.]..X+XoXZ.`..X_.S.u.V.d.Z.'.Z.`.S.q.} N.Z._.'.]._ T.g.6.t.@.5.c.A.6.Q }  .k. .%X",
"_ X.| #.U.&XmXyXiXwX>X,X%X>XyX%XY.8XI.L.t.I.-Xg.3XaX'.q.c.N.p.Z.Z. .X.;.g.g.x.=.] x.t.t./.XXc.oXa.:XD. .#.5.m.I.3.| W u.#.5.C.} ",
"} e 5.c.s.bXyXtXeX;X,XkX4XD.K.mXvXvXvXNX:.fXA.i.'.2X`..Xa.| y.q. .a.y.[ ;.} } V N { Q Q p.c.p.XX6.&X;.@.m.m.@.s.g.i.d.i.B W ~ ~ ",
"q.t.W :.#XmXhXMXhXbXkXhXhXvXhXMXNXvXyXCXR jXg.5.Y.2X=X:X'.u.} &.i._.:.{ >.) m.v./ [ _ p.{ 6.t.y.} U.>.6. .W { 5.#.p.@.t.q.^ x._ "
};
