/* XPM */
static char *leq44_l0wm5[] = {
/* columns rows colors chars-per-pixel */
"64 64 249 2 ",
"   c #08070A",
".  c #181517",
"X  c #0F0D12",
"o  c #231C1D",
"O  c #271917",
"+  c #34231C",
"@  c #241F23",
"#  c #2B2424",
"$  c #292325",
"%  c #362B29",
"&  c #342D33",
"*  c #3C3337",
"=  c #392F2E",
"-  c #1F212F",
";  c #46352C",
":  c #563B2C",
">  c #443533",
",  c #4A3A35",
"<  c #443A3C",
"1  c #4C3D3C",
"2  c #443736",
"3  c #523E36",
"4  c #432F28",
"5  c #5A4335",
"6  c #54423C",
"7  c #58443A",
"8  c #4D413B",
"9  c #664939",
"0  c #78543D",
"q  c #6F4E3B",
"w  c #3E3B45",
"e  c #4A3F43",
"r  c #453D43",
"t  c #4D4144",
"y  c #4B444B",
"u  c #534543",
"i  c #5B4B45",
"p  c #534649",
"a  c #55494C",
"s  c #5B4C4B",
"d  c #594843",
"f  c #5E514D",
"g  c #5A4E51",
"h  c #534B51",
"j  c #5D5254",
"k  c #5F5458",
"l  c #4F4850",
"z  c #634D43",
"x  c #604E4B",
"c  c #6C4F41",
"v  c #63524D",
"b  c #6A5448",
"n  c #7C5A45",
"m  c #735B4B",
"M  c #785847",
"N  c #635553",
"B  c #685653",
"V  c #6B5A54",
"C  c #66595A",
"Z  c #6B5D5B",
"A  c #635758",
"S  c #725D54",
"D  c #785F53",
"F  c #7D614E",
"G  c #7C6453",
"H  c #73625B",
"J  c #7A655B",
"K  c #796559",
"L  c #6E605F",
"P  c #6B5E61",
"I  c #6C6264",
"U  c #676066",
"Y  c #736563",
"T  c #7B6A64",
"R  c #756A6B",
"E  c #7C6E6C",
"W  c #776763",
"Q  c #7B706E",
"!  c #7D7374",
"~  c #845E46",
"^  c #805F50",
"/  c #84634C",
"(  c #89654B",
")  c #976B4A",
"_  c #8B6B54",
"`  c #846B5C",
"'  c #8B6D5B",
"]  c #846754",
"[  c #946D53",
"{  c #936F57",
"}  c #8C715D",
"|  c #9B7254",
" . c #94735B",
".. c #9A755B",
"X. c #9D795E",
"o. c #957155",
"O. c #9C714E",
"+. c #A6754C",
"@. c #A57C5C",
"#. c #AA7D5A",
"$. c #A67A54",
"%. c #836D64",
"&. c #8C7364",
"*. c #88746B",
"=. c #947662",
"-. c #957965",
";. c #9C7B63",
":. c #947B6C",
">. c #9C7D6A",
",. c #977764",
"<. c #837573",
"1. c #8B7D7C",
"2. c #877977",
"3. c #947E73",
"4. c #997E73",
"5. c #A27E63",
"6. c #A17E68",
"7. c #AC815D",
"8. c #B3845B",
"9. c #BB8B5C",
"0. c #B78859",
"q. c #BE905E",
"w. c #9E826D",
"e. c #9F8067",
"r. c #9D8475",
"t. c #9B857B",
"y. c #97847A",
"u. c #8E817E",
"i. c #A58166",
"p. c #AB8464",
"a. c #A4836B",
"s. c #AA866A",
"d. c #AD896C",
"f. c #A9886C",
"g. c #B28662",
"h. c #B48A65",
"j. c #BA8D63",
"k. c #B38C6C",
"l. c #B98E6B",
"z. c #BB926C",
"x. c #BB9168",
"c. c #A38572",
"v. c #A68974",
"b. c #AC8B73",
"n. c #A48B7C",
"m. c #AB8D7B",
"M. c #A78772",
"N. c #B28E73",
"B. c #B38F76",
"V. c #AE917C",
"C. c #A7907A",
"Z. c #B49175",
"A. c #BB9474",
"S. c #B3947C",
"D. c #B9967B",
"F. c #BC997C",
"G. c #BA9879",
"H. c #C1946C",
"J. c #C59667",
"K. c #C19672",
"L. c #C49B74",
"P. c #C39C7C",
"I. c #C89D77",
"U. c #CBA27D",
"Y. c #C7A17C",
"T. c #D2A67A",
"R. c #D2A16C",
"E. c #C08F5E",
"W. c #867D80",
"Q. c #8D8384",
"!. c #8B8386",
"~. c #918482",
"^. c #988B88",
"/. c #9D908D",
"(. c #9C9294",
"). c #988F90",
"_. c #A38D83",
"`. c #A58F86",
"'. c #AC9384",
"]. c #AB958B",
"[. c #A89489",
"{. c #B29582",
"}. c #B59985",
"|. c #BB9C84",
" X c #B49B8B",
".X c #BB9E8A",
"XX c #B69783",
"oX c #A99A95",
"OX c #B69E91",
"+X c #BDA18C",
"@X c #BCA089",
"#X c #BCA393",
"$X c #BEA99C",
"%X c #B9A49A",
"&X c #ACA3A2",
"*X c #B5A8A5",
"=X c #BBB4B3",
"-X c #C29E82",
";X c #C39F89",
":X c #C5A284",
">X c #CBA583",
",X c #CDA986",
"<X c #C3A48C",
"1X c #C9A78B",
"2X c #CCAA8C",
"3X c #C6A88D",
"4X c #D3AB84",
"5X c #D3AD8B",
"6X c #D3A880",
"7X c #D9B28B",
"8X c #C2A592",
"9X c #C5A995",
"0X c #CBAC94",
"qX c #C4AC9B",
"wX c #CBAE9A",
"eX c #C1A69A",
"rX c #D0AE92",
"tX c #D0AF99",
"yX c #CDB19C",
"uX c #CBB097",
"iX c #D4B294",
"pX c #DAB693",
"aX c #DDB995",
"sX c #D3B49C",
"dX c #DBBA9C",
"fX c #D6B89D",
"gX c #E2BD98",
"hX c #E2B88B",
"jX c #C3AEA3",
"kX c #CCB4A3",
"lX c #C9B5AA",
"zX c #D4B9A4",
"xX c #DABDA4",
"cX c #D5BCAB",
"vX c #D3B8A5",
"bX c #CABAB4",
"nX c #D3BEB1",
"mX c #E0BEA2",
"MX c #E4C09B",
"NX c #DCC2AC",
"BX c #DDC1A6",
"VX c #D9C4B5",
"CX c #E3C5A9",
"ZX c #E4CAB3",
"AX c #E6CEB9",
"SX c #EBD2B9",
"DX c #F4D5B3",
"FX c #EAD8C7",
"GX c #ECE0D9",
/* pixels */
"r.+XOXZ.l.m.s.eXeX9XXX'.v.n. X].*.`.*.D <.XXXXxXXXA.dXrX;XtXcXwXtX;X;X].b. X3.%.Q ,.lXeXjX].'.2.`._.4._._.oX{.6.' *.].;XXX6.D.XX",
"qX'.'.eXoXB.kXnX*XkX]._._._.4.oXW Y S W E :.B.D.1XB.l.k.{.d.B.s.B.B.D.XXD.B.&. ...A.XXd.B.S.4.W %.W.W.:.*.].1.XX] H `.'.4.,.jX*X",
"m.OXsXrXjXW cX*XkXjX_.OX X X#Xy._.<.n.` A H %X.XxX5.O.^ ~ H.| ~ n c 5.l.#.o.O.N.+.5.0.;X/ _ eX[.W.2._.].W.].W k.6.%.W.{.2X.XwX1X",
"K.3X<XdXcX:.lXjXcX_.N.b.k.B.N.XX4.&.%.;.d &.eXlXtX-X+...^ I.K.| [ 3 @.H.O...o.{ ~ ~ D.SXn ^ M.{ { M ^ ' M D J h.5.*._.;Xk.D.wXd.",
"2X|.p.K.cX{.V.2XlXm.8X( [ $.O.+.) O.~ 9 c ~ mXZXmX4X$.~ [ k.k.| [ 9 ..H.) ) 5.) ) { FXFX6...: 9 q ~ ) +.^ ' d.,.c :.OXM.;X3XkX>X",
"xXZX0X1X9X<X|.%XcXcX$XwX}.#.O.$.#.| D M M M n M 7 ; % # + O O O O + + % 4 4 : 9 9 M B.;X-X~ ~ S z ~ #.#.#.6.5.5.b.4.1.4. XkXlXyX",
"%X%XeX%XoXc.l.d.s.<X0Xm.<X@.~ ~ ~ 3 ; # . . X X X . . o o $ $ @ # # o o O o O @ @ O O + 4 : c 9 9 ~ ~ | { {.6.~ c M 2.R Y T 4.%X",
"`.y.t.c.|. XkX'.5.l.P.}.XXM : # . X X X . . o @ % # % 2 > > e , , = # 2 % = = # $ # $ % + + + 4 4 : q 6.' 8X-X6.4.XX*.S D W >.`.",
" X'.{..X;X#.hXbXm.DXAXFXL   X X . o $ % # = % = 1 4 , 3 ; 7 E j <.E g z 4 > 3 > > 2 = > % % % % = # % XXV.[ p.5.5.5.8XxXXX-XeXXX",
"M.B.b.;X8X8X-XnXt..X3.2 X $ @ # > = 1 e , 3 , , u 3 7 i V %.2.v *.*.R [.T z z 3 3 3 3 d 3 , , > 4 , 4 7 / M 4. .&._.>.] d.B.S.;X",
"` ,.A.B.;XsXwXtXA     X $ # # 8 e 1 B Z x x x z z d z Y oX[.E u <.f , Y &X<.b B x V d z b e z z 1 > 2 % % . A 9X;XnXW.b D.6.D.XX",
">.N.m.D.D.5.K.mXA   o $ = t 1 v x x S N e x B <.W.*.E E g ^./.I Q P C <.).Z p g S D d d d p x B d 7 3 3 3 % S v.5.wX^.x M.m.S.5.",
"S ^ N.wXXX-XD.rXV X & & < p p x B B A x A /.1.2.2.%.R oX2.Z Z g <.W.^.*X1.P <.k v D d u d u d S B b d z d % b wX XsX1X&.^ c._.;.",
":.' ^ M.XXB.1XvXZ o e * * u u B N i b E &XQ.x B v x p 2.^.R <.Y ~.~.W W.~.W.!.g s B j V B s V Z S B z e S s z tXkXcX5X6.:.4.4.6.",
"{.v.B.,.-XM.1XkXN @ r e e p d Z C p Z (.E N s Z Z C 2.*X~.~.W.E oX2.I W.~.E ~.! <.<.g Z Y a L W B N V i S u B dX;X6.s.=.] b.V.8X",
"-X_.jXOXeXlXjXlXg & e e e g u N p Y &XW.p Z I 1.*X!.W.!.N N g L ^.Z g V Z g R ! ).&XR V Z d C W B N N x v 6 v fX1X` ,.OX3.6.N.P.",
"].OXkXcXjXnXwXhXj & y a s h 1 a h ).bXR a ).(.(.(.A e a u Z U I oX*X2.^.W.P !.2.R ).Z N W p C W i g B x z e ; F.tX.Xc.-X} k.-XD.",
";X-XP.1X9XyXvXrXN & y r g a p h j ^.W.u e <.W.W.(.<.R <., N N p B !.W.C g h N p s ! s r N p N D x x N d d e 3 xXeXyX2.a._.S.d.P.",
"#.B.a.,Xk.xX;XP.C & r t k h g g l I R g a P A h (.).2.(.Y R ! N x v !.(.g a N g g C N s C p Z T v N B x , 3 , 8XkX XnXxXNXt.>Xd.",
"-XD.k.6.:XXXB.K.C & y h j C g j C g (.!.R E Y L <.R ~.*X2.R W.I Q ^.~.&XL p x e a B S e v x B S x v B x e e , OXkXcXCXZXdXr.b.vX",
"cXZ.L.g.P.5.7.l.Z & l l k C h g N g ! 1.~./.W.1.W.E T W u , 6 A N L U Q.B z z , i B B d Z d s v x N Z N e x > XXNXBXNXyXSXu.<XZX",
"vX5X..n h.k.g.a.h * y h l C g g p f P C x x E /.W.Y *.E Z I E Y Z R U C i p N e s B N s Z d s A N B S v e v > ].VXqXvXcXSXK U.AX",
"CXK.o.qX>X..Z.N.C & y e l h u a p j Z s Z j ^.&X<.R E <.v Y ! U Y (.U p e < A g p N N g A d e N v v s v e B 3 OXyXjXlXNXZX<.8.DX",
".XB.>XiX|.B.6.a.l & l r h l r N g N N j j k R ).g g N N g p A C I Y g h g h g k g g C g s j a s a p e e 3 B , s.iX+X8X X@X#X'.S.",
"kXy.<Xa.+XP.V..Xg $ y p r p p a p p h p p h x I C j P g k P j k N g A t a a y j p p s e g a t p u u s u i s = } qX.XjXqXsXVX9XyX",
"CXr.:X@X1X-X|.>Xg - w r r r y e r e e e e < * > < r 2 * * < e 2 * * * 2 * * t * & % < y r < r * r r * e e 2 % _ ZXeXBXNXVXDXrXaX",
"0Xi.G.5.#.o.k.P.G B T ` D ] ' &.` D ' J =.:.*.t.*.J H %.*.:.*.*.*.E %.4._.y.%.3.2.*.T W W C :.:.J D ' :.4.&.&.'.}.@X}.gXxXdXrX2X",
"P.<XfX1XP.,Xk.N.l.h.k.#.#.#.8.8.+.$.+.[ j.l.H.J...l.I.a.K.I.k.p.g.b.,.6.d.o.] 1XZ.b.<XpX5X .k.A.P.k.p.h.k.i.k.,.` 0X*.@XuXyXiXuX",
"8.I.4X5X>X>X4Xk.p.j.4X_.d.4X,X{..X XOXV.N._.].n.m.`. ._ ' ,. Xc.2XNX3X1X+X}.@XyX+X8XlXkXkXyXqX0X XwXwX#X+X,X|.v.Y.1XL.iXfXU.Y.Y.",
"L.H.I.z.L.T.dXI.I.L.l..XiXBX4XH.1Xi.T.].c.n.r.M.{ D ;.'  .M.n.t.T.NXyX2XA.4X0XCXcXxX*XBX XY.iXS.S.xX5.>X}.G.aXS.:XrX2X,X7X,X,XpX",
">XiX>X7Xk.h.h.8.l.A.g.>XP.B.-Xh.p.O.d.K.l.p.a.g...X.k.B.N.D.D.v.U.pXh.g.x.K.>XwXiXrXF.uX|.5X7XyX0XkXZ.:X:X2XuX}.7XBXsX5X5X:XiXA.",
"Y.T.>XCXdXH.H.L.H.j.rX'.R.=.s.[ O.O.5.6.P.5.$.a...o.@.k.k.3X<Xm.x.Y.7.0.T.U.MXSXyXNXVXqXF.0XxXsXeX8X:XA.0X9X|.G.iX<XsX8X7XY.,XG.",
"H.x.x.A.A.<X1X8X9X|.S.F.7Xb. .z.d.p.b.S.rX@XG.S.F.f.i.-.A.Z.C.}.@Xz.<XrXuX9X$X<X0X#Xv.}..X|.+X@XF.b.S.N.D.|.d.X.L.j.s.7.G.0Xx.z.",
"q.9.q.0.8.o.Y.+X#X}.#X8XXXa.+Xw.dXfXBXkXuXfXNXfXrXU.r.H b F ; b ] G.C.n.#XC.}.#X<Xn.V.v.:XdXpXkXwXdXcXzX0X>XzX=Xa.R.J.9.q.J.E.9.",
"q.q.8.x.j.8.Y.Y.Z.x.7X;Xx.U.4X` fXmX5XMX4X2XaXY.Z.l.MX7X| G m F 5 6 t.@XS.Z.T.uXA.K.4Xw.C.SX5XMXiX2XaX,XL.h.7XsXX.J.J.0.j.J.E.J.",
"7.7.9.h.k.-.z.8.k.p.I.4Xk.9XXXZ.uXZ.,XrXz.U.gX} 8 } MX9X8 9 o.i.z.F ; h.A.A.j.>XL.F.qXf.+X:XL.iXL.L.pX2XB.U.aXxXX.R.J.J.9.g.J.9.",
"h.g.h.x.x.v.b.x.:XG y.qXp.L.I.7XpX7XyXmXyXfXdX*.< a uX/.= } X.] _ q = f.5XB.@XV.@.x.Y.4XaX2XiXBXsXfXsXsXtXvXxXvXXXI.z.h.K.j.x.h.",
"9.9.0.7.0.9.0.J.y.2 ).oX:.|.v.r.%XoXr.`.T.+Xu.f H w.#X#Xt.B 6 v m F 7 i.6X6X4.1.u.b.F.>.#X%Xn.t.,X|.XXS.#X|.#X#XjX_.#XK.9.0.+.0.",
"x.0.9.8.8.0.$.{ u T S.G @X3.C.B.w.i.$.].+XB Z e.x.@X2X3XsXyX0X Xf.e./ k.B.v.;.} r.{.:.|.-.v.$.v.9Xl.N.Z.k.-X0X1XyX8XwX<Xh.7.0.Y.",
"q.7.$.q.8.$.7.-.j 4.f.o.g.p.a.:X@XD.&.Z B ' 7X .o.@XF.@Xb.w.Z.v.e.F / F.y.S...X.7.A.,.|.F.B.,.n P.L.>Xd.@.XX-X;XS.;.sX3Xs.E.$.+.",
"9.9.8.8.$.$.9.G.f t.BX@XP.,X@XC.&.Y f e.3X2Xw.8 K dXzX5XNX<XN.f.e.o.e.k._ :XA.d.i.h.z.p.$.a.`  .gX-Xh.G.XX3X0X+XyX;XyXyXp.8.8.$.",
"8.7.8.9.h.x.A.wXT B u.u.u.Q R K &.G.yXBXNX!.f ^.$Xn.&.T T b i v.A.}.K k.w.@XC.w.a.w.}.V.@X XS. XXX.XS..X'.|.;.V.|.S.D.a.| $.@.0.",
"+X:X6.F.#X2.8X+X%.Z [.t.w.w./.}.mX3X$XL 8 R yXt.d f H m T j 8 H } r.G ..`.t.*.w.].+X'.{.V.@Xf.f.:.^.{.{.m.1.[./.[.].OXn.XX'.[.0X",
"a.b.o.V.+Xf...L.' b A.w.o.Y.@X}.F.{.$X8 R VXH 8 ,.N.b.] i.G i b f a H S m V :.A.h.i.i.b.d...( A.h.5.M.3XX.9 C.'.V.S.V.c.#Xb.}.<X",
"D..XV.qXwXk.a.,._ D Z.k.{.i.G.,Xz.F.uXG $X X8 q @.@.,.F / o.X.=.9 } 7.e.F G ] e.| X.o.X._ 7.7.p.#.$.A.B.'.&.X.}.:Xb.>.a. XD.wX6.",
"A.1X2XP.k.@.@.c.;.D.NXyX2XsX8XuX#X#XF.f. .f.9 + 9 F ] n _ ( h.c % 7 9 5 5 5 9 8 ; 0 ( o._ d.X.| _ 0 X.;.w.} y.y.,.V.XXd.V.9X'.,.",
"#X#XV.&.`.B -.|.B.7.Y.:XS.H b q q G e.w.uXBXC.u.%.s V v 7 K %.= = N } e.e.^.C.f.W % b S.a.G F z z 7 b ` ` F m 6 * ;.A.8X$XF.b._.",
"m.}.#XA.iXn.#X.XC.C.7.5X=Xb e.[.u.K G V Y G t.}.sXcX8Xm.V.T d 2.f j U } S.VX` G.&.% , b 7 ` w.z.2X X0X;.G m m 7 ( 7.F.iXk.-.a.g.",
"G.Z.4XN.4X_ O.A.-X-X>X>XyXb.hXs.S.NXXX6.i.-.m b b v.i.U.$Xe.#XvXK m j k u T b b H ` q q @.l.F.k.$.h.] 4 / o.7.G.w.7.e.7.h.G...| ",
"p.J.U.G.>Xv.' k.U.U.7XdXA.T.4XH.h.:XcXNXVXBXrX|.C.6 b T w.C._.sXV.B.@X%Xa ].&.}.FXvXuXzXzXf.B.Y.D.B.8 } 7.b / / e.p.i.e.z.k.O.Z.",
" Xz.6X>X5Xr.d.l.>X4X7X<XA.T.7Xe.L.#.0X9XvXAXbXkXFX/.w.w.i z 5 y.+X:.0XsXV.BX'.].VX9XlXVX5X2XsXsXC.K 7 <Xp.0 m 9 9 5 _ x.Y.7.p.7X",
"=.N.>XU.>X3 ( Z.I.J.j.0.J.U.hXaXxXhXiX:XxXlXVXGXGXGXVXNX XkXoXH Z T `.yXT.MX$Xk.P.VXkXvX@XBXpXmXy.2 i }.$Xw.` T R 8 8 d.i.f.iXuX",
"S.:.h.P.S.6. .s.I.Y.x.x.>X,X4XU.aXpX3XrX2X3X}.9X:X0XNXvXBX+XlXxXb.} m 7 F f.p.x.>X0X|.xXkXzXuX7XaXK v f b F e.&.'.i B #X3X3X7.z.",
"vXnXlXkX%X9XVXlX%XcXF.A.{.|.D.D.d.m.|.v.Z.+Xr.c.}.n.[.}.%XbXNXVXVX$XS.w.J 9 9 6 9 F 9 ~ ;.d.b.i.( G ] A.C.G.7XZ.Z.T e.|.uXyX@X$X",
"CXSXxX4XvXSXSXFXnX=Xt.ZX<XkXC.n. X[.S.Z.s.b.|..X}.F.#Xw.f.}.|.}.yX$XoXNXjXqX+XS.K 6 M c 9 5 5 + 9 J.d./ i.S.U.f.p.e.v.7X2XaXNXAX",
"ZXgX1X0XiXZXZXVXZXZXv.T.,XD.Z.<X+Xa.a.v.k.p.b.D.S.V.B.M.=.C.}.}.@X`._ T.b.Z.D.:XuX_.qX|.[.'.i.7.Z.G.| e.e.h.d.g.Y.| Z.aXiXCXfXaX",
"F.dXuXNXAXfXsXfXAXsXZ.J.T.$...0Xv.v.a.Z.@. .p.d.;.&./ ;.i. .S.S.Z.+XF.3XN.| 7.8.g.d.5.;.{ z.X.h.@.( ( O.7.g.s.N.G.7.f.w.A.x.G.pX",
":X2XpXmX7XsXrXpXCXxXU.G.K._ s.{ / o. ._ a.) X.&.,.F ~ | / ) i.f.Z.f.[ Y.' g.k.i.@.j.k.p.g.=.9 / / @./ ( a.i.T.z.Y.7XY.sX0XsXfXaX",
"}.G.3X X4X5X;XY.:X@XD.Z.b.P.:X;.[ s.-.M. Xa.:...k.#X:.'  .c. .5.w.D.V.:Xv.;.&._ -.i.;.V.m.A.S.n.;._ P.e.-.'.p.P.} 7.v.Z.:X2XT.2X",
"h.X.) c.P.,XZ.$.@.j.k.K.H.8.#.I.L.4XY.T.H.U.r.c.'.{..X X X X}.m.@X XZ.V.D.|. X@X#X_.S.#X0X.XuX.X:.+Xt.-.d.i.` d.p.( | x.z.h.0 | ",
"h...;.b.K.>X>X2X5XiX2Xl.j.D.| p.U.L.$.+.) j.A.5. X X#X#XS.}.+X{.D.6.Z.h.S.|.S.}.D.>. .V.D.'.@X X] Y.k.@.i.5.#.b.D.i.(  ...k.@.:X",
"_ O...$.I.>XCXgXgXiX4X5X:X4XfX>XY.5XP.L.i.P.:Xk.$XqX.Xa.b.S.d.S.S.;.O.X.d.k.M.=. .v.w.i.{.|.N.#Xd.2XD.@.@.7.N.P.5...~ a.@.8.A. .",
"..q 7.M.7.CXfXsXpX2X5XcX0XF.A.CXNXNXNXZX:.vXD.s.D.8X X+Xd.o.s.;...M.i.o.@.=. .M n | ] ( b.M.k.}.i.>X-.@.z.N.@.g.k.s.h.f.M / _ ) ",
"e.i._ -.-XCXxXZXxXCXxXxXxXCXxXZXZXNXdXFXQ kXk.7.P.9X<X3X|.a.,.} f.{.:.| >.' b.n.' [ ( p.| 7.i.p.{ P.>.#.X.( o.#.#.s.5.i.i.G v.( "
};
